<?xml version="1.0" encoding="UTF-8" standalone="no"?>
<!DOCTYPE svg PUBLIC "-//W3C//DTD SVG 1.1//EN"
 "http://www.w3.org/Graphics/SVG/1.1/DTD/svg11.dtd">
<!-- Generated by graphviz version 2.47.0 (20210316.0004)
 -->
<!-- Title: G Pages: 1 -->
<svg width="171pt" height="83pt"
 viewBox="0.00 0.00 171.00 83.00" xmlns="http://www.w3.org/2000/svg" xmlns:xlink="http://www.w3.org/1999/xlink">
<g id="graph0" class="graph" transform="scale(1 1) rotate(0) translate(4 79)">
<title>G</title>
<polygon fill="white" stroke="transparent" points="-4,4 -4,-79 167,-79 167,4 -4,4"/>
<!-- stack -->
<g id="node1" class="node">
<title>stack</title>
<polygon fill="none" stroke="#f0f0f0" points="8.5,-24.5 8.5,-70.5 28.5,-70.5 28.5,-24.5 8.5,-24.5"/>
<text text-anchor="start" x="12.5" y="-43.8" font-family="Times,serif" font-size="14.00">of</text>
<polygon fill="none" stroke="black" points="28.5,-47.5 28.5,-70.5 46.5,-70.5 46.5,-47.5 28.5,-47.5"/>
<text text-anchor="start" x="34" y="-55.3" font-family="Times,serif" font-size="14.00">c</text>
<polygon fill="none" stroke="black" points="46.5,-47.5 46.5,-70.5 65.5,-70.5 65.5,-47.5 46.5,-47.5"/>
<text text-anchor="start" x="52.5" y="-55.3" font-family="Times,serif" font-size="14.00">3</text>
<polygon fill="none" stroke="black" points="28.5,-24.5 28.5,-47.5 46.5,-47.5 46.5,-24.5 28.5,-24.5"/>
<text text-anchor="start" x="34" y="-32.3" font-family="Times,serif" font-size="14.00">a</text>
<polygon fill="none" stroke="black" points="46.5,-24.5 46.5,-47.5 65.5,-47.5 65.5,-24.5 46.5,-24.5"/>
<text text-anchor="start" x="31.5" y="-10.3" font-family="Times,serif" font-size="14.00">Stack</text>
</g>
<!-- a -->
<g id="node2" class="node">
<title>a</title>
<polygon fill="none" stroke="black" points="119,-35.5 119,-60.5 153,-60.5 153,-35.5 119,-35.5"/>
<text text-anchor="start" x="131" y="-45.3" font-family="Times,serif" font-weight="bold" font-size="14.00">A</text>
<polygon fill="none" stroke="black" points="119,-10.5 119,-35.5 136,-35.5 136,-10.5 119,-10.5"/>
<text text-anchor="start" x="124" y="-19.3" font-family="Times,serif" font-size="14.00">h</text>
<polygon fill="none" stroke="black" points="136,-10.5 136,-35.5 153,-35.5 153,-10.5 136,-10.5"/>
<text text-anchor="start" x="141" y="-19.3" font-family="Times,serif" font-size="14.00">2</text>
</g>
<!-- stack&#45;&gt;a -->
<g id="edge1" class="edge">
<title>stack:c&#45;&gt;a</title>
<path fill="none" stroke="black" d="M57.5,-35.5C57.5,-35.5 78.56,-35.5 98.72,-35.5"/>
<polygon fill="black" stroke="black" points="98.76,-39 108.76,-35.5 98.76,-32 98.76,-39"/>
</g>
</g>
</svg>
