<?xml version="1.0" encoding="UTF-8" standalone="no"?>
<!DOCTYPE svg PUBLIC "-//W3C//DTD SVG 1.1//EN"
 "http://www.w3.org/Graphics/SVG/1.1/DTD/svg11.dtd">
<!-- Generated by graphviz version 2.47.0 (20210316.0004)
 -->
<!-- Title: G Pages: 1 -->
<svg width="177pt" height="106pt"
 viewBox="0.00 0.00 177.00 106.00" xmlns="http://www.w3.org/2000/svg" xmlns:xlink="http://www.w3.org/1999/xlink">
<g id="graph0" class="graph" transform="scale(1 1) rotate(0) translate(4 102)">
<title>G</title>
<polygon fill="white" stroke="transparent" points="-4,4 -4,-102 173,-102 173,4 -4,4"/>
<!-- stack -->
<g id="node1" class="node">
<title>stack</title>
<polygon fill="none" stroke="#f0f0f0" points="8.5,-48 8.5,-94 28.5,-94 28.5,-48 8.5,-48"/>
<text text-anchor="start" x="16" y="-67.3" font-family="Times,serif" font-size="14.00">f</text>
<polygon fill="none" stroke="black" points="28.5,-71 28.5,-94 56.5,-94 56.5,-71 28.5,-71"/>
<text text-anchor="start" x="39" y="-78.8" font-family="Times,serif" font-size="14.00">b</text>
<polygon fill="none" stroke="black" points="56.5,-71 56.5,-94 71.5,-94 71.5,-71 56.5,-71"/>
<text text-anchor="start" x="60.5" y="-78.8" font-family="Times,serif" font-size="14.00">1</text>
<polygon fill="none" stroke="black" points="28.5,-48 28.5,-71 56.5,-71 56.5,-48 28.5,-48"/>
<text text-anchor="start" x="32.5" y="-55.8" font-family="Times,serif" font-size="14.00">this</text>
<polygon fill="none" stroke="black" points="56.5,-48 56.5,-71 71.5,-71 71.5,-48 56.5,-48"/>
<polygon fill="none" stroke="#f0f0f0" points="8.5,-25 8.5,-48 28.5,-48 28.5,-25 8.5,-25"/>
<text text-anchor="start" x="12.5" y="-32.8" font-family="Times,serif" font-size="14.00">of</text>
<polygon fill="none" stroke="black" points="28.5,-25 28.5,-48 56.5,-48 56.5,-25 28.5,-25"/>
<text text-anchor="start" x="39" y="-32.8" font-family="Times,serif" font-size="14.00">a</text>
<polygon fill="none" stroke="black" points="56.5,-25 56.5,-48 71.5,-48 71.5,-25 56.5,-25"/>
<text text-anchor="start" x="34.5" y="-10.8" font-family="Times,serif" font-size="14.00">Stack</text>
</g>
<!-- a -->
<g id="node2" class="node">
<title>a</title>
<polygon fill="none" stroke="black" points="125,-48 125,-73 159,-73 159,-48 125,-48"/>
<text text-anchor="start" x="137" y="-57.8" font-family="Times,serif" font-weight="bold" font-size="14.00">A</text>
<polygon fill="none" stroke="black" points="125,-23 125,-48 142,-48 142,-23 125,-23"/>
<text text-anchor="start" x="130" y="-31.8" font-family="Times,serif" font-size="14.00">h</text>
<polygon fill="none" stroke="black" points="142,-23 142,-48 159,-48 159,-23 142,-23"/>
<text text-anchor="start" x="147" y="-31.8" font-family="Times,serif" font-size="14.00">2</text>
</g>
<!-- stack&#45;&gt;a -->
<g id="edge1" class="edge">
<title>stack:c&#45;&gt;a</title>
<path fill="none" stroke="black" d="M65.5,-60C65.5,-60 85.31,-56.85 104.64,-53.78"/>
<polygon fill="black" stroke="black" points="105.27,-57.22 114.59,-52.2 104.17,-50.31 105.27,-57.22"/>
</g>
<!-- stack&#45;&gt;a -->
<g id="edge2" class="edge">
<title>stack:c&#45;&gt;a</title>
<path fill="none" stroke="black" d="M65.5,-36C65.5,-36 85.31,-39.15 104.64,-42.22"/>
<polygon fill="black" stroke="black" points="104.17,-45.69 114.59,-43.8 105.27,-38.78 104.17,-45.69"/>
</g>
</g>
</svg>
