<?xml version="1.0" encoding="UTF-8" standalone="no"?>
<!DOCTYPE svg PUBLIC "-//W3C//DTD SVG 1.1//EN"
 "http://www.w3.org/Graphics/SVG/1.1/DTD/svg11.dtd">
<!-- Generated by graphviz version 2.47.0 (20210316.0004)
 -->
<!-- Title: G Pages: 1 -->
<svg width="171pt" height="74pt"
 viewBox="0.00 0.00 171.00 74.00" xmlns="http://www.w3.org/2000/svg" xmlns:xlink="http://www.w3.org/1999/xlink">
<g id="graph0" class="graph" transform="scale(1 1) rotate(0) translate(4 70)">
<title>G</title>
<polygon fill="white" stroke="transparent" points="-4,4 -4,-70 167,-70 167,4 -4,4"/>
<!-- stack -->
<g id="node1" class="node">
<title>stack</title>
<polygon fill="none" stroke="#f0f0f0" points="8.5,-25 8.5,-48 28.5,-48 28.5,-25 8.5,-25"/>
<text text-anchor="start" x="12.5" y="-32.8" font-family="Times,serif" font-size="14.00">of</text>
<polygon fill="none" stroke="black" points="28.5,-25 28.5,-48 50.5,-48 50.5,-25 28.5,-25"/>
<text text-anchor="start" x="36" y="-32.8" font-family="Times,serif" font-size="14.00">a</text>
<polygon fill="none" stroke="black" points="50.5,-25 50.5,-48 65.5,-48 65.5,-25 50.5,-25"/>
<text text-anchor="start" x="31.5" y="-10.8" font-family="Times,serif" font-size="14.00">Stack</text>
</g>
<!-- a -->
<g id="node2" class="node">
<title>a</title>
<polygon fill="none" stroke="black" points="119,-37 119,-62 153,-62 153,-37 119,-37"/>
<text text-anchor="start" x="131" y="-46.8" font-family="Times,serif" font-weight="bold" font-size="14.00">A</text>
<polygon fill="none" stroke="black" points="119,-12 119,-37 136,-37 136,-12 119,-12"/>
<text text-anchor="start" x="124" y="-20.8" font-family="Times,serif" font-size="14.00">h</text>
<polygon fill="none" stroke="black" points="136,-12 136,-37 153,-37 153,-12 136,-12"/>
<text text-anchor="start" x="141" y="-20.8" font-family="Times,serif" font-size="14.00">0</text>
</g>
<!-- stack&#45;&gt;a -->
<g id="edge1" class="edge">
<title>stack:c&#45;&gt;a</title>
<path fill="none" stroke="black" d="M59.5,-37C59.5,-37 79.13,-37 98.37,-37"/>
<polygon fill="black" stroke="black" points="98.59,-40.5 108.59,-37 98.59,-33.5 98.59,-40.5"/>
</g>
</g>
</svg>
