<?xml version="1.0" encoding="UTF-8" standalone="no"?>
<!DOCTYPE svg PUBLIC "-//W3C//DTD SVG 1.1//EN"
 "http://www.w3.org/Graphics/SVG/1.1/DTD/svg11.dtd">
<!-- Generated by graphviz version 2.47.0 (20210316.0004)
 -->
<!-- Title: G Pages: 1 -->
<svg width="76pt" height="83pt"
 viewBox="0.00 0.00 76.00 83.00" xmlns="http://www.w3.org/2000/svg" xmlns:xlink="http://www.w3.org/1999/xlink">
<g id="graph0" class="graph" transform="scale(1 1) rotate(0) translate(4 79)">
<title>G</title>
<polygon fill="white" stroke="transparent" points="-4,4 -4,-79 72,-79 72,4 -4,4"/>
<!-- stack -->
<g id="node1" class="node">
<title>stack</title>
<polygon fill="none" stroke="#f0f0f0" points="8,-24.5 8,-70.5 23,-70.5 23,-24.5 8,-24.5"/>
<text text-anchor="start" x="12" y="-43.8" font-family="Times,serif" font-size="14.00">g</text>
<polygon fill="none" stroke="black" points="23,-47.5 23,-70.5 41,-70.5 41,-47.5 23,-47.5"/>
<text text-anchor="start" x="28.5" y="-55.3" font-family="Times,serif" font-size="14.00">d</text>
<polygon fill="none" stroke="black" points="41,-47.5 41,-70.5 60,-70.5 60,-47.5 41,-47.5"/>
<text text-anchor="start" x="47" y="-55.3" font-family="Times,serif" font-size="14.00">4</text>
<polygon fill="none" stroke="black" points="23,-24.5 23,-47.5 41,-47.5 41,-24.5 23,-24.5"/>
<text text-anchor="start" x="28.5" y="-32.3" font-family="Times,serif" font-size="14.00">a</text>
<polygon fill="none" stroke="black" points="41,-24.5 41,-47.5 60,-47.5 60,-24.5 41,-24.5"/>
<text text-anchor="start" x="47" y="-32.3" font-family="Times,serif" font-size="14.00">1</text>
<text text-anchor="start" x="26" y="-10.3" font-family="Times,serif" font-size="14.00">Stack</text>
</g>
</g>
</svg>
