<?xml version="1.0" encoding="UTF-8" standalone="no"?>
<!DOCTYPE svg PUBLIC "-//W3C//DTD SVG 1.1//EN"
 "http://www.w3.org/Graphics/SVG/1.1/DTD/svg11.dtd">
<!-- Generated by graphviz version 2.47.0 (20210316.0004)
 -->
<!-- Title: G Pages: 1 -->
<svg width="389pt" height="98pt"
 viewBox="0.00 0.00 388.60 98.00" xmlns="http://www.w3.org/2000/svg" xmlns:xlink="http://www.w3.org/1999/xlink">
<g id="graph0" class="graph" transform="scale(1 1) rotate(0) translate(4 94)">
<title>G</title>
<polygon fill="white" stroke="transparent" points="-4,4 -4,-94 384.6,-94 384.6,4 -4,4"/>
<!-- hy -->
<g id="node1" class="node">
<title>hy</title>
<ellipse fill="black" stroke="black" cx="284.8" cy="-44" rx="1.8" ry="1.8"/>
</g>
<!-- e -->
<g id="node6" class="node">
<title>e</title>
<ellipse fill="none" stroke="black" cx="353.6" cy="-44" rx="27" ry="18"/>
<text text-anchor="middle" x="353.6" y="-40.3" font-family="Times,serif" font-size="14.00">e</text>
</g>
<!-- hy&#45;&gt;e -->
<g id="edge6" class="edge">
<title>hy&#45;&gt;e</title>
<path fill="none" stroke="black" d="M286.96,-44C290.71,-44 302.99,-44 315.94,-44"/>
<polygon fill="black" stroke="black" points="316.31,-47.5 326.31,-44 316.31,-40.5 316.31,-47.5"/>
<text text-anchor="middle" x="306.6" y="-47.8" font-family="Times,serif" font-size="14.00">i</text>
</g>
<!-- a -->
<g id="node2" class="node">
<title>a</title>
<ellipse fill="none" stroke="black" cx="27" cy="-45" rx="27" ry="18"/>
<text text-anchor="middle" x="27" y="-41.3" font-family="Times,serif" font-size="14.00">a</text>
</g>
<!-- b -->
<g id="node3" class="node">
<title>b</title>
<ellipse fill="none" stroke="black" cx="122" cy="-45" rx="27" ry="18"/>
<text text-anchor="middle" x="122" y="-41.3" font-family="Times,serif" font-size="14.00">b</text>
</g>
<!-- a&#45;&gt;b -->
<g id="edge1" class="edge">
<title>a&#45;&gt;b</title>
<path fill="none" stroke="black" d="M54.4,-45C63.81,-45 74.57,-45 84.66,-45"/>
<polygon fill="black" stroke="black" points="84.85,-48.5 94.85,-45 84.85,-41.5 84.85,-48.5"/>
<text text-anchor="middle" x="74.5" y="-48.8" font-family="Times,serif" font-size="14.00">f</text>
</g>
<!-- c -->
<g id="node4" class="node">
<title>c</title>
<ellipse fill="none" stroke="black" cx="219" cy="-72" rx="27" ry="18"/>
<text text-anchor="middle" x="219" y="-68.3" font-family="Times,serif" font-size="14.00">c</text>
</g>
<!-- b&#45;&gt;c -->
<g id="edge2" class="edge">
<title>b&#45;&gt;c</title>
<path fill="none" stroke="black" d="M147.46,-51.95C158.63,-55.13 172.04,-58.94 184.15,-62.38"/>
<polygon fill="black" stroke="black" points="183.37,-65.8 193.95,-65.16 185.28,-59.06 183.37,-65.8"/>
<text text-anchor="middle" x="170.5" y="-62.8" font-family="Times,serif" font-size="14.00">g</text>
</g>
<!-- d -->
<g id="node5" class="node">
<title>d</title>
<ellipse fill="none" stroke="black" cx="219" cy="-18" rx="27" ry="18"/>
<text text-anchor="middle" x="219" y="-14.3" font-family="Times,serif" font-size="14.00">d</text>
</g>
<!-- b&#45;&gt;d -->
<g id="edge3" class="edge">
<title>b&#45;&gt;d</title>
<path fill="none" stroke="black" d="M147.46,-38.05C158.63,-34.87 172.04,-31.06 184.15,-27.62"/>
<polygon fill="black" stroke="black" points="185.28,-30.94 193.95,-24.84 183.37,-24.2 185.28,-30.94"/>
<text text-anchor="middle" x="170.5" y="-36.8" font-family="Times,serif" font-size="14.00">h</text>
</g>
<!-- c&#45;&gt;hy -->
<g id="edge4" class="edge">
<title>c&#45;&gt;hy</title>
<path fill="none" stroke="black" d="M241.96,-62.36C258.1,-55.28 278.03,-46.53 282.76,-44.46"/>
</g>
<!-- d&#45;&gt;hy -->
<g id="edge5" class="edge">
<title>d&#45;&gt;hy</title>
<path fill="none" stroke="black" d="M242.31,-27.09C258.41,-33.65 278.1,-41.68 282.77,-43.58"/>
</g>
</g>
</svg>
