<?xml version="1.0" encoding="UTF-8" standalone="no"?>
<!DOCTYPE svg PUBLIC "-//W3C//DTD SVG 1.1//EN"
 "http://www.w3.org/Graphics/SVG/1.1/DTD/svg11.dtd">
<!-- Generated by graphviz version 2.46.0 (20210118.1747)
 -->
<!-- Title: G Pages: 1 -->
<svg width="257pt" height="133pt"
 viewBox="0.00 0.00 257.49 133.00" xmlns="http://www.w3.org/2000/svg" xmlns:xlink="http://www.w3.org/1999/xlink">
<g id="graph0" class="graph" transform="scale(1 1) rotate(0) translate(4 129)">
<title>G</title>
<polygon fill="white" stroke="transparent" points="-4,4 -4,-129 253.49,-129 253.49,4 -4,4"/>
<!-- c1 -->
<g id="node1" class="node">
<title>c1</title>
<text text-anchor="middle" x="27" y="-36.8" font-family="Times,serif" font-size="14.00">Circle c1</text>
</g>
<!-- ci1 -->
<g id="node2" class="node">
<title>ci1</title>
<ellipse fill="none" stroke="black" cx="122.5" cy="-29.5" rx="32.49" ry="18"/>
<text text-anchor="middle" x="122.5" y="-25.8" font-family="Times,serif" font-size="14.00">Circle</text>
</g>
<!-- c1&#45;&gt;ci1 -->
<g id="edge1" class="edge">
<title>c1&#45;&gt;ci1</title>
<path fill="none" stroke="black" d="M52.08,-37.67C60.66,-36.66 70.59,-35.49 80.2,-34.36"/>
<polygon fill="black" stroke="black" points="80.91,-37.8 90.44,-33.15 80.1,-30.85 80.91,-37.8"/>
</g>
<!-- p1 -->
<g id="node3" class="node">
<title>p1</title>
<ellipse fill="none" stroke="black" cx="220.24" cy="-29.5" rx="29.5" ry="18"/>
<text text-anchor="middle" x="220.24" y="-25.8" font-family="Times,serif" font-size="14.00">Point</text>
</g>
<!-- ci1&#45;&gt;p1 -->
<g id="edge2" class="edge">
<title>ci1&#45;&gt;p1</title>
<path fill="none" stroke="black" d="M155.11,-29.5C163.32,-29.5 172.26,-29.5 180.78,-29.5"/>
<polygon fill="black" stroke="black" points="180.89,-33 190.89,-29.5 180.89,-26 180.89,-33"/>
</g>
<!-- c2 -->
<g id="node4" class="node">
<title>c2</title>
<text text-anchor="middle" x="27" y="-113.8" font-family="Times,serif" font-size="14.00">Circle c2</text>
</g>
<!-- ci2 -->
<g id="node5" class="node">
<title>ci2</title>
<ellipse fill="none" stroke="black" cx="122.5" cy="-94.5" rx="32.49" ry="18"/>
<text text-anchor="middle" x="122.5" y="-90.8" font-family="Times,serif" font-size="14.00">Circle</text>
</g>
<!-- c2&#45;&gt;ci2 -->
<g id="edge3" class="edge">
<title>c2&#45;&gt;ci2</title>
<path fill="none" stroke="black" d="M52.08,-111.58C61.43,-109.28 72.37,-106.58 82.77,-104.03"/>
<polygon fill="black" stroke="black" points="83.63,-107.42 92.5,-101.63 81.96,-100.62 83.63,-107.42"/>
</g>
<!-- p2 -->
<g id="node6" class="node">
<title>p2</title>
<ellipse fill="none" stroke="black" cx="220.24" cy="-94.5" rx="29.5" ry="18"/>
<text text-anchor="middle" x="220.24" y="-90.8" font-family="Times,serif" font-size="14.00">Point</text>
</g>
<!-- ci2&#45;&gt;p2 -->
<g id="edge4" class="edge">
<title>ci2&#45;&gt;p2</title>
<path fill="none" stroke="black" d="M155.11,-94.5C163.32,-94.5 172.26,-94.5 180.78,-94.5"/>
<polygon fill="black" stroke="black" points="180.89,-98 190.89,-94.5 180.89,-91 180.89,-98"/>
</g>
<!-- o1 -->
<g id="node7" class="node">
<title>o1</title>
<text text-anchor="middle" x="27" y="-3.8" font-family="Times,serif" font-size="14.00">Object o1</text>
</g>
<!-- o1&#45;&gt;ci1 -->
<g id="edge5" class="edge">
<title>o1&#45;&gt;ci1</title>
<path fill="none" stroke="black" d="M54.04,-13.63C62.87,-15.7 72.92,-18.07 82.53,-20.33"/>
<polygon fill="black" stroke="black" points="81.77,-23.75 92.3,-22.63 83.37,-16.93 81.77,-23.75"/>
</g>
<!-- o2 -->
<g id="node8" class="node">
<title>o2</title>
<text text-anchor="middle" x="27" y="-80.8" font-family="Times,serif" font-size="14.00">Object o2</text>
</g>
<!-- o2&#45;&gt;ci2 -->
<g id="edge6" class="edge">
<title>o2&#45;&gt;ci2</title>
<path fill="none" stroke="black" d="M54.04,-87.29C62.12,-88.15 71.23,-89.12 80.09,-90.07"/>
<polygon fill="black" stroke="black" points="79.97,-93.58 90.28,-91.16 80.71,-86.62 79.97,-93.58"/>
</g>
</g>
</svg>
