<?xml version="1.0" encoding="UTF-8" standalone="no"?>
<!DOCTYPE svg PUBLIC "-//W3C//DTD SVG 1.1//EN"
 "http://www.w3.org/Graphics/SVG/1.1/DTD/svg11.dtd">
<!-- Generated by graphviz version 2.46.0 (20210118.1747)
 -->
<!-- Title: G Pages: 1 -->
<svg width="176pt" height="116pt"
 viewBox="0.00 0.00 175.74 116.00" xmlns="http://www.w3.org/2000/svg" xmlns:xlink="http://www.w3.org/1999/xlink">
<g id="graph0" class="graph" transform="scale(1 1) rotate(0) translate(4 112)">
<title>G</title>
<polygon fill="white" stroke="transparent" points="-4,4 -4,-112 171.74,-112 171.74,4 -4,4"/>
<!-- Circle -->
<g id="node1" class="node">
<title>Circle</title>
<ellipse fill="none" stroke="black" cx="78.5" cy="-18" rx="32.49" ry="18"/>
<text text-anchor="middle" x="78.5" y="-14.3" font-family="Times,serif" font-size="14.00">Circle</text>
</g>
<!-- Shape -->
<g id="node2" class="node">
<title>Shape</title>
<ellipse fill="none" stroke="black" cx="32.5" cy="-90" rx="32.49" ry="18"/>
<text text-anchor="middle" x="32.5" y="-86.3" font-family="Times,serif" font-size="14.00">Shape</text>
</g>
<!-- Circle&#45;&gt;Shape -->
<g id="edge1" class="edge">
<title>Circle&#45;&gt;Shape</title>
<path fill="none" stroke="black" d="M67.83,-35.24C62.14,-43.89 55.02,-54.73 48.67,-64.4"/>
<polygon fill="black" stroke="black" points="45.68,-62.57 43.11,-72.85 51.53,-66.42 45.68,-62.57"/>
</g>
<!-- Printable -->
<g id="node3" class="node">
<title>Printable</title>
<ellipse fill="none" stroke="black" cx="125.5" cy="-90" rx="42.49" ry="18"/>
<text text-anchor="middle" x="125.5" y="-86.3" font-family="Times,serif" font-size="14.00">Printable</text>
</g>
<!-- Circle&#45;&gt;Printable -->
<g id="edge2" class="edge">
<title>Circle&#45;&gt;Printable</title>
<path fill="none" stroke="black" d="M89.4,-35.24C95.13,-43.77 102.28,-54.42 108.7,-63.98"/>
<polygon fill="black" stroke="black" points="105.85,-66.02 114.33,-72.37 111.66,-62.11 105.85,-66.02"/>
</g>
</g>
</svg>
