<?xml version="1.0" encoding="UTF-8" standalone="no"?>
<!DOCTYPE svg PUBLIC "-//W3C//DTD SVG 1.1//EN"
 "http://www.w3.org/Graphics/SVG/1.1/DTD/svg11.dtd">
<!-- Generated by graphviz version 2.44.1 (20200629.0846)
 -->
<!-- Title: G Pages: 1 -->
<svg width="176pt" height="188pt"
 viewBox="0.00 0.00 175.74 188.00" xmlns="http://www.w3.org/2000/svg" xmlns:xlink="http://www.w3.org/1999/xlink">
<g id="graph0" class="graph" transform="scale(1 1) rotate(0) translate(4 184)">
<title>G</title>
<polygon fill="white" stroke="transparent" points="-4,4 -4,-184 171.74,-184 171.74,4 -4,4"/>
<!-- Circle -->
<g id="node1" class="node">
<title>Circle</title>
<ellipse fill="none" stroke="black" cx="78.5" cy="-18" rx="32.49" ry="18"/>
<text text-anchor="middle" x="78.5" y="-14.3" font-family="Times,serif" font-size="14.00">Circle</text>
</g>
<!-- PrintableShape -->
<g id="node2" class="node">
<title>PrintableShape</title>
<ellipse fill="none" stroke="black" cx="78.5" cy="-90" rx="63.89" ry="18"/>
<text text-anchor="middle" x="78.5" y="-86.3" font-family="Times,serif" font-size="14.00">PrintableShape</text>
</g>
<!-- Circle&#45;&gt;PrintableShape -->
<g id="edge1" class="edge">
<title>Circle&#45;&gt;PrintableShape</title>
<path fill="none" stroke="black" d="M78.5,-36.3C78.5,-44.02 78.5,-53.29 78.5,-61.89"/>
<polygon fill="black" stroke="black" points="75,-61.9 78.5,-71.9 82,-61.9 75,-61.9"/>
</g>
<!-- Shape -->
<g id="node3" class="node">
<title>Shape</title>
<ellipse fill="none" stroke="black" cx="32.5" cy="-162" rx="32.49" ry="18"/>
<text text-anchor="middle" x="32.5" y="-158.3" font-family="Times,serif" font-size="14.00">Shape</text>
</g>
<!-- PrintableShape&#45;&gt;Shape -->
<g id="edge2" class="edge">
<title>PrintableShape&#45;&gt;Shape</title>
<path fill="none" stroke="black" d="M67.36,-107.95C61.8,-116.41 54.96,-126.81 48.82,-136.16"/>
<polygon fill="black" stroke="black" points="45.78,-134.41 43.21,-144.69 51.63,-138.26 45.78,-134.41"/>
</g>
<!-- Printable -->
<g id="node4" class="node">
<title>Printable</title>
<ellipse fill="none" stroke="black" cx="125.5" cy="-162" rx="42.49" ry="18"/>
<text text-anchor="middle" x="125.5" y="-158.3" font-family="Times,serif" font-size="14.00">Printable</text>
</g>
<!-- PrintableShape&#45;&gt;Printable -->
<g id="edge3" class="edge">
<title>PrintableShape&#45;&gt;Printable</title>
<path fill="none" stroke="black" d="M89.87,-107.95C95.47,-116.29 102.34,-126.51 108.54,-135.75"/>
<polygon fill="black" stroke="black" points="105.74,-137.86 114.22,-144.21 111.56,-133.96 105.74,-137.86"/>
</g>
</g>
</svg>
