<?xml version="1.0" encoding="UTF-8" standalone="no"?>
<!DOCTYPE svg PUBLIC "-//W3C//DTD SVG 1.1//EN"
 "http://www.w3.org/Graphics/SVG/1.1/DTD/svg11.dtd">
<!-- Generated by graphviz version 2.46.0 (20210118.1747)
 -->
<!-- Title: G Pages: 1 -->
<svg width="399pt" height="220pt"
 viewBox="0.00 0.00 399.00 220.00" xmlns="http://www.w3.org/2000/svg" xmlns:xlink="http://www.w3.org/1999/xlink">
<g id="graph0" class="graph" transform="scale(1 1) rotate(0) translate(4 216)">
<title>G</title>
<polygon fill="white" stroke="transparent" points="-4,4 -4,-216 395,-216 395,4 -4,4"/>
<g id="clust1" class="cluster">
<title>cluster_0</title>
<polygon fill="none" stroke="black" points="8,-8 8,-132 150,-132 150,-8 8,-8"/>
</g>
<g id="clust2" class="cluster">
<title>cluster_1</title>
<polygon fill="none" stroke="black" points="158,-80 158,-204 383,-204 383,-80 158,-80"/>
</g>
<!-- Dog -->
<g id="node1" class="node">
<title>Dog</title>
<ellipse fill="none" stroke="black" cx="115" cy="-34" rx="27" ry="18"/>
<text text-anchor="middle" x="115" y="-30.3" font-family="Times,serif" font-size="14.00">Dog</text>
</g>
<!-- Animal -->
<g id="node2" class="node">
<title>Animal</title>
<ellipse fill="none" stroke="black" cx="104" cy="-106" rx="37.89" ry="18"/>
<text text-anchor="middle" x="104" y="-102.3" font-family="Times,serif" font-size="14.00">Animal</text>
</g>
<!-- Dog&#45;&gt;Animal -->
<g id="edge1" class="edge">
<title>Dog&#45;&gt;Animal</title>
<path fill="none" stroke="black" d="M112.34,-51.95C111.13,-59.65 109.66,-68.97 108.3,-77.64"/>
<polygon fill="black" stroke="black" points="104.81,-77.3 106.71,-87.72 111.72,-78.39 104.81,-77.3"/>
</g>
<!-- dc -->
<g id="node4" class="node">
<title>dc</title>
<ellipse fill="none" stroke="black" cx="326" cy="-106" rx="49.29" ry="18"/>
<text text-anchor="middle" x="326" y="-102.3" font-family="Times,serif" font-size="14.00">Dog::call()</text>
</g>
<!-- Dog&#45;&gt;dc -->
<g id="edge5" class="edge">
<title>Dog&#45;&gt;dc</title>
<path fill="none" stroke="black" stroke-dasharray="5,2" d="M139.76,-41.41C170.07,-49.46 222.83,-64.16 267,-80 276.63,-83.45 286.96,-87.66 296.24,-91.62"/>
</g>
<!-- ac -->
<g id="node5" class="node">
<title>ac</title>
<ellipse fill="none" stroke="black" cx="227" cy="-178" rx="61.19" ry="18"/>
<text text-anchor="middle" x="227" y="-174.3" font-family="Times,serif" font-size="14.00">Animal::call()</text>
</g>
<!-- Animal&#45;&gt;ac -->
<g id="edge7" class="edge">
<title>Animal&#45;&gt;ac</title>
<path fill="none" stroke="black" stroke-dasharray="5,2" d="M127.42,-120.33C148.2,-132.15 178.52,-149.41 200.24,-161.77"/>
</g>
<!-- Cat -->
<g id="node3" class="node">
<title>Cat</title>
<ellipse fill="none" stroke="black" cx="43" cy="-34" rx="27" ry="18"/>
<text text-anchor="middle" x="43" y="-30.3" font-family="Times,serif" font-size="14.00">Cat</text>
</g>
<!-- Cat&#45;&gt;Animal -->
<g id="edge2" class="edge">
<title>Cat&#45;&gt;Animal</title>
<path fill="none" stroke="black" d="M55.94,-49.85C63.96,-59.06 74.45,-71.09 83.58,-81.57"/>
<polygon fill="black" stroke="black" points="81.03,-83.96 90.23,-89.2 86.3,-79.36 81.03,-83.96"/>
</g>
<!-- cc -->
<g id="node6" class="node">
<title>cc</title>
<ellipse fill="none" stroke="black" cx="212" cy="-106" rx="46.29" ry="18"/>
<text text-anchor="middle" x="212" y="-102.3" font-family="Times,serif" font-size="14.00">Cat::call()</text>
</g>
<!-- Cat&#45;&gt;cc -->
<g id="edge6" class="edge">
<title>Cat&#45;&gt;cc</title>
<path fill="none" stroke="black" stroke-dasharray="5,2" d="M64.19,-45.37C69.02,-47.63 74.16,-49.96 79,-52 111.78,-65.83 120.99,-66.73 154,-80 163.36,-83.76 173.48,-88.05 182.61,-92"/>
</g>
<!-- dc&#45;&gt;ac -->
<g id="edge3" class="edge">
<title>dc&#45;&gt;ac</title>
<path fill="none" stroke="black" d="M304.03,-122.54C290.5,-132.1 272.96,-144.5 258.03,-155.06"/>
<polygon fill="black" stroke="black" points="255.74,-152.39 249.6,-161.02 259.78,-158.11 255.74,-152.39"/>
</g>
<!-- cc&#45;&gt;ac -->
<g id="edge4" class="edge">
<title>cc&#45;&gt;ac</title>
<path fill="none" stroke="black" d="M215.63,-123.95C217.3,-131.74 219.32,-141.18 221.2,-149.92"/>
<polygon fill="black" stroke="black" points="217.78,-150.68 223.3,-159.72 224.63,-149.21 217.78,-150.68"/>
</g>
</g>
</svg>
