<?xml version="1.0" encoding="UTF-8" standalone="no"?>
<!DOCTYPE svg PUBLIC "-//W3C//DTD SVG 1.1//EN"
 "http://www.w3.org/Graphics/SVG/1.1/DTD/svg11.dtd">
<!-- Generated by graphviz version 2.46.0 (20210118.1747)
 -->
<!-- Title: G Pages: 1 -->
<svg width="504pt" height="204pt"
 viewBox="0.00 0.00 503.70 204.00" xmlns="http://www.w3.org/2000/svg" xmlns:xlink="http://www.w3.org/1999/xlink">
<g id="graph0" class="graph" transform="scale(1 1) rotate(0) translate(4 200)">
<title>G</title>
<polygon fill="white" stroke="transparent" points="-4,4 -4,-200 499.7,-200 499.7,4 -4,4"/>
<!-- Dog -->
<g id="node1" class="node">
<title>Dog</title>
<ellipse fill="none" stroke="black" cx="37.7" cy="-18" rx="27" ry="18"/>
<text text-anchor="middle" x="37.7" y="-14.3" font-family="Times,serif" font-size="14.00">Dog</text>
</g>
<!-- Animal -->
<g id="node2" class="node">
<title>Animal</title>
<ellipse fill="none" stroke="black" cx="37.7" cy="-105" rx="37.89" ry="18"/>
<text text-anchor="middle" x="37.7" y="-101.3" font-family="Times,serif" font-size="14.00">Animal</text>
</g>
<!-- Dog&#45;&gt;Animal -->
<g id="edge1" class="edge">
<title>Dog&#45;&gt;Animal</title>
<path fill="none" stroke="black" d="M37.7,-36.2C37.7,-47.84 37.7,-63.45 37.7,-76.76"/>
<polygon fill="black" stroke="black" points="34.2,-76.82 37.7,-86.82 41.2,-76.82 34.2,-76.82"/>
</g>
<!-- dta -->
<g id="node3" class="node">
<title>dta</title>
<ellipse fill="none" stroke="black" cx="171.7" cy="-178" rx="66.09" ry="18"/>
<text text-anchor="middle" x="171.7" y="-174.3" font-family="Times,serif" font-size="14.00">Dog → Animal</text>
</g>
<!-- ata -->
<g id="node4" class="node">
<title>ata</title>
<ellipse fill="none" stroke="black" cx="171.7" cy="-105" rx="77.99" ry="18"/>
<text text-anchor="middle" x="171.7" y="-101.3" font-family="Times,serif" font-size="14.00">Animal → Animal</text>
</g>
<!-- ata&#45;&gt;dta -->
<g id="edge2" class="edge">
<title>ata&#45;&gt;dta</title>
<path fill="none" stroke="black" d="M171.7,-123.19C171.7,-131.21 171.7,-140.95 171.7,-149.93"/>
<polygon fill="black" stroke="black" points="168.2,-149.97 171.7,-159.97 175.2,-149.97 168.2,-149.97"/>
</g>
<!-- atd -->
<g id="node5" class="node">
<title>atd</title>
<ellipse fill="none" stroke="black" cx="171.7" cy="-18" rx="66.09" ry="18"/>
<text text-anchor="middle" x="171.7" y="-14.3" font-family="Times,serif" font-size="14.00">Animal → Dog</text>
</g>
<!-- atd&#45;&gt;ata -->
<g id="edge3" class="edge">
<title>atd&#45;&gt;ata</title>
<path fill="none" stroke="black" d="M171.7,-36.2C171.7,-47.84 171.7,-63.45 171.7,-76.76"/>
<polygon fill="black" stroke="black" points="168.2,-76.82 171.7,-86.82 175.2,-76.82 168.2,-76.82"/>
</g>
<!-- ld -->
<g id="node6" class="node">
<title>ld</title>
<ellipse fill="none" stroke="black" cx="317.7" cy="-105" rx="50.09" ry="18"/>
<text text-anchor="middle" x="317.7" y="-101.3" font-family="Times,serif" font-size="14.00">List&lt;Dog&gt;</text>
</g>
<!-- la -->
<g id="node7" class="node">
<title>la</title>
<ellipse fill="none" stroke="black" cx="317.7" cy="-18" rx="61.99" ry="18"/>
<text text-anchor="middle" x="317.7" y="-14.3" font-family="Times,serif" font-size="14.00">List&lt;Animal&gt;</text>
</g>
<!-- la&#45;&gt;ld -->
<!-- da -->
<g id="node8" class="node">
<title>da</title>
<ellipse fill="none" stroke="black" cx="429.7" cy="-18" rx="31.7" ry="18"/>
<text text-anchor="middle" x="429.7" y="-14.3" font-family="Times,serif" font-size="14.00">Dog[]</text>
</g>
<!-- aa -->
<g id="node9" class="node">
<title>aa</title>
<ellipse fill="none" stroke="black" cx="429.7" cy="-105" rx="43.59" ry="18"/>
<text text-anchor="middle" x="429.7" y="-101.3" font-family="Times,serif" font-size="14.00">Animal[]</text>
</g>
<!-- da&#45;&gt;aa -->
<g id="edge5" class="edge">
<title>da&#45;&gt;aa</title>
<path fill="none" stroke="black" d="M429.7,-36.2C429.7,-47.84 429.7,-63.45 429.7,-76.76"/>
<polygon fill="black" stroke="black" points="426.2,-76.82 429.7,-86.82 433.2,-76.82 426.2,-76.82"/>
<text text-anchor="middle" x="462.7" y="-57.8" font-family="Times,serif" font-size="14.00">(unsoundly)</text>
</g>
</g>
</svg>
