<?xml version="1.0" encoding="UTF-8" standalone="no"?>
<!DOCTYPE svg PUBLIC "-//W3C//DTD SVG 1.1//EN"
 "http://www.w3.org/Graphics/SVG/1.1/DTD/svg11.dtd">
<!-- Generated by graphviz version 2.46.0 (20210118.1747)
 -->
<!-- Title: G Pages: 1 -->
<svg width="524pt" height="218pt"
 viewBox="0.00 0.00 524.24 218.00" xmlns="http://www.w3.org/2000/svg" xmlns:xlink="http://www.w3.org/1999/xlink">
<g id="graph0" class="graph" transform="scale(1 1) rotate(0) translate(4 214)">
<title>G</title>
<polygon fill="white" stroke="transparent" points="-4,4 -4,-214 520.24,-214 520.24,4 -4,4"/>
<!-- Dog -->
<g id="node1" class="node">
<title>Dog</title>
<ellipse fill="none" stroke="black" cx="37.7" cy="-18" rx="27" ry="18"/>
<text text-anchor="middle" x="37.7" y="-14.3" font-family="Times,serif" font-size="14.00">Dog</text>
</g>
<!-- Animal -->
<g id="node2" class="node">
<title>Animal</title>
<ellipse fill="none" stroke="black" cx="37.7" cy="-105" rx="37.89" ry="18"/>
<text text-anchor="middle" x="37.7" y="-101.3" font-family="Times,serif" font-size="14.00">Animal</text>
</g>
<!-- Dog&#45;&gt;Animal -->
<g id="edge1" class="edge">
<title>Dog&#45;&gt;Animal</title>
<path fill="none" stroke="black" d="M37.7,-36.2C37.7,-47.84 37.7,-63.45 37.7,-76.76"/>
<polygon fill="black" stroke="black" points="34.2,-76.82 37.7,-86.82 41.2,-76.82 34.2,-76.82"/>
</g>
<!-- dta -->
<g id="node3" class="node">
<title>dta</title>
<ellipse fill="none" stroke="black" cx="145.7" cy="-192" rx="66.09" ry="18"/>
<text text-anchor="middle" x="145.7" y="-188.3" font-family="Times,serif" font-size="14.00">Dog → Animal</text>
</g>
<!-- ata -->
<g id="node4" class="node">
<title>ata</title>
<ellipse fill="none" stroke="black" cx="214.7" cy="-105" rx="77.99" ry="18"/>
<text text-anchor="middle" x="214.7" y="-101.3" font-family="Times,serif" font-size="14.00">Animal → Animal</text>
</g>
<!-- ata&#45;&gt;dta -->
<g id="edge3" class="edge">
<title>ata&#45;&gt;dta</title>
<path fill="none" stroke="black" d="M201.06,-122.79C188.97,-137.69 171.39,-159.35 159.3,-174.24"/>
<text text-anchor="middle" x="188.2" y="-144.8" font-family="Times,serif" font-size="14.00">?</text>
</g>
<!-- atd -->
<g id="node5" class="node">
<title>atd</title>
<ellipse fill="none" stroke="black" cx="165.7" cy="-18" rx="66.09" ry="18"/>
<text text-anchor="middle" x="165.7" y="-14.3" font-family="Times,serif" font-size="14.00">Animal → Dog</text>
</g>
<!-- atd&#45;&gt;dta -->
<g id="edge2" class="edge">
<title>atd&#45;&gt;dta</title>
<path fill="none" stroke="black" d="M150.54,-35.72C139.89,-48.67 126.53,-67.61 120.7,-87 111.6,-117.23 125.61,-153.17 136.05,-173.91"/>
<text text-anchor="middle" x="124.2" y="-101.3" font-family="Times,serif" font-size="14.00">?</text>
</g>
<!-- atd&#45;&gt;ata -->
<g id="edge4" class="edge">
<title>atd&#45;&gt;ata</title>
<path fill="none" stroke="black" d="M175.61,-36.2C184.17,-51.05 196.46,-72.36 204.96,-87.11"/>
<text text-anchor="middle" x="197.2" y="-57.8" font-family="Times,serif" font-size="14.00">?</text>
</g>
<!-- ld -->
<g id="node6" class="node">
<title>ld</title>
<ellipse fill="none" stroke="black" cx="360.7" cy="-105" rx="50.09" ry="18"/>
<text text-anchor="middle" x="360.7" y="-101.3" font-family="Times,serif" font-size="14.00">List&lt;Dog&gt;</text>
</g>
<!-- la -->
<g id="node7" class="node">
<title>la</title>
<ellipse fill="none" stroke="black" cx="360.7" cy="-18" rx="61.99" ry="18"/>
<text text-anchor="middle" x="360.7" y="-14.3" font-family="Times,serif" font-size="14.00">List&lt;Animal&gt;</text>
</g>
<!-- la&#45;&gt;ld -->
<g id="edge5" class="edge">
<title>la&#45;&gt;ld</title>
<path fill="none" stroke="black" d="M360.7,-36.2C360.7,-50.95 360.7,-72.08 360.7,-86.82"/>
<text text-anchor="middle" x="364.2" y="-57.8" font-family="Times,serif" font-size="14.00">?</text>
</g>
<!-- da -->
<g id="node8" class="node">
<title>da</title>
<ellipse fill="none" stroke="black" cx="472.7" cy="-18" rx="31.7" ry="18"/>
<text text-anchor="middle" x="472.7" y="-14.3" font-family="Times,serif" font-size="14.00">Dog[]</text>
</g>
<!-- aa -->
<g id="node9" class="node">
<title>aa</title>
<ellipse fill="none" stroke="black" cx="472.7" cy="-105" rx="43.59" ry="18"/>
<text text-anchor="middle" x="472.7" y="-101.3" font-family="Times,serif" font-size="14.00">Animal[]</text>
</g>
<!-- da&#45;&gt;aa -->
<g id="edge6" class="edge">
<title>da&#45;&gt;aa</title>
<path fill="none" stroke="black" d="M472.7,-36.2C472.7,-50.95 472.7,-72.08 472.7,-86.82"/>
<text text-anchor="middle" x="476.2" y="-57.8" font-family="Times,serif" font-size="14.00">?</text>
</g>
</g>
</svg>
