<?xml version="1.0" encoding="UTF-8" standalone="no"?>
<!DOCTYPE svg PUBLIC "-//W3C//DTD SVG 1.1//EN"
 "http://www.w3.org/Graphics/SVG/1.1/DTD/svg11.dtd">
<!-- Generated by graphviz version 2.46.0 (20210118.1747)
 -->
<!-- Title: G Pages: 1 -->
<svg width="172pt" height="188pt"
 viewBox="0.00 0.00 171.79 188.00" xmlns="http://www.w3.org/2000/svg" xmlns:xlink="http://www.w3.org/1999/xlink">
<g id="graph0" class="graph" transform="scale(1 1) rotate(0) translate(4 184)">
<title>G</title>
<polygon fill="white" stroke="transparent" points="-4,4 -4,-184 167.79,-184 167.79,4 -4,4"/>
<!-- Fruit -->
<g id="node1" class="node">
<title>Fruit</title>
<ellipse fill="none" stroke="black" cx="81.89" cy="-90" rx="27.9" ry="18"/>
<text text-anchor="middle" x="81.89" y="-86.3" font-family="Times,serif" font-size="14.00">Fruit</text>
</g>
<!-- cf -->
<g id="node2" class="node">
<title>cf</title>
<ellipse fill="none" stroke="black" cx="81.89" cy="-162" rx="81.79" ry="18"/>
<text text-anchor="middle" x="81.89" y="-158.3" font-family="Times,serif" font-size="14.00">Comparable&lt;Fruit&gt;</text>
</g>
<!-- Fruit&#45;&gt;cf -->
<g id="edge1" class="edge">
<title>Fruit&#45;&gt;cf</title>
<path fill="none" stroke="black" d="M81.89,-108.3C81.89,-116.02 81.89,-125.29 81.89,-133.89"/>
<polygon fill="black" stroke="black" points="78.39,-133.9 81.89,-143.9 85.39,-133.9 78.39,-133.9"/>
</g>
<!-- Orange -->
<g id="node3" class="node">
<title>Orange</title>
<ellipse fill="none" stroke="black" cx="81.89" cy="-18" rx="36.29" ry="18"/>
<text text-anchor="middle" x="81.89" y="-14.3" font-family="Times,serif" font-size="14.00">Orange</text>
</g>
<!-- Orange&#45;&gt;Fruit -->
<g id="edge2" class="edge">
<title>Orange&#45;&gt;Fruit</title>
<path fill="none" stroke="black" d="M81.89,-36.3C81.89,-44.02 81.89,-53.29 81.89,-61.89"/>
<polygon fill="black" stroke="black" points="78.39,-61.9 81.89,-71.9 85.39,-61.9 78.39,-61.9"/>
</g>
</g>
</svg>
