<?xml version="1.0" encoding="UTF-8" standalone="no"?>
<!DOCTYPE svg PUBLIC "-//W3C//DTD SVG 1.1//EN"
 "http://www.w3.org/Graphics/SVG/1.1/DTD/svg11.dtd">
<!-- Generated by graphviz version 2.46.0 (20210118.1747)
 -->
<!-- Title: G Pages: 1 -->
<svg width="702pt" height="403pt"
 viewBox="0.00 0.00 701.70 403.22" xmlns="http://www.w3.org/2000/svg" xmlns:xlink="http://www.w3.org/1999/xlink">
<g id="graph0" class="graph" transform="scale(1 1) rotate(0) translate(4 399.22)">
<title>G</title>
<polygon fill="white" stroke="transparent" points="-4,4 -4,-399.22 697.7,-399.22 697.7,4 -4,4"/>
<!-- Dog -->
<g id="node1" class="node">
<title>Dog</title>
<ellipse fill="none" stroke="black" cx="37.7" cy="-18" rx="27" ry="18"/>
<text text-anchor="middle" x="37.7" y="-14.3" font-family="Times,serif" font-size="14.00">Dog</text>
</g>
<!-- Animal -->
<g id="node2" class="node">
<title>Animal</title>
<ellipse fill="none" stroke="black" cx="37.7" cy="-113.87" rx="37.89" ry="18"/>
<text text-anchor="middle" x="37.7" y="-110.17" font-family="Times,serif" font-size="14.00">Animal</text>
</g>
<!-- Dog&#45;&gt;Animal -->
<g id="edge1" class="edge">
<title>Dog&#45;&gt;Animal</title>
<path fill="none" stroke="black" d="M37.7,-36.22C37.7,-49.98 37.7,-69.53 37.7,-85.44"/>
<polygon fill="black" stroke="black" points="34.2,-85.76 37.7,-95.76 41.2,-85.76 34.2,-85.76"/>
</g>
<!-- dta -->
<g id="node3" class="node">
<title>dta</title>
<ellipse fill="none" stroke="black" cx="171.7" cy="-204.61" rx="66.09" ry="18"/>
<text text-anchor="middle" x="171.7" y="-200.91" font-family="Times,serif" font-size="14.00">Dog → Animal</text>
</g>
<!-- ata -->
<g id="node4" class="node">
<title>ata</title>
<ellipse fill="none" stroke="black" cx="171.7" cy="-113.87" rx="77.99" ry="18"/>
<text text-anchor="middle" x="171.7" y="-110.17" font-family="Times,serif" font-size="14.00">Animal → Animal</text>
</g>
<!-- ata&#45;&gt;dta -->
<g id="edge2" class="edge">
<title>ata&#45;&gt;dta</title>
<path fill="none" stroke="black" d="M171.7,-131.98C171.7,-144.5 171.7,-161.75 171.7,-176.19"/>
<polygon fill="black" stroke="black" points="168.2,-176.55 171.7,-186.55 175.2,-176.55 168.2,-176.55"/>
</g>
<!-- atd -->
<g id="node5" class="node">
<title>atd</title>
<ellipse fill="none" stroke="black" cx="171.7" cy="-18" rx="66.09" ry="18"/>
<text text-anchor="middle" x="171.7" y="-14.3" font-family="Times,serif" font-size="14.00">Animal → Dog</text>
</g>
<!-- atd&#45;&gt;ata -->
<g id="edge3" class="edge">
<title>atd&#45;&gt;ata</title>
<path fill="none" stroke="black" d="M171.7,-36.22C171.7,-49.98 171.7,-69.53 171.7,-85.44"/>
<polygon fill="black" stroke="black" points="168.2,-85.76 171.7,-95.76 175.2,-85.76 168.2,-85.76"/>
</g>
<!-- ld -->
<g id="node6" class="node">
<title>ld</title>
<ellipse fill="none" stroke="black" cx="360.7" cy="-113.87" rx="50.09" ry="18"/>
<text text-anchor="middle" x="360.7" y="-110.17" font-family="Times,serif" font-size="14.00">List&lt;Dog&gt;</text>
</g>
<!-- led -->
<g id="node10" class="node">
<title>led</title>
<ellipse fill="none" stroke="black" cx="362.7" cy="-204.61" rx="56.64" ry="26.74"/>
<text text-anchor="start" x="330.7" y="-200.91" font-family="Times,serif" font-size="14.00">List&lt;</text>
<text text-anchor="start" x="361.2" y="-208.41" font-family="Times,serif" font-size="14.00">Dog</text>
<text text-anchor="start" x="385.7" y="-200.91" font-family="Times,serif" font-size="14.00">&gt;</text>
<text text-anchor="start" x="360.7" y="-193.41" font-family="Times,serif" font-size="14.00"> &#160;&#160;&#160;⋮</text>
</g>
<!-- ld&#45;&gt;led -->
<g id="edge6" class="edge">
<title>ld&#45;&gt;led</title>
<path fill="none" stroke="black" d="M361.08,-131.98C361.31,-142.05 361.61,-155.19 361.88,-167.45"/>
<polygon fill="black" stroke="black" points="358.38,-167.55 362.11,-177.47 365.38,-167.39 358.38,-167.55"/>
</g>
<!-- lsd -->
<g id="node12" class="node">
<title>lsd</title>
<ellipse fill="none" stroke="black" cx="493.7" cy="-204.61" rx="56.64" ry="26.74"/>
<text text-anchor="start" x="461.7" y="-200.91" font-family="Times,serif" font-size="14.00">List&lt;</text>
<text text-anchor="start" x="491.7" y="-208.41" font-family="Times,serif" font-size="14.00"> &#160;&#160;&#160;⋮</text>
<text text-anchor="start" x="516.7" y="-200.91" font-family="Times,serif" font-size="14.00">&gt;</text>
<text text-anchor="start" x="492.2" y="-193.41" font-family="Times,serif" font-size="14.00">Dog</text>
</g>
<!-- ld&#45;&gt;lsd -->
<g id="edge10" class="edge">
<title>ld&#45;&gt;lsd</title>
<path fill="none" stroke="black" d="M383.56,-130.13C402.66,-142.87 430.35,-161.35 453.19,-176.59"/>
<polygon fill="black" stroke="black" points="451.42,-179.61 461.68,-182.25 455.31,-173.79 451.42,-179.61"/>
</g>
<!-- la -->
<g id="node7" class="node">
<title>la</title>
<ellipse fill="none" stroke="black" cx="360.7" cy="-18" rx="61.99" ry="18"/>
<text text-anchor="middle" x="360.7" y="-14.3" font-family="Times,serif" font-size="14.00">List&lt;Animal&gt;</text>
</g>
<!-- la&#45;&gt;ld -->
<!-- lea -->
<g id="node11" class="node">
<title>lea</title>
<ellipse fill="none" stroke="black" cx="362.7" cy="-295.35" rx="68.68" ry="26.74"/>
<text text-anchor="start" x="322.7" y="-291.65" font-family="Times,serif" font-size="14.00">List&lt;</text>
<text text-anchor="start" x="352.7" y="-299.15" font-family="Times,serif" font-size="14.00">Animal</text>
<text text-anchor="start" x="394.7" y="-291.65" font-family="Times,serif" font-size="14.00">&gt;</text>
<text text-anchor="start" x="361.2" y="-284.15" font-family="Times,serif" font-size="14.00"> &#160;&#160;&#160;⋮</text>
</g>
<!-- la&#45;&gt;lea -->
<g id="edge7" class="edge">
<title>la&#45;&gt;lea</title>
<path fill="none" stroke="black" d="M340.97,-35.21C327.27,-47.76 310.03,-66.43 301.7,-87 277.58,-146.55 271.39,-172.42 296.7,-231.48 302.11,-244.11 311.45,-255.41 321.42,-264.83"/>
<polygon fill="black" stroke="black" points="319.32,-267.64 329.12,-271.65 323.96,-262.4 319.32,-267.64"/>
</g>
<!-- lsa -->
<g id="node13" class="node">
<title>lsa</title>
<ellipse fill="none" stroke="black" cx="497.7" cy="-113.87" rx="68.68" ry="26.74"/>
<text text-anchor="start" x="457.7" y="-110.17" font-family="Times,serif" font-size="14.00">List&lt;</text>
<text text-anchor="start" x="496.2" y="-117.67" font-family="Times,serif" font-size="14.00"> &#160;&#160;&#160;⋮</text>
<text text-anchor="start" x="529.7" y="-110.17" font-family="Times,serif" font-size="14.00">&gt;</text>
<text text-anchor="start" x="487.7" y="-102.67" font-family="Times,serif" font-size="14.00">Animal</text>
</g>
<!-- la&#45;&gt;lsa -->
<g id="edge11" class="edge">
<title>la&#45;&gt;lsa</title>
<path fill="none" stroke="black" d="M383.94,-34.92C403.65,-48.43 432.43,-68.15 456.1,-84.37"/>
<polygon fill="black" stroke="black" points="454.34,-87.41 464.57,-90.17 458.3,-81.63 454.34,-87.41"/>
</g>
<!-- da -->
<g id="node8" class="node">
<title>da</title>
<ellipse fill="none" stroke="black" cx="627.7" cy="-18" rx="31.7" ry="18"/>
<text text-anchor="middle" x="627.7" y="-14.3" font-family="Times,serif" font-size="14.00">Dog[]</text>
</g>
<!-- aa -->
<g id="node9" class="node">
<title>aa</title>
<ellipse fill="none" stroke="black" cx="627.7" cy="-113.87" rx="43.59" ry="18"/>
<text text-anchor="middle" x="627.7" y="-110.17" font-family="Times,serif" font-size="14.00">Animal[]</text>
</g>
<!-- da&#45;&gt;aa -->
<g id="edge5" class="edge">
<title>da&#45;&gt;aa</title>
<path fill="none" stroke="black" d="M627.7,-36.22C627.7,-49.98 627.7,-69.53 627.7,-85.44"/>
<polygon fill="black" stroke="black" points="624.2,-85.76 627.7,-95.76 631.2,-85.76 624.2,-85.76"/>
<text text-anchor="middle" x="660.7" y="-57.8" font-family="Times,serif" font-size="14.00">(unsoundly)</text>
</g>
<!-- led&#45;&gt;lea -->
<g id="edge8" class="edge">
<title>led&#45;&gt;lea</title>
<path fill="none" stroke="black" d="M362.7,-231.76C362.7,-240.06 362.7,-249.4 362.7,-258.27"/>
<polygon fill="black" stroke="black" points="359.2,-258.39 362.7,-268.39 366.2,-258.39 359.2,-258.39"/>
</g>
<!-- lq -->
<g id="node14" class="node">
<title>lq</title>
<ellipse fill="none" stroke="black" cx="427.7" cy="-377.22" rx="38.99" ry="18"/>
<text text-anchor="middle" x="427.7" y="-373.52" font-family="Times,serif" font-size="14.00">List&lt;⋮&gt;</text>
</g>
<!-- lea&#45;&gt;lq -->
<g id="edge12" class="edge">
<title>lea&#45;&gt;lq</title>
<path fill="none" stroke="black" d="M382.91,-321.18C390.94,-331.06 400.15,-342.38 408.13,-352.17"/>
<polygon fill="black" stroke="black" points="405.45,-354.43 414.48,-359.98 410.88,-350.01 405.45,-354.43"/>
</g>
<!-- lsd&#45;&gt;lq -->
<g id="edge13" class="edge">
<title>lsd&#45;&gt;lq</title>
<path fill="none" stroke="black" d="M483.82,-231.15C471.49,-263.03 450.5,-317.27 437.98,-349.63"/>
<polygon fill="black" stroke="black" points="434.58,-348.72 434.24,-359.31 441.11,-351.25 434.58,-348.72"/>
</g>
<!-- lsa&#45;&gt;lsd -->
<g id="edge9" class="edge">
<title>lsa&#45;&gt;lsd</title>
<path fill="none" stroke="black" d="M496.52,-141.02C496.14,-149.32 495.72,-158.66 495.32,-167.53"/>
<polygon fill="black" stroke="black" points="491.82,-167.5 494.87,-177.65 498.81,-167.82 491.82,-167.5"/>
</g>
</g>
</svg>
