<?xml version="1.0" encoding="UTF-8" standalone="no"?>
<!DOCTYPE svg PUBLIC "-//W3C//DTD SVG 1.1//EN"
 "http://www.w3.org/Graphics/SVG/1.1/DTD/svg11.dtd">
<!-- Generated by graphviz version 2.46.0 (20210118.1747)
 -->
<!-- Title: G Pages: 1 -->
<svg width="542pt" height="204pt"
 viewBox="0.00 0.00 541.70 204.00" xmlns="http://www.w3.org/2000/svg" xmlns:xlink="http://www.w3.org/1999/xlink">
<g id="graph0" class="graph" transform="scale(1 1) rotate(0) translate(4 200)">
<title>G</title>
<polygon fill="white" stroke="transparent" points="-4,4 -4,-200 537.7,-200 537.7,4 -4,4"/>
<!-- Dog -->
<g id="node1" class="node">
<title>Dog</title>
<ellipse fill="none" stroke="black" cx="37.7" cy="-18" rx="27" ry="18"/>
<text text-anchor="middle" x="37.7" y="-14.3" font-family="Times,serif" font-size="14.00">Dog</text>
</g>
<!-- Animal -->
<g id="node2" class="node">
<title>Animal</title>
<ellipse fill="none" stroke="black" cx="37.7" cy="-105" rx="37.89" ry="18"/>
<text text-anchor="middle" x="37.7" y="-101.3" font-family="Times,serif" font-size="14.00">Animal</text>
</g>
<!-- Dog&#45;&gt;Animal -->
<g id="edge1" class="edge">
<title>Dog&#45;&gt;Animal</title>
<path fill="none" stroke="black" d="M37.7,-36.2C37.7,-47.84 37.7,-63.45 37.7,-76.76"/>
<polygon fill="black" stroke="black" points="34.2,-76.82 37.7,-86.82 41.2,-76.82 34.2,-76.82"/>
</g>
<!-- dta -->
<g id="node3" class="node">
<title>dta</title>
<ellipse fill="none" stroke="black" cx="171.7" cy="-178" rx="66.09" ry="18"/>
<text text-anchor="middle" x="171.7" y="-174.3" font-family="Times,serif" font-size="14.00">Dog → Animal</text>
</g>
<!-- ata -->
<g id="node4" class="node">
<title>ata</title>
<ellipse fill="none" stroke="black" cx="171.7" cy="-105" rx="77.99" ry="18"/>
<text text-anchor="middle" x="171.7" y="-101.3" font-family="Times,serif" font-size="14.00">Animal → Animal</text>
</g>
<!-- ata&#45;&gt;dta -->
<g id="edge2" class="edge">
<title>ata&#45;&gt;dta</title>
<path fill="none" stroke="black" d="M171.7,-123.19C171.7,-131.21 171.7,-140.95 171.7,-149.93"/>
<polygon fill="black" stroke="black" points="168.2,-149.97 171.7,-159.97 175.2,-149.97 168.2,-149.97"/>
</g>
<!-- atd -->
<g id="node5" class="node">
<title>atd</title>
<ellipse fill="none" stroke="black" cx="171.7" cy="-18" rx="66.09" ry="18"/>
<text text-anchor="middle" x="171.7" y="-14.3" font-family="Times,serif" font-size="14.00">Animal → Dog</text>
</g>
<!-- atd&#45;&gt;ata -->
<g id="edge3" class="edge">
<title>atd&#45;&gt;ata</title>
<path fill="none" stroke="black" d="M171.7,-36.2C171.7,-47.84 171.7,-63.45 171.7,-76.76"/>
<polygon fill="black" stroke="black" points="168.2,-76.82 171.7,-86.82 175.2,-76.82 168.2,-76.82"/>
</g>
<!-- ld -->
<g id="node6" class="node">
<title>ld</title>
<ellipse fill="none" stroke="black" cx="317.7" cy="-105" rx="50.09" ry="18"/>
<text text-anchor="middle" x="317.7" y="-101.3" font-family="Times,serif" font-size="14.00">List&lt;Dog&gt;</text>
</g>
<!-- sup -->
<g id="node8" class="node">
<title>sup</title>
<ellipse fill="none" stroke="black" cx="374.7" cy="-178" rx="96.68" ry="18"/>
<text text-anchor="middle" x="374.7" y="-174.3" font-family="Times,serif" font-size="14.00">List&lt;&quot;Dog or Animal&quot;&gt;</text>
</g>
<!-- ld&#45;&gt;sup -->
<g id="edge4" class="edge">
<title>ld&#45;&gt;sup</title>
<path fill="none" stroke="black" d="M330.92,-122.47C338.01,-131.3 346.89,-142.37 354.8,-152.22"/>
<polygon fill="black" stroke="black" points="352.16,-154.52 361.15,-160.13 357.62,-150.14 352.16,-154.52"/>
</g>
<!-- la -->
<g id="node7" class="node">
<title>la</title>
<ellipse fill="none" stroke="black" cx="345.7" cy="-18" rx="61.99" ry="18"/>
<text text-anchor="middle" x="345.7" y="-14.3" font-family="Times,serif" font-size="14.00">List&lt;Animal&gt;</text>
</g>
<!-- la&#45;&gt;ld -->
<!-- la&#45;&gt;sup -->
<g id="edge5" class="edge">
<title>la&#45;&gt;sup</title>
<path fill="none" stroke="black" d="M355.87,-35.9C363.29,-49.24 372.7,-68.62 376.7,-87 381.2,-107.71 380.37,-131.74 378.59,-149.75"/>
<polygon fill="black" stroke="black" points="375.1,-149.52 377.44,-159.85 382.05,-150.32 375.1,-149.52"/>
</g>
<!-- da -->
<g id="node9" class="node">
<title>da</title>
<ellipse fill="none" stroke="black" cx="467.7" cy="-18" rx="31.7" ry="18"/>
<text text-anchor="middle" x="467.7" y="-14.3" font-family="Times,serif" font-size="14.00">Dog[]</text>
</g>
<!-- aa -->
<g id="node10" class="node">
<title>aa</title>
<ellipse fill="none" stroke="black" cx="467.7" cy="-105" rx="43.59" ry="18"/>
<text text-anchor="middle" x="467.7" y="-101.3" font-family="Times,serif" font-size="14.00">Animal[]</text>
</g>
<!-- da&#45;&gt;aa -->
<g id="edge7" class="edge">
<title>da&#45;&gt;aa</title>
<path fill="none" stroke="black" d="M467.7,-36.2C467.7,-47.84 467.7,-63.45 467.7,-76.76"/>
<polygon fill="black" stroke="black" points="464.2,-76.82 467.7,-86.82 471.2,-76.82 464.2,-76.82"/>
<text text-anchor="middle" x="500.7" y="-57.8" font-family="Times,serif" font-size="14.00">(unsoundly)</text>
</g>
</g>
</svg>
