<?xml version="1.0" encoding="UTF-8" standalone="no"?>
<!DOCTYPE svg PUBLIC "-//W3C//DTD SVG 1.1//EN"
 "http://www.w3.org/Graphics/SVG/1.1/DTD/svg11.dtd">
<!-- Generated by graphviz version 2.47.0 (20210316.0004)
 -->
<!-- Title: G Pages: 1 -->
<svg width="795pt" height="350pt"
 viewBox="0.00 0.00 794.70 350.00" xmlns="http://www.w3.org/2000/svg" xmlns:xlink="http://www.w3.org/1999/xlink">
<g id="graph0" class="graph" transform="scale(1 1) rotate(0) translate(4 346)">
<title>G</title>
<polygon fill="white" stroke="transparent" points="-4,4 -4,-346 790.7,-346 790.7,4 -4,4"/>
<!-- Dog -->
<g id="node1" class="node">
<title>Dog</title>
<ellipse fill="none" stroke="black" cx="37.7" cy="-18" rx="27" ry="18"/>
<text text-anchor="middle" x="37.7" y="-14.3" font-family="Times,serif" font-size="14.00">Dog</text>
</g>
<!-- Animal -->
<g id="node2" class="node">
<title>Animal</title>
<ellipse fill="none" stroke="black" cx="37.7" cy="-105" rx="37.89" ry="18"/>
<text text-anchor="middle" x="37.7" y="-101.3" font-family="Times,serif" font-size="14.00">Animal</text>
</g>
<!-- Dog&#45;&gt;Animal -->
<g id="edge1" class="edge">
<title>Dog&#45;&gt;Animal</title>
<path fill="none" stroke="black" d="M37.7,-36.2C37.7,-47.84 37.7,-63.45 37.7,-76.76"/>
<polygon fill="black" stroke="black" points="34.2,-76.82 37.7,-86.82 41.2,-76.82 34.2,-76.82"/>
</g>
<!-- dta -->
<g id="node3" class="node">
<title>dta</title>
<ellipse fill="none" stroke="black" cx="171.7" cy="-178" rx="66.09" ry="18"/>
<text text-anchor="middle" x="171.7" y="-174.3" font-family="Times,serif" font-size="14.00">Dog → Animal</text>
</g>
<!-- ata -->
<g id="node4" class="node">
<title>ata</title>
<ellipse fill="none" stroke="black" cx="171.7" cy="-105" rx="77.99" ry="18"/>
<text text-anchor="middle" x="171.7" y="-101.3" font-family="Times,serif" font-size="14.00">Animal → Animal</text>
</g>
<!-- ata&#45;&gt;dta -->
<g id="edge2" class="edge">
<title>ata&#45;&gt;dta</title>
<path fill="none" stroke="black" d="M171.7,-123.19C171.7,-131.21 171.7,-140.95 171.7,-149.93"/>
<polygon fill="black" stroke="black" points="168.2,-149.97 171.7,-159.97 175.2,-149.97 168.2,-149.97"/>
</g>
<!-- atd -->
<g id="node5" class="node">
<title>atd</title>
<ellipse fill="none" stroke="black" cx="171.7" cy="-18" rx="66.09" ry="18"/>
<text text-anchor="middle" x="171.7" y="-14.3" font-family="Times,serif" font-size="14.00">Animal → Dog</text>
</g>
<!-- atd&#45;&gt;ata -->
<g id="edge3" class="edge">
<title>atd&#45;&gt;ata</title>
<path fill="none" stroke="black" d="M171.7,-36.2C171.7,-47.84 171.7,-63.45 171.7,-76.76"/>
<polygon fill="black" stroke="black" points="168.2,-76.82 171.7,-86.82 175.2,-76.82 168.2,-76.82"/>
</g>
<!-- ld -->
<g id="node6" class="node">
<title>ld</title>
<ellipse fill="none" stroke="black" cx="400.7" cy="-105" rx="50.09" ry="18"/>
<text text-anchor="middle" x="400.7" y="-101.3" font-family="Times,serif" font-size="14.00">List&lt;Dog&gt;</text>
</g>
<!-- led -->
<g id="node10" class="node">
<title>led</title>
<ellipse fill="none" stroke="black" cx="391.7" cy="-178" rx="85.59" ry="18"/>
<text text-anchor="middle" x="391.7" y="-174.3" font-family="Times,serif" font-size="14.00">List&lt;? extends Dog&gt;</text>
</g>
<!-- ld&#45;&gt;led -->
<g id="edge6" class="edge">
<title>ld&#45;&gt;led</title>
<path fill="none" stroke="black" d="M398.52,-123.19C397.5,-131.21 396.27,-140.95 395.13,-149.93"/>
<polygon fill="black" stroke="black" points="391.64,-149.61 393.86,-159.97 398.59,-150.49 391.64,-149.61"/>
</g>
<!-- lsd -->
<g id="node12" class="node">
<title>lsd</title>
<ellipse fill="none" stroke="black" cx="573.7" cy="-178" rx="77.99" ry="18"/>
<text text-anchor="middle" x="573.7" y="-174.3" font-family="Times,serif" font-size="14.00">List&lt;? super Dog&gt;</text>
</g>
<!-- ld&#45;&gt;lsd -->
<g id="edge10" class="edge">
<title>ld&#45;&gt;lsd</title>
<path fill="none" stroke="black" d="M432.43,-119.02C459.1,-129.97 497.57,-145.76 527.63,-158.09"/>
<polygon fill="black" stroke="black" points="526.49,-161.41 537.07,-161.97 529.15,-154.93 526.49,-161.41"/>
</g>
<!-- la -->
<g id="node7" class="node">
<title>la</title>
<ellipse fill="none" stroke="black" cx="400.7" cy="-18" rx="61.99" ry="18"/>
<text text-anchor="middle" x="400.7" y="-14.3" font-family="Times,serif" font-size="14.00">List&lt;Animal&gt;</text>
</g>
<!-- la&#45;&gt;ld -->
<!-- lea -->
<g id="node11" class="node">
<title>lea</title>
<ellipse fill="none" stroke="black" cx="391.7" cy="-251" rx="96.68" ry="18"/>
<text text-anchor="middle" x="391.7" y="-247.3" font-family="Times,serif" font-size="14.00">List&lt;? extends Animal&gt;</text>
</g>
<!-- la&#45;&gt;lea -->
<g id="edge7" class="edge">
<title>la&#45;&gt;lea</title>
<path fill="none" stroke="black" d="M382.16,-35.38C356.48,-59.55 311.55,-107.62 296.7,-160 292.33,-175.39 288.65,-182.17 296.7,-196 305.55,-211.22 320.47,-222.5 335.89,-230.69"/>
<polygon fill="black" stroke="black" points="334.46,-233.89 344.98,-235.17 337.56,-227.61 334.46,-233.89"/>
</g>
<!-- lsa -->
<g id="node13" class="node">
<title>lsa</title>
<ellipse fill="none" stroke="black" cx="569.7" cy="-105" rx="89.08" ry="18"/>
<text text-anchor="middle" x="569.7" y="-101.3" font-family="Times,serif" font-size="14.00">List&lt;? super Animal&gt;</text>
</g>
<!-- la&#45;&gt;lsa -->
<g id="edge11" class="edge">
<title>la&#45;&gt;lsa</title>
<path fill="none" stroke="black" d="M430.52,-34C457.92,-47.78 498.75,-68.31 529.1,-83.58"/>
<polygon fill="black" stroke="black" points="527.66,-86.77 538.16,-88.14 530.8,-80.52 527.66,-86.77"/>
</g>
<!-- da -->
<g id="node8" class="node">
<title>da</title>
<ellipse fill="none" stroke="black" cx="720.7" cy="-18" rx="31.7" ry="18"/>
<text text-anchor="middle" x="720.7" y="-14.3" font-family="Times,serif" font-size="14.00">Dog[]</text>
</g>
<!-- aa -->
<g id="node9" class="node">
<title>aa</title>
<ellipse fill="none" stroke="black" cx="720.7" cy="-105" rx="43.59" ry="18"/>
<text text-anchor="middle" x="720.7" y="-101.3" font-family="Times,serif" font-size="14.00">Animal[]</text>
</g>
<!-- da&#45;&gt;aa -->
<g id="edge5" class="edge">
<title>da&#45;&gt;aa</title>
<path fill="none" stroke="black" d="M720.7,-36.2C720.7,-47.84 720.7,-63.45 720.7,-76.76"/>
<polygon fill="black" stroke="black" points="717.2,-76.82 720.7,-86.82 724.2,-76.82 717.2,-76.82"/>
<text text-anchor="middle" x="753.7" y="-57.8" font-family="Times,serif" font-size="14.00">(unsoundly)</text>
</g>
<!-- led&#45;&gt;lea -->
<g id="edge8" class="edge">
<title>led&#45;&gt;lea</title>
<path fill="none" stroke="black" d="M391.7,-196.19C391.7,-204.21 391.7,-213.95 391.7,-222.93"/>
<polygon fill="black" stroke="black" points="388.2,-222.97 391.7,-232.97 395.2,-222.97 388.2,-222.97"/>
</g>
<!-- lq -->
<g id="node14" class="node">
<title>lq</title>
<ellipse fill="none" stroke="black" cx="481.7" cy="-324" rx="38.99" ry="18"/>
<text text-anchor="middle" x="481.7" y="-320.3" font-family="Times,serif" font-size="14.00">List&lt;?&gt;</text>
</g>
<!-- lea&#45;&gt;lq -->
<g id="edge12" class="edge">
<title>lea&#45;&gt;lq</title>
<path fill="none" stroke="black" d="M413.03,-268.83C425.51,-278.67 441.39,-291.2 454.73,-301.73"/>
<polygon fill="black" stroke="black" points="452.64,-304.54 462.66,-307.98 456.98,-299.04 452.64,-304.54"/>
</g>
<!-- lsd&#45;&gt;lq -->
<g id="edge13" class="edge">
<title>lsd&#45;&gt;lq</title>
<path fill="none" stroke="black" d="M562.78,-196.08C546.72,-221.23 516.6,-268.36 497.94,-297.58"/>
<polygon fill="black" stroke="black" points="494.75,-296.07 492.31,-306.38 500.65,-299.84 494.75,-296.07"/>
</g>
<!-- lsa&#45;&gt;lsd -->
<g id="edge9" class="edge">
<title>lsa&#45;&gt;lsd</title>
<path fill="none" stroke="black" d="M570.66,-123.19C571.12,-131.21 571.67,-140.95 572.17,-149.93"/>
<polygon fill="black" stroke="black" points="568.68,-150.18 572.74,-159.97 575.67,-149.79 568.68,-150.18"/>
</g>
</g>
</svg>
