<?xml version="1.0" encoding="UTF-8" standalone="no"?>
<!DOCTYPE svg PUBLIC "-//W3C//DTD SVG 1.1//EN"
 "http://www.w3.org/Graphics/SVG/1.1/DTD/svg11.dtd">
<!-- Generated by graphviz version 2.46.0 (20210118.1747)
 -->
<!-- Title: G Pages: 1 -->
<svg width="134pt" height="116pt"
 viewBox="0.00 0.00 134.00 116.00" xmlns="http://www.w3.org/2000/svg" xmlns:xlink="http://www.w3.org/1999/xlink">
<g id="graph0" class="graph" transform="scale(1 1) rotate(0) translate(4 112)">
<title>G</title>
<polygon fill="white" stroke="transparent" points="-4,4 -4,-112 130,-112 130,4 -4,4"/>
<!-- T -->
<g id="node1" class="node">
<title>T</title>
<ellipse fill="none" stroke="black" cx="63" cy="-18" rx="27" ry="18"/>
<text text-anchor="middle" x="63" y="-14.3" font-family="Times,serif" font-size="14.00">T</text>
</g>
<!-- arg -->
<g id="node2" class="node">
<title>arg</title>
<ellipse fill="none" stroke="black" cx="27" cy="-90" rx="27" ry="18"/>
<text text-anchor="middle" x="27" y="-86.3" font-family="Times,serif" font-size="14.00">arg</text>
</g>
<!-- T&#45;&gt;arg -->
<g id="edge1" class="edge">
<title>T&#45;&gt;arg</title>
<path fill="none" stroke="black" d="M54.65,-35.24C50.29,-43.72 44.85,-54.29 39.96,-63.8"/>
<polygon fill="black" stroke="black" points="36.77,-62.36 35.3,-72.85 42.99,-65.56 36.77,-62.36"/>
</g>
<!-- U -->
<g id="node3" class="node">
<title>U</title>
<ellipse fill="none" stroke="black" cx="99" cy="-90" rx="27" ry="18"/>
<text text-anchor="middle" x="99" y="-86.3" font-family="Times,serif" font-size="14.00">U</text>
</g>
<!-- T&#45;&gt;U -->
<g id="edge2" class="edge">
<title>T&#45;&gt;U</title>
<path fill="none" stroke="black" d="M71.35,-35.24C75.71,-43.72 81.15,-54.29 86.04,-63.8"/>
<polygon fill="black" stroke="black" points="83.01,-65.56 90.7,-72.85 89.23,-62.36 83.01,-65.56"/>
</g>
</g>
</svg>
