<?xml version="1.0" encoding="UTF-8" standalone="no"?>
<!DOCTYPE svg PUBLIC "-//W3C//DTD SVG 1.1//EN"
 "http://www.w3.org/Graphics/SVG/1.1/DTD/svg11.dtd">
<!-- Generated by graphviz version 2.46.0 (20210118.1747)
 -->
<!-- Title: G Pages: 1 -->
<svg width="242pt" height="188pt"
 viewBox="0.00 0.00 241.89 188.00" xmlns="http://www.w3.org/2000/svg" xmlns:xlink="http://www.w3.org/1999/xlink">
<g id="graph0" class="graph" transform="scale(1 1) rotate(0) translate(4 184)">
<title>G</title>
<polygon fill="white" stroke="transparent" points="-4,4 -4,-184 237.89,-184 237.89,4 -4,4"/>
<!-- T -->
<g id="node1" class="node">
<title>T</title>
<ellipse fill="none" stroke="black" cx="110.45" cy="-18" rx="41.69" ry="18"/>
<text text-anchor="middle" x="110.45" y="-14.3" font-family="Times,serif" font-size="14.00">T = Dog</text>
</g>
<!-- arg -->
<g id="node2" class="node">
<title>arg</title>
<ellipse fill="none" stroke="black" cx="47.45" cy="-90" rx="47.39" ry="18"/>
<text text-anchor="middle" x="47.45" y="-86.3" font-family="Times,serif" font-size="14.00">arg = Dog</text>
</g>
<!-- T&#45;&gt;arg -->
<g id="edge1" class="edge">
<title>T&#45;&gt;arg</title>
<path fill="none" stroke="black" d="M95.83,-35.24C87.8,-44.16 77.69,-55.39 68.79,-65.28"/>
<polygon fill="black" stroke="black" points="66.07,-63.08 61.98,-72.85 71.27,-67.76 66.07,-63.08"/>
</g>
<!-- U -->
<g id="node3" class="node">
<title>U</title>
<ellipse fill="none" stroke="black" cx="173.45" cy="-90" rx="60.39" ry="18"/>
<text text-anchor="middle" x="173.45" y="-86.3" font-family="Times,serif" font-size="14.00">U = Mammal</text>
</g>
<!-- T&#45;&gt;U -->
<g id="edge2" class="edge">
<title>T&#45;&gt;U</title>
<path fill="none" stroke="black" d="M125.06,-35.24C132.97,-44.03 142.91,-55.07 151.72,-64.86"/>
<polygon fill="black" stroke="black" points="149.18,-67.28 158.48,-72.37 154.39,-62.59 149.18,-67.28"/>
</g>
<!-- Dog -->
<g id="node4" class="node">
<title>Dog</title>
<ellipse fill="none" stroke="black" cx="173.45" cy="-162" rx="27" ry="18"/>
<text text-anchor="middle" x="173.45" y="-158.3" font-family="Times,serif" font-size="14.00">Dog</text>
</g>
<!-- U&#45;&gt;Dog -->
<g id="edge3" class="edge">
<title>U&#45;&gt;Dog</title>
<path fill="none" stroke="red" d="M173.45,-108.3C173.45,-116.02 173.45,-125.29 173.45,-133.89"/>
<polygon fill="red" stroke="red" points="169.95,-133.9 173.45,-143.9 176.95,-133.9 169.95,-133.9"/>
</g>
</g>
</svg>
