<?xml version="1.0" encoding="UTF-8" standalone="no"?>
<!DOCTYPE svg PUBLIC "-//W3C//DTD SVG 1.1//EN"
 "http://www.w3.org/Graphics/SVG/1.1/DTD/svg11.dtd">
<!-- Generated by graphviz version 2.46.0 (20210118.1747)
 -->
<!-- Title: G Pages: 1 -->
<svg width="206pt" height="188pt"
 viewBox="0.00 0.00 205.69 188.00" xmlns="http://www.w3.org/2000/svg" xmlns:xlink="http://www.w3.org/1999/xlink">
<g id="graph0" class="graph" transform="scale(1 1) rotate(0) translate(4 184)">
<title>G</title>
<polygon fill="white" stroke="transparent" points="-4,4 -4,-184 201.69,-184 201.69,4 -4,4"/>
<!-- T -->
<g id="node1" class="node">
<title>T</title>
<ellipse fill="none" stroke="black" cx="101.45" cy="-18" rx="55.79" ry="18"/>
<text text-anchor="middle" x="101.45" y="-14.3" font-family="Times,serif" font-size="14.00">T = ShihTzu</text>
</g>
<!-- arg -->
<g id="node2" class="node">
<title>arg</title>
<ellipse fill="none" stroke="black" cx="47.45" cy="-90" rx="47.39" ry="18"/>
<text text-anchor="middle" x="47.45" y="-86.3" font-family="Times,serif" font-size="14.00">arg = Dog</text>
</g>
<!-- T&#45;&gt;arg -->
<g id="edge1" class="edge">
<title>T&#45;&gt;arg</title>
<path fill="none" stroke="black" d="M88.65,-35.59C81.99,-44.22 73.72,-54.94 66.34,-64.5"/>
<polygon fill="black" stroke="black" points="63.49,-62.47 60.15,-72.53 69.03,-66.75 63.49,-62.47"/>
</g>
<!-- U -->
<g id="node3" class="node">
<title>U</title>
<ellipse fill="none" stroke="black" cx="155.45" cy="-90" rx="42.49" ry="18"/>
<text text-anchor="middle" x="155.45" y="-86.3" font-family="Times,serif" font-size="14.00">U = Dog</text>
</g>
<!-- T&#45;&gt;U -->
<g id="edge2" class="edge">
<title>T&#45;&gt;U</title>
<path fill="none" stroke="black" d="M114.24,-35.59C120.9,-44.22 129.17,-54.94 136.55,-64.5"/>
<polygon fill="black" stroke="black" points="133.86,-66.75 142.74,-72.53 139.4,-62.47 133.86,-66.75"/>
</g>
<!-- Dog -->
<g id="node4" class="node">
<title>Dog</title>
<ellipse fill="none" stroke="black" cx="155.45" cy="-162" rx="27" ry="18"/>
<text text-anchor="middle" x="155.45" y="-158.3" font-family="Times,serif" font-size="14.00">Dog</text>
</g>
<!-- U&#45;&gt;Dog -->
<g id="edge3" class="edge">
<title>U&#45;&gt;Dog</title>
<path fill="none" stroke="black" d="M155.45,-108.3C155.45,-116.02 155.45,-125.29 155.45,-133.89"/>
<polygon fill="black" stroke="black" points="151.95,-133.9 155.45,-143.9 158.95,-133.9 151.95,-133.9"/>
</g>
</g>
</svg>
