<?xml version="1.0" encoding="UTF-8" standalone="no"?>
<!DOCTYPE svg PUBLIC "-//W3C//DTD SVG 1.1//EN"
 "http://www.w3.org/Graphics/SVG/1.1/DTD/svg11.dtd">
<!-- Generated by graphviz version 2.46.0 (20210118.1747)
 -->
<!-- Title: G Pages: 1 -->
<svg width="236pt" height="188pt"
 viewBox="0.00 0.00 235.64 188.00" xmlns="http://www.w3.org/2000/svg" xmlns:xlink="http://www.w3.org/1999/xlink">
<g id="graph0" class="graph" transform="scale(1 1) rotate(0) translate(4 184)">
<title>G</title>
<polygon fill="white" stroke="transparent" points="-4,4 -4,-184 231.64,-184 231.64,4 -4,4"/>
<!-- T -->
<g id="node1" class="node">
<title>T</title>
<ellipse fill="none" stroke="black" cx="108.45" cy="-18" rx="55.79" ry="18"/>
<text text-anchor="middle" x="108.45" y="-14.3" font-family="Times,serif" font-size="14.00">T = ShihTzu</text>
</g>
<!-- arg -->
<g id="node2" class="node">
<title>arg</title>
<ellipse fill="none" stroke="black" cx="47.45" cy="-90" rx="47.39" ry="18"/>
<text text-anchor="middle" x="47.45" y="-86.3" font-family="Times,serif" font-size="14.00">arg = Dog</text>
</g>
<!-- T&#45;&gt;arg -->
<g id="edge1" class="edge">
<title>T&#45;&gt;arg</title>
<path fill="none" stroke="black" d="M93.99,-35.59C86.39,-44.31 76.94,-55.15 68.54,-64.79"/>
<polygon fill="black" stroke="black" points="65.73,-62.69 61.8,-72.53 71.01,-67.29 65.73,-62.69"/>
</g>
<!-- U -->
<g id="node3" class="node">
<title>U</title>
<ellipse fill="none" stroke="black" cx="170.45" cy="-90" rx="57.39" ry="18"/>
<text text-anchor="middle" x="170.45" y="-86.3" font-family="Times,serif" font-size="14.00">U = ShihTzu</text>
</g>
<!-- T&#45;&gt;U -->
<g id="edge2" class="edge">
<title>T&#45;&gt;U</title>
<path fill="none" stroke="black" d="M123.14,-35.59C130.86,-44.31 140.47,-55.15 149,-64.79"/>
<polygon fill="black" stroke="black" points="146.61,-67.36 155.86,-72.53 151.85,-62.72 146.61,-67.36"/>
</g>
<!-- Dog -->
<g id="node4" class="node">
<title>Dog</title>
<ellipse fill="none" stroke="black" cx="170.45" cy="-162" rx="27" ry="18"/>
<text text-anchor="middle" x="170.45" y="-158.3" font-family="Times,serif" font-size="14.00">Dog</text>
</g>
<!-- U&#45;&gt;Dog -->
<g id="edge3" class="edge">
<title>U&#45;&gt;Dog</title>
<path fill="none" stroke="black" d="M170.45,-108.3C170.45,-116.02 170.45,-125.29 170.45,-133.89"/>
<polygon fill="black" stroke="black" points="166.95,-133.9 170.45,-143.9 173.95,-133.9 166.95,-133.9"/>
</g>
</g>
</svg>
