<?xml version="1.0" encoding="UTF-8" standalone="no"?>
<!DOCTYPE svg PUBLIC "-//W3C//DTD SVG 1.1//EN"
 "http://www.w3.org/Graphics/SVG/1.1/DTD/svg11.dtd">
<!-- Generated by graphviz version 2.46.0 (20210118.1747)
 -->
<!-- Title: G Pages: 1 -->
<svg width="457pt" height="300pt"
 viewBox="0.00 0.00 457.00 300.00" xmlns="http://www.w3.org/2000/svg" xmlns:xlink="http://www.w3.org/1999/xlink">
<g id="graph0" class="graph" transform="scale(1 1) rotate(0) translate(4 296)">
<title>G</title>
<polygon fill="white" stroke="transparent" points="-4,4 -4,-296 453,-296 453,4 -4,4"/>
<g id="clust1" class="cluster">
<title>cluster_0_0</title>
<polygon fill="none" stroke="black" stroke-dasharray="1,5" points="8,-8 8,-284 94,-284 94,-8 8,-8"/>
</g>
<g id="clust2" class="cluster">
<title>cluster_0</title>
<polygon fill="none" stroke="black" points="16,-16 16,-68 86,-68 86,-16 16,-16"/>
</g>
<g id="clust3" class="cluster">
<title>cluster_1</title>
<polygon fill="none" stroke="black" stroke-dasharray="1,5" points="102,-8 102,-148 441,-148 441,-8 102,-8"/>
</g>
<g id="clust4" class="cluster">
<title>cluster_1_1</title>
<polygon fill="none" stroke="black" points="110,-16 110,-140 433,-140 433,-16 110,-16"/>
</g>
<!-- D -->
<g id="node1" class="node">
<title>D</title>
<ellipse fill="none" stroke="black" cx="51" cy="-42" rx="27" ry="18"/>
<text text-anchor="middle" x="51" y="-38.3" font-family="Times,serif" font-size="14.00">D</text>
</g>
<!-- C -->
<g id="node2" class="node">
<title>C</title>
<ellipse fill="none" stroke="black" cx="51" cy="-114" rx="27" ry="18"/>
<text text-anchor="middle" x="51" y="-110.3" font-family="Times,serif" font-size="14.00">C</text>
</g>
<!-- D&#45;&gt;C -->
<g id="edge1" class="edge">
<title>D&#45;&gt;C</title>
<path fill="none" stroke="black" d="M51,-60.3C51,-68.02 51,-77.29 51,-85.89"/>
<polygon fill="black" stroke="black" points="47.5,-85.9 51,-95.9 54.5,-85.9 47.5,-85.9"/>
</g>
<!-- B -->
<g id="node3" class="node">
<title>B</title>
<ellipse fill="none" stroke="black" cx="51" cy="-186" rx="27" ry="18"/>
<text text-anchor="middle" x="51" y="-182.3" font-family="Times,serif" font-size="14.00">B</text>
</g>
<!-- C&#45;&gt;B -->
<g id="edge2" class="edge">
<title>C&#45;&gt;B</title>
<path fill="none" stroke="black" d="M51,-132.3C51,-140.02 51,-149.29 51,-157.89"/>
<polygon fill="black" stroke="black" points="47.5,-157.9 51,-167.9 54.5,-157.9 47.5,-157.9"/>
</g>
<!-- A -->
<g id="node4" class="node">
<title>A</title>
<ellipse fill="none" stroke="black" cx="51" cy="-258" rx="27" ry="18"/>
<text text-anchor="middle" x="51" y="-254.3" font-family="Times,serif" font-size="14.00">A</text>
</g>
<!-- B&#45;&gt;A -->
<g id="edge3" class="edge">
<title>B&#45;&gt;A</title>
<path fill="none" stroke="black" d="M51,-204.3C51,-212.02 51,-221.29 51,-229.89"/>
<polygon fill="black" stroke="black" points="47.5,-229.9 51,-239.9 54.5,-229.9 47.5,-229.9"/>
</g>
<!-- aa -->
<g id="node5" class="node">
<title>aa</title>
<ellipse fill="none" stroke="black" cx="379" cy="-114" rx="46.29" ry="18"/>
<text text-anchor="middle" x="379" y="-110.3" font-family="Times,serif" font-size="14.00">A::foo(A)</text>
</g>
<!-- ba -->
<g id="node6" class="node">
<title>ba</title>
<ellipse fill="none" stroke="black" cx="380" cy="-42" rx="45.49" ry="18"/>
<text text-anchor="middle" x="380" y="-38.3" font-family="Times,serif" font-size="14.00">B::foo(A)</text>
</g>
<!-- ba&#45;&gt;aa -->
<g id="edge4" class="edge">
<title>ba&#45;&gt;aa</title>
<path fill="none" stroke="black" d="M379.75,-60.3C379.64,-68.02 379.51,-77.29 379.39,-85.89"/>
<polygon fill="black" stroke="black" points="375.89,-85.85 379.24,-95.9 382.89,-85.95 375.89,-85.85"/>
</g>
<!-- bb -->
<g id="node7" class="node">
<title>bb</title>
<ellipse fill="none" stroke="black" cx="270" cy="-114" rx="44.69" ry="18"/>
<text text-anchor="middle" x="270" y="-110.3" font-family="Times,serif" font-size="14.00">B::foo(B)</text>
</g>
<!-- db -->
<g id="node8" class="node">
<title>db</title>
<ellipse fill="none" stroke="black" cx="271" cy="-42" rx="45.49" ry="18"/>
<text text-anchor="middle" x="271" y="-38.3" font-family="Times,serif" font-size="14.00">D::foo(B)</text>
</g>
<!-- db&#45;&gt;bb -->
<g id="edge5" class="edge">
<title>db&#45;&gt;bb</title>
<path fill="none" stroke="black" d="M270.75,-60.3C270.64,-68.02 270.51,-77.29 270.39,-85.89"/>
<polygon fill="black" stroke="black" points="266.89,-85.85 270.24,-95.9 273.89,-85.95 266.89,-85.85"/>
</g>
<!-- cc -->
<g id="node9" class="node">
<title>cc</title>
<ellipse fill="none" stroke="black" cx="163" cy="-42" rx="44.69" ry="18"/>
<text text-anchor="middle" x="163" y="-38.3" font-family="Times,serif" font-size="14.00">C::foo(C)</text>
</g>
</g>
</svg>
