<?xml version="1.0" encoding="UTF-8" standalone="no"?>
<!DOCTYPE svg PUBLIC "-//W3C//DTD SVG 1.1//EN"
 "http://www.w3.org/Graphics/SVG/1.1/DTD/svg11.dtd">
<!-- Generated by graphviz version 2.46.0 (20210118.1747)
 -->
<!-- Title: G Pages: 1 -->
<svg width="449pt" height="300pt"
 viewBox="0.00 0.00 449.00 300.00" xmlns="http://www.w3.org/2000/svg" xmlns:xlink="http://www.w3.org/1999/xlink">
<g id="graph0" class="graph" transform="scale(1 1) rotate(0) translate(4 296)">
<title>G</title>
<polygon fill="white" stroke="transparent" points="-4,4 -4,-296 445,-296 445,4 -4,4"/>
<g id="clust1" class="cluster">
<title>cluster_0_0</title>
<polygon fill="none" stroke="black" stroke-dasharray="1,5" points="8,-16 8,-284 94,-284 94,-16 8,-16"/>
</g>
<g id="clust2" class="cluster">
<title>cluster_0</title>
<polygon fill="none" stroke="black" points="16,-160 16,-212 86,-212 86,-160 16,-160"/>
</g>
<g id="clust3" class="cluster">
<title>cluster_1</title>
<polygon fill="none" stroke="black" stroke-dasharray="1,5" points="102,-8 102,-148 433,-148 433,-8 102,-8"/>
</g>
<g id="clust4" class="cluster">
<title>cluster_1_1</title>
<polygon fill="none" stroke="black" points="209,-16 209,-140 425,-140 425,-16 209,-16"/>
</g>
<!-- D -->
<g id="node1" class="node">
<title>D</title>
<ellipse fill="none" stroke="black" cx="51" cy="-42" rx="27" ry="18"/>
<text text-anchor="middle" x="51" y="-38.3" font-family="Times,serif" font-size="14.00">D</text>
</g>
<!-- C -->
<g id="node2" class="node">
<title>C</title>
<ellipse fill="none" stroke="black" cx="51" cy="-114" rx="27" ry="18"/>
<text text-anchor="middle" x="51" y="-110.3" font-family="Times,serif" font-size="14.00">C</text>
</g>
<!-- D&#45;&gt;C -->
<g id="edge1" class="edge">
<title>D&#45;&gt;C</title>
<path fill="none" stroke="black" d="M51,-60.3C51,-68.02 51,-77.29 51,-85.89"/>
<polygon fill="black" stroke="black" points="47.5,-85.9 51,-95.9 54.5,-85.9 47.5,-85.9"/>
</g>
<!-- B -->
<g id="node3" class="node">
<title>B</title>
<ellipse fill="none" stroke="black" cx="51" cy="-186" rx="27" ry="18"/>
<text text-anchor="middle" x="51" y="-182.3" font-family="Times,serif" font-size="14.00">B</text>
</g>
<!-- C&#45;&gt;B -->
<g id="edge2" class="edge">
<title>C&#45;&gt;B</title>
<path fill="none" stroke="black" d="M51,-132.3C51,-140.02 51,-149.29 51,-157.89"/>
<polygon fill="black" stroke="black" points="47.5,-157.9 51,-167.9 54.5,-157.9 47.5,-157.9"/>
</g>
<!-- A -->
<g id="node4" class="node">
<title>A</title>
<ellipse fill="none" stroke="black" cx="51" cy="-258" rx="27" ry="18"/>
<text text-anchor="middle" x="51" y="-254.3" font-family="Times,serif" font-size="14.00">A</text>
</g>
<!-- B&#45;&gt;A -->
<g id="edge3" class="edge">
<title>B&#45;&gt;A</title>
<path fill="none" stroke="black" d="M51,-204.3C51,-212.02 51,-221.29 51,-229.89"/>
<polygon fill="black" stroke="black" points="47.5,-229.9 51,-239.9 54.5,-229.9 47.5,-229.9"/>
</g>
<!-- aa -->
<g id="node5" class="node">
<title>aa</title>
<ellipse fill="none" stroke="black" cx="371" cy="-114" rx="46.29" ry="18"/>
<text text-anchor="middle" x="371" y="-110.3" font-family="Times,serif" font-size="14.00">A::foo(A)</text>
</g>
<!-- ba -->
<g id="node6" class="node">
<title>ba</title>
<ellipse fill="none" stroke="black" cx="372" cy="-42" rx="45.49" ry="18"/>
<text text-anchor="middle" x="372" y="-38.3" font-family="Times,serif" font-size="14.00">B::foo(A)</text>
</g>
<!-- ba&#45;&gt;aa -->
<g id="edge4" class="edge">
<title>ba&#45;&gt;aa</title>
<path fill="none" stroke="black" d="M371.75,-60.3C371.64,-68.02 371.51,-77.29 371.39,-85.89"/>
<polygon fill="black" stroke="black" points="367.89,-85.85 371.24,-95.9 374.89,-85.95 367.89,-85.85"/>
</g>
<!-- bb -->
<g id="node7" class="node">
<title>bb</title>
<ellipse fill="none" stroke="black" cx="262" cy="-114" rx="44.69" ry="18"/>
<text text-anchor="middle" x="262" y="-110.3" font-family="Times,serif" font-size="14.00">B::foo(B)</text>
</g>
<!-- db -->
<g id="node8" class="node">
<title>db</title>
<ellipse fill="none" stroke="black" cx="263" cy="-42" rx="45.49" ry="18"/>
<text text-anchor="middle" x="263" y="-38.3" font-family="Times,serif" font-size="14.00">D::foo(B)</text>
</g>
<!-- db&#45;&gt;bb -->
<g id="edge5" class="edge">
<title>db&#45;&gt;bb</title>
<path fill="none" stroke="black" d="M262.75,-60.3C262.64,-68.02 262.51,-77.29 262.39,-85.89"/>
<polygon fill="black" stroke="black" points="258.89,-85.85 262.24,-95.9 265.89,-85.95 258.89,-85.85"/>
</g>
<!-- cc -->
<g id="node9" class="node">
<title>cc</title>
<ellipse fill="none" stroke="black" cx="155" cy="-42" rx="44.69" ry="18"/>
<text text-anchor="middle" x="155" y="-38.3" font-family="Times,serif" font-size="14.00">C::foo(C)</text>
</g>
</g>
</svg>
