<?xml version="1.0" encoding="UTF-8" standalone="no"?>
<!DOCTYPE svg PUBLIC "-//W3C//DTD SVG 1.1//EN"
 "http://www.w3.org/Graphics/SVG/1.1/DTD/svg11.dtd">
<!-- Generated by graphviz version 2.46.0 (20210118.1747)
 -->
<!-- Title: G Pages: 1 -->
<svg width="684pt" height="332pt"
 viewBox="0.00 0.00 684.28 332.00" xmlns="http://www.w3.org/2000/svg" xmlns:xlink="http://www.w3.org/1999/xlink">
<g id="graph0" class="graph" transform="scale(1 1) rotate(0) translate(4 328)">
<title>G</title>
<polygon fill="white" stroke="transparent" points="-4,4 -4,-328 680.28,-328 680.28,4 -4,4"/>
<!-- Dog -->
<g id="node1" class="node">
<title>Dog</title>
<ellipse fill="none" stroke="black" cx="150.2" cy="-90" rx="27" ry="18"/>
<text text-anchor="middle" x="150.2" y="-86.3" font-family="Times,serif" font-size="14.00">Dog</text>
</g>
<!-- Mammal -->
<g id="node2" class="node">
<title>Mammal</title>
<ellipse fill="none" stroke="black" cx="44.2" cy="-162" rx="44.39" ry="18"/>
<text text-anchor="middle" x="44.2" y="-158.3" font-family="Times,serif" font-size="14.00">Mammal</text>
</g>
<!-- Dog&#45;&gt;Mammal -->
<g id="edge1" class="edge">
<title>Dog&#45;&gt;Mammal</title>
<path fill="none" stroke="black" d="M131.73,-103.19C116.13,-113.49 93.47,-128.46 75.11,-140.59"/>
<polygon fill="black" stroke="black" points="72.91,-137.85 66.49,-146.28 76.76,-143.69 72.91,-137.85"/>
</g>
<!-- Trainable -->
<g id="node4" class="node">
<title>Trainable</title>
<ellipse fill="none" stroke="black" cx="150.2" cy="-162" rx="44.39" ry="18"/>
<text text-anchor="middle" x="150.2" y="-158.3" font-family="Times,serif" font-size="14.00">Trainable</text>
</g>
<!-- Dog&#45;&gt;Trainable -->
<g id="edge3" class="edge">
<title>Dog&#45;&gt;Trainable</title>
<path fill="none" stroke="black" d="M150.2,-108.3C150.2,-116.02 150.2,-125.29 150.2,-133.89"/>
<polygon fill="black" stroke="black" points="146.7,-133.9 150.2,-143.9 153.7,-133.9 146.7,-133.9"/>
</g>
<!-- cm -->
<g id="node5" class="node">
<title>cm</title>
<ellipse fill="none" stroke="black" cx="310.2" cy="-162" rx="98.28" ry="18"/>
<text text-anchor="middle" x="310.2" y="-158.3" font-family="Times,serif" font-size="14.00">Comparable&lt;Mammal&gt;</text>
</g>
<!-- Dog&#45;&gt;cm -->
<g id="edge4" class="edge">
<title>Dog&#45;&gt;cm</title>
<path fill="none" stroke="black" d="M172.11,-100.59C195.82,-110.96 234.29,-127.79 264.62,-141.06"/>
<polygon fill="black" stroke="black" points="263.58,-144.43 274.15,-145.23 266.39,-138.01 263.58,-144.43"/>
</g>
<!-- Animal -->
<g id="node3" class="node">
<title>Animal</title>
<ellipse fill="none" stroke="black" cx="44.2" cy="-234" rx="37.89" ry="18"/>
<text text-anchor="middle" x="44.2" y="-230.3" font-family="Times,serif" font-size="14.00">Animal</text>
</g>
<!-- Mammal&#45;&gt;Animal -->
<g id="edge2" class="edge">
<title>Mammal&#45;&gt;Animal</title>
<path fill="none" stroke="black" d="M44.2,-180.3C44.2,-188.02 44.2,-197.29 44.2,-205.89"/>
<polygon fill="black" stroke="black" points="40.7,-205.9 44.2,-215.9 47.7,-205.9 40.7,-205.9"/>
</g>
<!-- cem -->
<g id="node8" class="node">
<title>cem</title>
<ellipse fill="none" stroke="black" cx="272.2" cy="-234" rx="133.78" ry="18"/>
<text text-anchor="middle" x="272.2" y="-230.3" font-family="Times,serif" font-size="14.00">Comparable&lt;? extends Mammal&gt;</text>
</g>
<!-- cm&#45;&gt;cem -->
<g id="edge6" class="edge">
<title>cm&#45;&gt;cem</title>
<path fill="none" stroke="black" d="M301,-179.95C296.63,-187.99 291.31,-197.8 286.43,-206.77"/>
<polygon fill="black" stroke="black" points="283.27,-205.27 281.57,-215.72 289.42,-208.61 283.27,-205.27"/>
</g>
<!-- csm -->
<g id="node10" class="node">
<title>csm</title>
<ellipse fill="none" stroke="black" stroke-dasharray="5,2" cx="550.2" cy="-234" rx="126.18" ry="18"/>
<text text-anchor="middle" x="550.2" y="-230.3" font-family="Times,serif" font-size="14.00">Comparable&lt;? super Mammal&gt;</text>
</g>
<!-- cm&#45;&gt;csm -->
<g id="edge8" class="edge">
<title>cm&#45;&gt;csm</title>
<path fill="none" stroke="black" stroke-dasharray="5,2" d="M360.22,-177.59C397.2,-188.37 447.81,-203.14 487.49,-214.71"/>
<polygon fill="black" stroke="black" points="486.75,-218.14 497.33,-217.58 488.71,-211.42 486.75,-218.14"/>
</g>
<!-- ShihTzu -->
<g id="node6" class="node">
<title>ShihTzu</title>
<ellipse fill="none" stroke="black" cx="150.2" cy="-18" rx="40.09" ry="18"/>
<text text-anchor="middle" x="150.2" y="-14.3" font-family="Times,serif" font-size="14.00">ShihTzu</text>
</g>
<!-- ShihTzu&#45;&gt;Dog -->
<g id="edge5" class="edge">
<title>ShihTzu&#45;&gt;Dog</title>
<path fill="none" stroke="black" d="M150.2,-36.3C150.2,-44.02 150.2,-53.29 150.2,-61.89"/>
<polygon fill="black" stroke="black" points="146.7,-61.9 150.2,-71.9 153.7,-61.9 146.7,-61.9"/>
</g>
<!-- cea -->
<g id="node7" class="node">
<title>cea</title>
<ellipse fill="none" stroke="black" cx="272.2" cy="-306" rx="126.98" ry="18"/>
<text text-anchor="middle" x="272.2" y="-302.3" font-family="Times,serif" font-size="14.00">Comparable&lt;? extends Animal&gt;</text>
</g>
<!-- cem&#45;&gt;cea -->
<g id="edge7" class="edge">
<title>cem&#45;&gt;cea</title>
<path fill="none" stroke="black" d="M272.2,-252.3C272.2,-260.02 272.2,-269.29 272.2,-277.89"/>
<polygon fill="black" stroke="black" points="268.7,-277.9 272.2,-287.9 275.7,-277.9 268.7,-277.9"/>
</g>
<!-- css -->
<g id="node9" class="node">
<title>css</title>
<ellipse fill="none" stroke="black" stroke-dasharray="5,2" cx="550.2" cy="-306" rx="122.38" ry="18"/>
<text text-anchor="middle" x="550.2" y="-302.3" font-family="Times,serif" font-size="14.00">Comparable&lt;? super ShihTzu&gt;</text>
</g>
<!-- csm&#45;&gt;css -->
<g id="edge9" class="edge">
<title>csm&#45;&gt;css</title>
<path fill="none" stroke="black" stroke-dasharray="5,2" d="M550.2,-252.3C550.2,-260.02 550.2,-269.29 550.2,-277.89"/>
<polygon fill="black" stroke="black" points="546.7,-277.9 550.2,-287.9 553.7,-277.9 546.7,-277.9"/>
</g>
</g>
</svg>
