<?xml version="1.0" encoding="UTF-8" standalone="no"?>
<!DOCTYPE svg PUBLIC "-//W3C//DTD SVG 1.1//EN"
 "http://www.w3.org/Graphics/SVG/1.1/DTD/svg11.dtd">
<!-- Generated by graphviz version 2.46.0 (20210118.1747)
 -->
<!-- Title: G Pages: 1 -->
<svg width="223pt" height="152pt"
 viewBox="0.00 0.00 223.00 152.00" xmlns="http://www.w3.org/2000/svg" xmlns:xlink="http://www.w3.org/1999/xlink">
<g id="graph0" class="graph" transform="scale(1 1) rotate(0) translate(4 148)">
<title>G</title>
<polygon fill="white" stroke="transparent" points="-4,4 -4,-148 219,-148 219,4 -4,4"/>
<g id="clust1" class="cluster">
<title>cluster_0</title>
<polygon fill="none" stroke="black" points="8,-8 8,-136 207,-136 207,-8 8,-8"/>
</g>
<!-- bc -->
<g id="node1" class="node">
<title>bc</title>
<polygon fill="none" stroke="black" points="150,-99 150,-124 191,-124 191,-99 150,-99"/>
<text text-anchor="start" x="155" y="-108.8" font-family="Times,serif" font-weight="bold" font-size="14.00">Class</text>
<polygon fill="none" stroke="black" points="150,-74 150,-99 170,-99 170,-74 150,-74"/>
<text text-anchor="start" x="156.5" y="-82.8" font-family="Times,serif" font-size="14.00">x</text>
<polygon fill="none" stroke="black" points="170,-74 170,-99 191,-99 191,-74 170,-74"/>
<text text-anchor="start" x="177" y="-82.8" font-family="Times,serif" font-size="14.00">0</text>
</g>
<!-- ac -->
<g id="node2" class="node">
<title>ac</title>
<polygon fill="none" stroke="black" points="149,-21 149,-46 191,-46 191,-21 149,-21"/>
<text text-anchor="start" x="154.5" y="-30.8" font-family="Times,serif" font-weight="bold" font-size="14.00">Class</text>
</g>
<!-- meta -->
<g id="node3" class="node">
<title>meta</title>
<polygon fill="none" stroke="black" points="24.5,-85 24.5,-110 97.5,-110 97.5,-85 24.5,-85"/>
<text text-anchor="start" x="29.5" y="-94.8" font-family="Times,serif" font-weight="bold" font-size="14.00">Metaspace</text>
<polygon fill="none" stroke="black" points="24.5,-60 24.5,-85 72.5,-85 72.5,-60 24.5,-60"/>
<text text-anchor="start" x="43.5" y="-68.8" font-family="Times,serif" font-size="14.00">B</text>
<polygon fill="none" stroke="black" points="72.5,-60 72.5,-85 97.5,-85 97.5,-60 72.5,-60"/>
<polygon fill="none" stroke="black" points="24.5,-35 24.5,-60 72.5,-60 72.5,-35 24.5,-35"/>
<text text-anchor="start" x="37" y="-43.8" font-family="Times,serif" font-size="14.00">B.A</text>
<polygon fill="none" stroke="black" points="72.5,-35 72.5,-60 97.5,-60 97.5,-35 72.5,-35"/>
</g>
<!-- meta&#45;&gt;bc -->
<g id="edge1" class="edge">
<title>meta:c&#45;&gt;bc</title>
<path fill="none" stroke="black" d="M86.5,-72C86.5,-72 109.75,-79.61 131.56,-86.75"/>
<polygon fill="black" stroke="black" points="130.48,-90.07 141.07,-89.86 132.65,-83.42 130.48,-90.07"/>
</g>
<!-- meta&#45;&gt;ac -->
<g id="edge2" class="edge">
<title>meta:c&#45;&gt;ac</title>
<path fill="none" stroke="black" d="M86.5,-47C86.5,-47 109.04,-43.45 130.56,-40.06"/>
<polygon fill="black" stroke="black" points="131.27,-43.49 140.61,-38.47 130.19,-36.57 131.27,-43.49"/>
</g>
</g>
</svg>
