<?xml version="1.0" encoding="UTF-8" standalone="no"?>
<!DOCTYPE svg PUBLIC "-//W3C//DTD SVG 1.1//EN"
 "http://www.w3.org/Graphics/SVG/1.1/DTD/svg11.dtd">
<!-- Generated by graphviz version 2.46.0 (20210118.1747)
 -->
<!-- Title: G Pages: 1 -->
<svg width="223pt" height="209pt"
 viewBox="0.00 0.00 223.00 209.00" xmlns="http://www.w3.org/2000/svg" xmlns:xlink="http://www.w3.org/1999/xlink">
<g id="graph0" class="graph" transform="scale(1 1) rotate(0) translate(4 205)">
<title>G</title>
<polygon fill="white" stroke="transparent" points="-4,4 -4,-205 219,-205 219,4 -4,4"/>
<g id="clust1" class="cluster">
<title>cluster_0</title>
<polygon fill="none" stroke="black" points="8,-65 8,-193 207,-193 207,-65 8,-65"/>
</g>
<!-- stack -->
<g id="node1" class="node">
<title>stack</title>
<polygon fill="none" stroke="#f0f0f0" points="35.5,-25 35.5,-48 48.5,-48 48.5,-25 35.5,-25"/>
<text text-anchor="start" x="39.5" y="-32.8" font-family="Times,serif" font-size="14.00">f</text>
<polygon fill="none" stroke="black" points="48.5,-25 48.5,-48 76.5,-48 76.5,-25 48.5,-25"/>
<text text-anchor="start" x="52.5" y="-32.8" font-family="Times,serif" font-size="14.00">this</text>
<polygon fill="none" stroke="black" points="76.5,-25 76.5,-48 85.5,-48 85.5,-25 76.5,-25"/>
<text text-anchor="start" x="51.5" y="-10.8" font-family="Times,serif" font-size="14.00">Stack</text>
</g>
<!-- b -->
<g id="node2" class="node">
<title>b</title>
<polygon fill="none" stroke="black" points="160,-24 160,-49 180,-49 180,-24 160,-24"/>
<text text-anchor="start" x="165" y="-33.8" font-family="Times,serif" font-weight="bold" font-size="14.00">B</text>
</g>
<!-- stack&#45;&gt;b -->
<g id="edge1" class="edge">
<title>stack:c&#45;&gt;b</title>
<path fill="none" stroke="black" d="M82.5,-37C82.5,-37 108.78,-37 132.37,-37"/>
<polygon fill="black" stroke="black" points="132.58,-40.5 142.58,-37 132.58,-33.5 132.58,-40.5"/>
</g>
<!-- bc -->
<g id="node3" class="node">
<title>bc</title>
<polygon fill="none" stroke="black" points="150,-156 150,-181 191,-181 191,-156 150,-156"/>
<text text-anchor="start" x="155" y="-165.8" font-family="Times,serif" font-weight="bold" font-size="14.00">Class</text>
<polygon fill="none" stroke="black" points="150,-131 150,-156 170,-156 170,-131 150,-131"/>
<text text-anchor="start" x="156.5" y="-139.8" font-family="Times,serif" font-size="14.00">x</text>
<polygon fill="none" stroke="black" points="170,-131 170,-156 191,-156 191,-131 170,-131"/>
<text text-anchor="start" x="177" y="-139.8" font-family="Times,serif" font-size="14.00">0</text>
</g>
<!-- ac -->
<g id="node4" class="node">
<title>ac</title>
<polygon fill="none" stroke="black" points="149,-78 149,-103 191,-103 191,-78 149,-78"/>
<text text-anchor="start" x="154.5" y="-87.8" font-family="Times,serif" font-weight="bold" font-size="14.00">Class</text>
</g>
<!-- meta -->
<g id="node5" class="node">
<title>meta</title>
<polygon fill="none" stroke="black" points="24.5,-142 24.5,-167 97.5,-167 97.5,-142 24.5,-142"/>
<text text-anchor="start" x="29.5" y="-151.8" font-family="Times,serif" font-weight="bold" font-size="14.00">Metaspace</text>
<polygon fill="none" stroke="black" points="24.5,-117 24.5,-142 72.5,-142 72.5,-117 24.5,-117"/>
<text text-anchor="start" x="43.5" y="-125.8" font-family="Times,serif" font-size="14.00">B</text>
<polygon fill="none" stroke="black" points="72.5,-117 72.5,-142 97.5,-142 97.5,-117 72.5,-117"/>
<polygon fill="none" stroke="black" points="24.5,-92 24.5,-117 72.5,-117 72.5,-92 24.5,-92"/>
<text text-anchor="start" x="37" y="-100.8" font-family="Times,serif" font-size="14.00">B.A</text>
<polygon fill="none" stroke="black" points="72.5,-92 72.5,-117 97.5,-117 97.5,-92 72.5,-92"/>
</g>
<!-- meta&#45;&gt;bc -->
<g id="edge2" class="edge">
<title>meta:c&#45;&gt;bc</title>
<path fill="none" stroke="black" d="M86.5,-129C86.5,-129 109.75,-136.61 131.56,-143.75"/>
<polygon fill="black" stroke="black" points="130.48,-147.07 141.07,-146.86 132.65,-140.42 130.48,-147.07"/>
</g>
<!-- meta&#45;&gt;ac -->
<g id="edge3" class="edge">
<title>meta:c&#45;&gt;ac</title>
<path fill="none" stroke="black" d="M86.5,-104C86.5,-104 109.04,-100.45 130.56,-97.06"/>
<polygon fill="black" stroke="black" points="131.27,-100.49 140.61,-95.47 130.19,-93.57 131.27,-100.49"/>
</g>
</g>
</svg>
