<?xml version="1.0" encoding="UTF-8" standalone="no"?>
<!DOCTYPE svg PUBLIC "-//W3C//DTD SVG 1.1//EN"
 "http://www.w3.org/Graphics/SVG/1.1/DTD/svg11.dtd">
<!-- Generated by graphviz version 2.46.0 (20210118.1747)
 -->
<!-- Title: G Pages: 1 -->
<svg width="223pt" height="266pt"
 viewBox="0.00 0.00 223.00 266.00" xmlns="http://www.w3.org/2000/svg" xmlns:xlink="http://www.w3.org/1999/xlink">
<g id="graph0" class="graph" transform="scale(1 1) rotate(0) translate(4 262)">
<title>G</title>
<polygon fill="white" stroke="transparent" points="-4,4 -4,-262 219,-262 219,4 -4,4"/>
<g id="clust1" class="cluster">
<title>cluster_0</title>
<polygon fill="none" stroke="black" points="8,-122 8,-250 207,-250 207,-122 8,-122"/>
</g>
<!-- stack -->
<g id="node1" class="node">
<title>stack</title>
<polygon fill="none" stroke="#f0f0f0" points="35.5,-27 35.5,-73 48.5,-73 48.5,-27 35.5,-27"/>
<text text-anchor="start" x="39.5" y="-46.3" font-family="Times,serif" font-size="14.00">f</text>
<polygon fill="none" stroke="black" points="48.5,-50 48.5,-73 76.5,-73 76.5,-50 48.5,-50"/>
<text text-anchor="start" x="59" y="-57.8" font-family="Times,serif" font-size="14.00">a</text>
<polygon fill="none" stroke="black" points="76.5,-50 76.5,-73 85.5,-73 85.5,-50 76.5,-50"/>
<polygon fill="none" stroke="black" points="48.5,-27 48.5,-50 76.5,-50 76.5,-27 48.5,-27"/>
<text text-anchor="start" x="52.5" y="-34.8" font-family="Times,serif" font-size="14.00">this</text>
<polygon fill="none" stroke="black" points="76.5,-27 76.5,-50 85.5,-50 85.5,-27 76.5,-27"/>
<text text-anchor="start" x="51.5" y="-12.8" font-family="Times,serif" font-size="14.00">Stack</text>
</g>
<!-- a -->
<g id="node2" class="node">
<title>a</title>
<polygon fill="none" stroke="black" points="153,-83 153,-108 187,-108 187,-83 153,-83"/>
<text text-anchor="start" x="165" y="-92.8" font-family="Times,serif" font-weight="bold" font-size="14.00">A</text>
<polygon fill="none" stroke="black" points="153,-58 153,-83 170,-83 170,-58 153,-58"/>
<text text-anchor="start" x="158" y="-66.8" font-family="Times,serif" font-size="14.00">y</text>
<polygon fill="none" stroke="black" points="170,-58 170,-83 187,-83 187,-58 170,-58"/>
<text text-anchor="start" x="175" y="-66.8" font-family="Times,serif" font-size="14.00">1</text>
</g>
<!-- stack&#45;&gt;a -->
<g id="edge2" class="edge">
<title>stack:c&#45;&gt;a</title>
<path fill="none" stroke="black" d="M82.5,-62C82.5,-62 109.02,-68.44 132.69,-74.19"/>
<polygon fill="black" stroke="black" points="132.03,-77.63 142.58,-76.59 133.69,-70.82 132.03,-77.63"/>
</g>
<!-- b -->
<g id="node3" class="node">
<title>b</title>
<polygon fill="none" stroke="black" points="160,-5 160,-30 180,-30 180,-5 160,-5"/>
<text text-anchor="start" x="165" y="-14.8" font-family="Times,serif" font-weight="bold" font-size="14.00">B</text>
</g>
<!-- stack&#45;&gt;b -->
<g id="edge1" class="edge">
<title>stack:c&#45;&gt;b</title>
<path fill="none" stroke="black" d="M82.5,-38C82.5,-38 109.02,-31.87 132.69,-26.39"/>
<polygon fill="black" stroke="black" points="133.62,-29.77 142.58,-24.11 132.05,-22.95 133.62,-29.77"/>
</g>
<!-- bc -->
<g id="node4" class="node">
<title>bc</title>
<polygon fill="none" stroke="black" points="150,-213 150,-238 191,-238 191,-213 150,-213"/>
<text text-anchor="start" x="155" y="-222.8" font-family="Times,serif" font-weight="bold" font-size="14.00">Class</text>
<polygon fill="none" stroke="black" points="150,-188 150,-213 170,-213 170,-188 150,-188"/>
<text text-anchor="start" x="156.5" y="-196.8" font-family="Times,serif" font-size="14.00">x</text>
<polygon fill="none" stroke="black" points="170,-188 170,-213 191,-213 191,-188 170,-188"/>
<text text-anchor="start" x="177" y="-196.8" font-family="Times,serif" font-size="14.00">0</text>
</g>
<!-- ac -->
<g id="node5" class="node">
<title>ac</title>
<polygon fill="none" stroke="black" points="149,-135 149,-160 191,-160 191,-135 149,-135"/>
<text text-anchor="start" x="154.5" y="-144.8" font-family="Times,serif" font-weight="bold" font-size="14.00">Class</text>
</g>
<!-- meta -->
<g id="node6" class="node">
<title>meta</title>
<polygon fill="none" stroke="black" points="24.5,-199 24.5,-224 97.5,-224 97.5,-199 24.5,-199"/>
<text text-anchor="start" x="29.5" y="-208.8" font-family="Times,serif" font-weight="bold" font-size="14.00">Metaspace</text>
<polygon fill="none" stroke="black" points="24.5,-174 24.5,-199 72.5,-199 72.5,-174 24.5,-174"/>
<text text-anchor="start" x="43.5" y="-182.8" font-family="Times,serif" font-size="14.00">B</text>
<polygon fill="none" stroke="black" points="72.5,-174 72.5,-199 97.5,-199 97.5,-174 72.5,-174"/>
<polygon fill="none" stroke="black" points="24.5,-149 24.5,-174 72.5,-174 72.5,-149 24.5,-149"/>
<text text-anchor="start" x="37" y="-157.8" font-family="Times,serif" font-size="14.00">B.A</text>
<polygon fill="none" stroke="black" points="72.5,-149 72.5,-174 97.5,-174 97.5,-149 72.5,-149"/>
</g>
<!-- meta&#45;&gt;bc -->
<g id="edge3" class="edge">
<title>meta:c&#45;&gt;bc</title>
<path fill="none" stroke="black" d="M86.5,-186C86.5,-186 109.75,-193.61 131.56,-200.75"/>
<polygon fill="black" stroke="black" points="130.48,-204.07 141.07,-203.86 132.65,-197.42 130.48,-204.07"/>
</g>
<!-- meta&#45;&gt;ac -->
<g id="edge4" class="edge">
<title>meta:c&#45;&gt;ac</title>
<path fill="none" stroke="black" d="M86.5,-161C86.5,-161 109.04,-157.45 130.56,-154.06"/>
<polygon fill="black" stroke="black" points="131.27,-157.49 140.61,-152.47 130.19,-150.57 131.27,-157.49"/>
</g>
</g>
</svg>
