<?xml version="1.0" encoding="UTF-8" standalone="no"?>
<!DOCTYPE svg PUBLIC "-//W3C//DTD SVG 1.1//EN"
 "http://www.w3.org/Graphics/SVG/1.1/DTD/svg11.dtd">
<!-- Generated by graphviz version 2.46.0 (20210118.1747)
 -->
<!-- Title: G Pages: 1 -->
<svg width="282pt" height="163pt"
 viewBox="0.00 0.00 282.00 163.00" xmlns="http://www.w3.org/2000/svg" xmlns:xlink="http://www.w3.org/1999/xlink">
<g id="graph0" class="graph" transform="scale(1 1) rotate(0) translate(4 159)">
<title>G</title>
<polygon fill="white" stroke="transparent" points="-4,4 -4,-159 278,-159 278,4 -4,4"/>
<!-- stack -->
<g id="node1" class="node">
<title>stack</title>
<polygon fill="none" stroke="#f0f0f0" points="8,-25 8,-94 21,-94 21,-25 8,-25"/>
<text text-anchor="start" x="12" y="-55.8" font-family="Times,serif" font-size="14.00">f</text>
<polygon fill="none" stroke="black" points="21,-71 21,-94 49,-94 49,-71 21,-71"/>
<text text-anchor="start" x="31.5" y="-78.8" font-family="Times,serif" font-size="14.00">a</text>
<polygon fill="none" stroke="black" points="49,-71 49,-94 64,-94 64,-71 49,-71"/>
<polygon fill="none" stroke="black" points="21,-48 21,-71 49,-71 49,-48 21,-48"/>
<text text-anchor="start" x="31.5" y="-55.8" font-family="Times,serif" font-size="14.00">x</text>
<polygon fill="none" stroke="black" points="49,-48 49,-71 64,-71 64,-48 49,-48"/>
<text text-anchor="start" x="53" y="-55.8" font-family="Times,serif" font-size="14.00">0</text>
<polygon fill="none" stroke="black" points="21,-25 21,-48 49,-48 49,-25 21,-25"/>
<text text-anchor="start" x="25" y="-32.8" font-family="Times,serif" font-size="14.00">this</text>
<polygon fill="none" stroke="black" points="49,-25 49,-48 64,-48 64,-25 49,-25"/>
<text text-anchor="start" x="27" y="-10.8" font-family="Times,serif" font-size="14.00">Stack</text>
</g>
<!-- a -->
<g id="node2" class="node">
<title>a</title>
<polygon fill="none" stroke="black" points="116,-126 116,-151 176,-151 176,-126 116,-126"/>
<text text-anchor="start" x="141" y="-135.8" font-family="Times,serif" font-weight="bold" font-size="14.00">A</text>
<polygon fill="none" stroke="black" points="116,-101 116,-126 159,-126 159,-101 116,-101"/>
<text text-anchor="start" x="134" y="-109.8" font-family="Times,serif" font-size="14.00">y</text>
<polygon fill="none" stroke="black" points="159,-101 159,-126 176,-126 176,-101 159,-101"/>
<text text-anchor="start" x="164" y="-109.8" font-family="Times,serif" font-size="14.00">1</text>
<polygon fill="none" stroke="black" points="116,-76 116,-101 159,-101 159,-76 116,-76"/>
<text text-anchor="start" x="134" y="-84.8" font-family="Times,serif" font-size="14.00">x</text>
<polygon fill="none" stroke="black" points="159,-76 159,-101 176,-101 176,-76 159,-76"/>
<text text-anchor="start" x="164" y="-84.8" font-family="Times,serif" font-size="14.00">0</text>
<polygon fill="none" stroke="black" points="116,-51 116,-76 159,-76 159,-51 116,-51"/>
<text text-anchor="start" x="121" y="-59.8" font-family="Times,serif" font-size="14.00">B.this</text>
<polygon fill="none" stroke="black" points="159,-51 159,-76 176,-76 176,-51 159,-51"/>
</g>
<!-- stack&#45;&gt;a -->
<g id="edge2" class="edge">
<title>stack:c&#45;&gt;a</title>
<path fill="none" stroke="black" d="M58,-83C58,-83 77.35,-87 97.8,-91.24"/>
<polygon fill="black" stroke="black" points="97.35,-94.72 107.85,-93.31 98.77,-87.86 97.35,-94.72"/>
</g>
<!-- b -->
<g id="node3" class="node">
<title>b</title>
<polygon fill="none" stroke="black" points="237,-28 237,-53 257,-53 257,-28 237,-28"/>
<text text-anchor="start" x="242" y="-37.8" font-family="Times,serif" font-weight="bold" font-size="14.00">B</text>
</g>
<!-- stack&#45;&gt;b -->
<g id="edge1" class="edge">
<title>stack:c&#45;&gt;b</title>
<path fill="none" stroke="black" d="M58,-36C58,-36 128.02,-36.2 184,-38 192.25,-38.27 201.12,-38.64 209.5,-39.04"/>
<polygon fill="black" stroke="black" points="209.6,-42.55 219.76,-39.54 209.95,-35.55 209.6,-42.55"/>
</g>
<!-- a&#45;&gt;b -->
<g id="edge3" class="edge">
<title>a:c&#45;&gt;b</title>
<path fill="none" stroke="black" d="M169,-63C169,-63 190.12,-56.97 210.23,-51.22"/>
<polygon fill="black" stroke="black" points="211.28,-54.56 219.93,-48.45 209.35,-47.83 211.28,-54.56"/>
</g>
</g>
</svg>
