<?xml version="1.0" encoding="UTF-8" standalone="no"?>
<!DOCTYPE svg PUBLIC "-//W3C//DTD SVG 1.1//EN"
 "http://www.w3.org/Graphics/SVG/1.1/DTD/svg11.dtd">
<!-- Generated by graphviz version 2.46.0 (20210118.1747)
 -->
<!-- Title: G Pages: 1 -->
<svg width="170pt" height="83pt"
 viewBox="0.00 0.00 170.00 83.00" xmlns="http://www.w3.org/2000/svg" xmlns:xlink="http://www.w3.org/1999/xlink">
<g id="graph0" class="graph" transform="scale(1 1) rotate(0) translate(4 79)">
<title>G</title>
<polygon fill="white" stroke="transparent" points="-4,4 -4,-79 166,-79 166,4 -4,4"/>
<!-- stack -->
<g id="node1" class="node">
<title>stack</title>
<polygon fill="none" stroke="#f0f0f0" points="8,-24.5 8,-70.5 21,-70.5 21,-24.5 8,-24.5"/>
<text text-anchor="start" x="12" y="-43.8" font-family="Times,serif" font-size="14.00">f</text>
<polygon fill="none" stroke="black" points="21,-47.5 21,-70.5 49,-70.5 49,-47.5 21,-47.5"/>
<text text-anchor="start" x="31.5" y="-55.3" font-family="Times,serif" font-size="14.00">y</text>
<polygon fill="none" stroke="black" points="49,-47.5 49,-70.5 64,-70.5 64,-47.5 49,-47.5"/>
<text text-anchor="start" x="53" y="-55.3" font-family="Times,serif" font-size="14.00">2</text>
<polygon fill="none" stroke="black" points="21,-24.5 21,-47.5 49,-47.5 49,-24.5 21,-24.5"/>
<text text-anchor="start" x="25" y="-32.3" font-family="Times,serif" font-size="14.00">this</text>
<polygon fill="none" stroke="black" points="49,-24.5 49,-47.5 64,-47.5 64,-24.5 49,-24.5"/>
<text text-anchor="start" x="27" y="-10.3" font-family="Times,serif" font-size="14.00">Stack</text>
</g>
<!-- b -->
<g id="node2" class="node">
<title>b</title>
<polygon fill="none" stroke="black" points="118,-35.5 118,-60.5 152,-60.5 152,-35.5 118,-35.5"/>
<text text-anchor="start" x="130" y="-45.3" font-family="Times,serif" font-weight="bold" font-size="14.00">B</text>
<polygon fill="none" stroke="black" points="118,-10.5 118,-35.5 135,-35.5 135,-10.5 118,-10.5"/>
<text text-anchor="start" x="123" y="-19.3" font-family="Times,serif" font-size="14.00">x</text>
<polygon fill="none" stroke="black" points="135,-10.5 135,-35.5 152,-35.5 152,-10.5 135,-10.5"/>
<text text-anchor="start" x="140" y="-19.3" font-family="Times,serif" font-size="14.00">1</text>
</g>
<!-- stack&#45;&gt;b -->
<g id="edge1" class="edge">
<title>stack:c&#45;&gt;b</title>
<path fill="none" stroke="black" d="M58,-35.5C58,-35.5 78.2,-35.5 97.78,-35.5"/>
<polygon fill="black" stroke="black" points="97.85,-39 107.85,-35.5 97.85,-32 97.85,-39"/>
</g>
</g>
</svg>
