<?xml version="1.0" encoding="UTF-8" standalone="no"?>
<!DOCTYPE svg PUBLIC "-//W3C//DTD SVG 1.1//EN"
 "http://www.w3.org/Graphics/SVG/1.1/DTD/svg11.dtd">
<!-- Generated by graphviz version 2.46.0 (20210118.1747)
 -->
<!-- Title: G Pages: 1 -->
<svg width="282pt" height="145pt"
 viewBox="0.00 0.00 282.00 144.50" xmlns="http://www.w3.org/2000/svg" xmlns:xlink="http://www.w3.org/1999/xlink">
<g id="graph0" class="graph" transform="scale(1 1) rotate(0) translate(4 140.5)">
<title>G</title>
<polygon fill="white" stroke="transparent" points="-4,4 -4,-140.5 278,-140.5 278,4 -4,4"/>
<!-- stack -->
<g id="node1" class="node">
<title>stack</title>
<polygon fill="none" stroke="#f0f0f0" points="8,-25 8,-94 21,-94 21,-25 8,-25"/>
<text text-anchor="start" x="12" y="-55.8" font-family="Times,serif" font-size="14.00">f</text>
<polygon fill="none" stroke="black" points="21,-71 21,-94 49,-94 49,-71 21,-71"/>
<text text-anchor="start" x="31.5" y="-78.8" font-family="Times,serif" font-size="14.00">a</text>
<polygon fill="none" stroke="black" points="49,-71 49,-94 64,-94 64,-71 49,-71"/>
<polygon fill="none" stroke="black" points="21,-48 21,-71 49,-71 49,-48 21,-48"/>
<text text-anchor="start" x="31.5" y="-55.8" font-family="Times,serif" font-size="14.00">y</text>
<polygon fill="none" stroke="black" points="49,-48 49,-71 64,-71 64,-48 49,-48"/>
<text text-anchor="start" x="53" y="-55.8" font-family="Times,serif" font-size="14.00">2</text>
<polygon fill="none" stroke="black" points="21,-25 21,-48 49,-48 49,-25 21,-25"/>
<text text-anchor="start" x="25" y="-32.8" font-family="Times,serif" font-size="14.00">this</text>
<polygon fill="none" stroke="black" points="49,-25 49,-48 64,-48 64,-25 49,-25"/>
<text text-anchor="start" x="27" y="-10.8" font-family="Times,serif" font-size="14.00">Stack</text>
</g>
<!-- a -->
<g id="node2" class="node">
<title>a</title>
<polygon fill="none" stroke="black" points="116,-107 116,-132 176,-132 176,-107 116,-107"/>
<text text-anchor="start" x="141" y="-116.8" font-family="Times,serif" font-weight="bold" font-size="14.00">A</text>
<polygon fill="none" stroke="black" points="116,-82 116,-107 159,-107 159,-82 116,-82"/>
<text text-anchor="start" x="134" y="-90.8" font-family="Times,serif" font-size="14.00">y</text>
<polygon fill="none" stroke="black" points="159,-82 159,-107 176,-107 176,-82 159,-82"/>
<text text-anchor="start" x="164" y="-90.8" font-family="Times,serif" font-size="14.00">2</text>
<polygon fill="none" stroke="black" points="116,-57 116,-82 159,-82 159,-57 116,-57"/>
<text text-anchor="start" x="121" y="-65.8" font-family="Times,serif" font-size="14.00">B.this</text>
<polygon fill="none" stroke="black" points="159,-57 159,-82 176,-82 176,-57 159,-57"/>
</g>
<!-- stack&#45;&gt;a -->
<g id="edge2" class="edge">
<title>stack:c&#45;&gt;a</title>
<path fill="none" stroke="black" d="M58,-83C58,-83 77.35,-85.67 97.8,-88.49"/>
<polygon fill="black" stroke="black" points="97.47,-91.98 107.85,-89.88 98.42,-85.04 97.47,-91.98"/>
</g>
<!-- b -->
<g id="node3" class="node">
<title>b</title>
<polygon fill="none" stroke="black" points="230,-47 230,-72 264,-72 264,-47 230,-47"/>
<text text-anchor="start" x="242" y="-56.8" font-family="Times,serif" font-weight="bold" font-size="14.00">B</text>
<polygon fill="none" stroke="black" points="230,-22 230,-47 247,-47 247,-22 230,-22"/>
<text text-anchor="start" x="235" y="-30.8" font-family="Times,serif" font-size="14.00">x</text>
<polygon fill="none" stroke="black" points="247,-22 247,-47 264,-47 264,-22 247,-22"/>
<text text-anchor="start" x="252" y="-30.8" font-family="Times,serif" font-size="14.00">1</text>
</g>
<!-- stack&#45;&gt;b -->
<g id="edge1" class="edge">
<title>stack:c&#45;&gt;b</title>
<path fill="none" stroke="black" d="M58,-36C58,-36 155.26,-41.69 209.87,-44.89"/>
<polygon fill="black" stroke="black" points="209.67,-48.38 219.86,-45.47 210.08,-41.39 209.67,-48.38"/>
</g>
<!-- a&#45;&gt;b -->
<g id="edge3" class="edge">
<title>a:c&#45;&gt;b</title>
<path fill="none" stroke="black" d="M169,-69C169,-69 190.12,-62.97 210.23,-57.22"/>
<polygon fill="black" stroke="black" points="211.28,-60.56 219.93,-54.45 209.35,-53.83 211.28,-60.56"/>
</g>
</g>
</svg>
