<?xml version="1.0" encoding="UTF-8" standalone="no"?>
<!DOCTYPE svg PUBLIC "-//W3C//DTD SVG 1.1//EN"
 "http://www.w3.org/Graphics/SVG/1.1/DTD/svg11.dtd">
<!-- Generated by graphviz version 2.46.0 (20210118.1747)
 -->
<!-- Title: G Pages: 1 -->
<svg width="302pt" height="143pt"
 viewBox="0.00 0.00 302.00 143.00" xmlns="http://www.w3.org/2000/svg" xmlns:xlink="http://www.w3.org/1999/xlink">
<g id="graph0" class="graph" transform="scale(1 1) rotate(0) translate(4 139)">
<title>G</title>
<polygon fill="white" stroke="transparent" points="-4,4 -4,-139 298,-139 298,4 -4,4"/>
<!-- a -->
<g id="node1" class="node">
<title>a</title>
<polygon fill="none" stroke="black" points="8.5,-105.5 8.5,-130.5 61.5,-130.5 61.5,-105.5 8.5,-105.5"/>
<text text-anchor="start" x="18.5" y="-115.3" font-family="Times,serif" font-weight="bold" font-size="14.00">Stack</text>
<polygon fill="none" stroke="black" points="8.5,-80.5 8.5,-105.5 44.5,-105.5 44.5,-80.5 8.5,-80.5"/>
<text text-anchor="start" x="13.5" y="-89.3" font-family="Times,serif" font-size="14.00">head</text>
<polygon fill="none" stroke="black" points="44.5,-80.5 44.5,-105.5 61.5,-105.5 61.5,-80.5 44.5,-80.5"/>
<text text-anchor="start" x="49.5" y="-89.3" font-family="Times,serif" font-size="14.00">2</text>
<polygon fill="none" stroke="black" points="8.5,-55.5 8.5,-80.5 44.5,-80.5 44.5,-55.5 8.5,-55.5"/>
<text text-anchor="start" x="17.5" y="-64.3" font-family="Times,serif" font-size="14.00">tail</text>
<polygon fill="none" stroke="black" points="44.5,-55.5 44.5,-80.5 61.5,-80.5 61.5,-55.5 44.5,-55.5"/>
</g>
<!-- b -->
<g id="node2" class="node">
<title>b</title>
<polygon fill="none" stroke="black" points="113.5,-79.5 113.5,-104.5 166.5,-104.5 166.5,-79.5 113.5,-79.5"/>
<text text-anchor="start" x="123.5" y="-89.3" font-family="Times,serif" font-weight="bold" font-size="14.00">Stack</text>
<polygon fill="none" stroke="black" points="113.5,-54.5 113.5,-79.5 149.5,-79.5 149.5,-54.5 113.5,-54.5"/>
<text text-anchor="start" x="118.5" y="-63.3" font-family="Times,serif" font-size="14.00">head</text>
<polygon fill="none" stroke="black" points="149.5,-54.5 149.5,-79.5 166.5,-79.5 166.5,-54.5 149.5,-54.5"/>
<text text-anchor="start" x="154.5" y="-63.3" font-family="Times,serif" font-size="14.00">1</text>
<polygon fill="none" stroke="black" points="113.5,-29.5 113.5,-54.5 149.5,-54.5 149.5,-29.5 113.5,-29.5"/>
<text text-anchor="start" x="122.5" y="-38.3" font-family="Times,serif" font-size="14.00">tail</text>
<polygon fill="none" stroke="black" points="149.5,-29.5 149.5,-54.5 166.5,-54.5 166.5,-29.5 149.5,-29.5"/>
</g>
<!-- a&#45;&gt;b -->
<g id="edge1" class="edge">
<title>a:c&#45;&gt;b</title>
<path fill="none" stroke="black" d="M54.5,-67.5C54.5,-67.5 74.22,-67.5 94.55,-67.5"/>
<polygon fill="black" stroke="black" points="94.82,-71 104.82,-67.5 94.82,-64 94.82,-71"/>
</g>
<!-- c -->
<g id="node3" class="node">
<title>c</title>
<polygon fill="none" stroke="black" points="218,-53.5 218,-78.5 286,-78.5 286,-53.5 218,-53.5"/>
<text text-anchor="start" x="235.5" y="-63.3" font-family="Times,serif" font-weight="bold" font-size="14.00">Stack</text>
<polygon fill="none" stroke="black" points="218,-28.5 218,-53.5 254,-53.5 254,-28.5 218,-28.5"/>
<text text-anchor="start" x="223" y="-37.3" font-family="Times,serif" font-size="14.00">head</text>
<polygon fill="none" stroke="black" points="254,-28.5 254,-53.5 286,-53.5 286,-28.5 254,-28.5"/>
<text text-anchor="start" x="259" y="-37.3" font-family="Times,serif" font-size="14.00">null</text>
<polygon fill="none" stroke="black" points="218,-3.5 218,-28.5 254,-28.5 254,-3.5 218,-3.5"/>
<text text-anchor="start" x="227" y="-12.3" font-family="Times,serif" font-size="14.00">tail</text>
<polygon fill="none" stroke="black" points="254,-3.5 254,-28.5 286,-28.5 286,-3.5 254,-3.5"/>
<text text-anchor="start" x="259" y="-12.3" font-family="Times,serif" font-size="14.00">null</text>
</g>
<!-- b&#45;&gt;c -->
<g id="edge2" class="edge">
<title>b:c&#45;&gt;c</title>
<path fill="none" stroke="black" d="M159.5,-41.5C159.5,-41.5 178.71,-41.5 199.53,-41.5"/>
<polygon fill="black" stroke="black" points="199.8,-45 209.8,-41.5 199.8,-38 199.8,-45"/>
</g>
</g>
</svg>
