<?xml version="1.0" encoding="UTF-8" standalone="no"?>
<!DOCTYPE svg PUBLIC "-//W3C//DTD SVG 1.1//EN"
 "http://www.w3.org/Graphics/SVG/1.1/DTD/svg11.dtd">
<!-- Generated by graphviz version 2.46.0 (20210118.1747)
 -->
<!-- Title: G Pages: 1 -->
<svg width="452pt" height="143pt"
 viewBox="0.00 0.00 452.00 143.00" xmlns="http://www.w3.org/2000/svg" xmlns:xlink="http://www.w3.org/1999/xlink">
<g id="graph0" class="graph" transform="scale(1 1) rotate(0) translate(4 139)">
<title>G</title>
<polygon fill="white" stroke="transparent" points="-4,4 -4,-139 448,-139 448,4 -4,4"/>
<!-- a -->
<g id="node1" class="node">
<title>a</title>
<polygon fill="none" stroke="black" points="8,-105.5 8,-130.5 116,-130.5 116,-105.5 8,-105.5"/>
<text text-anchor="start" x="13" y="-115.3" font-family="Times,serif" font-weight="bold" font-size="14.00">ImmutableStack</text>
<polygon fill="none" stroke="black" points="8,-80.5 8,-105.5 71,-105.5 71,-80.5 8,-80.5"/>
<text text-anchor="start" x="26.5" y="-89.3" font-family="Times,serif" font-size="14.00">head</text>
<polygon fill="none" stroke="black" points="71,-80.5 71,-105.5 116,-105.5 116,-80.5 71,-80.5"/>
<text text-anchor="start" x="90" y="-89.3" font-family="Times,serif" font-size="14.00">2</text>
<polygon fill="none" stroke="black" points="8,-55.5 8,-80.5 71,-80.5 71,-55.5 8,-55.5"/>
<text text-anchor="start" x="30.5" y="-64.3" font-family="Times,serif" font-size="14.00">tail</text>
<polygon fill="none" stroke="black" points="71,-55.5 71,-80.5 116,-80.5 116,-55.5 71,-55.5"/>
</g>
<!-- b -->
<g id="node2" class="node">
<title>b</title>
<polygon fill="none" stroke="black" points="168,-79.5 168,-104.5 276,-104.5 276,-79.5 168,-79.5"/>
<text text-anchor="start" x="173" y="-89.3" font-family="Times,serif" font-weight="bold" font-size="14.00">ImmutableStack</text>
<polygon fill="none" stroke="black" points="168,-54.5 168,-79.5 231,-79.5 231,-54.5 168,-54.5"/>
<text text-anchor="start" x="186.5" y="-63.3" font-family="Times,serif" font-size="14.00">head</text>
<polygon fill="none" stroke="black" points="231,-54.5 231,-79.5 276,-79.5 276,-54.5 231,-54.5"/>
<text text-anchor="start" x="250" y="-63.3" font-family="Times,serif" font-size="14.00">1</text>
<polygon fill="none" stroke="black" points="168,-29.5 168,-54.5 231,-54.5 231,-29.5 168,-29.5"/>
<text text-anchor="start" x="190.5" y="-38.3" font-family="Times,serif" font-size="14.00">tail</text>
<polygon fill="none" stroke="black" points="231,-29.5 231,-54.5 276,-54.5 276,-29.5 231,-29.5"/>
</g>
<!-- a&#45;&gt;b -->
<g id="edge1" class="edge">
<title>a:c&#45;&gt;b</title>
<path fill="none" stroke="black" d="M95,-67.5C95,-67.5 121.2,-67.5 149.71,-67.5"/>
<polygon fill="black" stroke="black" points="149.85,-71 159.85,-67.5 149.85,-64 149.85,-71"/>
</g>
<!-- c -->
<g id="node3" class="node">
<title>c</title>
<polygon fill="none" stroke="black" points="328,-53.5 328,-78.5 436,-78.5 436,-53.5 328,-53.5"/>
<text text-anchor="start" x="333" y="-63.3" font-family="Times,serif" font-weight="bold" font-size="14.00">ImmutableStack</text>
<polygon fill="none" stroke="black" points="328,-28.5 328,-53.5 384,-53.5 384,-28.5 328,-28.5"/>
<text text-anchor="start" x="343" y="-37.3" font-family="Times,serif" font-size="14.00">head</text>
<polygon fill="none" stroke="black" points="384,-28.5 384,-53.5 436,-53.5 436,-28.5 384,-28.5"/>
<text text-anchor="start" x="399" y="-37.3" font-family="Times,serif" font-size="14.00">null</text>
<polygon fill="none" stroke="black" points="328,-3.5 328,-28.5 384,-28.5 384,-3.5 328,-3.5"/>
<text text-anchor="start" x="347" y="-12.3" font-family="Times,serif" font-size="14.00">tail</text>
<polygon fill="none" stroke="black" points="384,-3.5 384,-28.5 436,-28.5 436,-3.5 384,-3.5"/>
<text text-anchor="start" x="399" y="-12.3" font-family="Times,serif" font-size="14.00">null</text>
</g>
<!-- b&#45;&gt;c -->
<g id="edge2" class="edge">
<title>b:c&#45;&gt;c</title>
<path fill="none" stroke="black" d="M255,-41.5C255,-41.5 281.2,-41.5 309.71,-41.5"/>
<polygon fill="black" stroke="black" points="309.85,-45 319.85,-41.5 309.85,-38 309.85,-45"/>
</g>
</g>
</svg>
