<?xml version="1.0" encoding="UTF-8" standalone="no"?>
<!DOCTYPE svg PUBLIC "-//W3C//DTD SVG 1.1//EN"
 "http://www.w3.org/Graphics/SVG/1.1/DTD/svg11.dtd">
<!-- Generated by graphviz version 2.46.0 (20210118.1747)
 -->
<!-- Title: G Pages: 1 -->
<svg width="612pt" height="169pt"
 viewBox="0.00 0.00 612.00 169.00" xmlns="http://www.w3.org/2000/svg" xmlns:xlink="http://www.w3.org/1999/xlink">
<g id="graph0" class="graph" transform="scale(1 1) rotate(0) translate(4 165)">
<title>G</title>
<polygon fill="white" stroke="transparent" points="-4,4 -4,-165 608,-165 608,4 -4,4"/>
<!-- a -->
<g id="node1" class="node">
<title>a</title>
<polygon fill="none" stroke="black" points="8,-131.5 8,-156.5 116,-156.5 116,-131.5 8,-131.5"/>
<text text-anchor="start" x="13" y="-141.3" font-family="Times,serif" font-weight="bold" font-size="14.00">ImmutableStack</text>
<polygon fill="none" stroke="black" points="8,-106.5 8,-131.5 71,-131.5 71,-106.5 8,-106.5"/>
<text text-anchor="start" x="26.5" y="-115.3" font-family="Times,serif" font-size="14.00">head</text>
<polygon fill="none" stroke="black" points="71,-106.5 71,-131.5 116,-131.5 116,-106.5 71,-106.5"/>
<text text-anchor="start" x="90" y="-115.3" font-family="Times,serif" font-size="14.00">3</text>
<polygon fill="none" stroke="black" points="8,-81.5 8,-106.5 71,-106.5 71,-81.5 8,-81.5"/>
<text text-anchor="start" x="30.5" y="-90.3" font-family="Times,serif" font-size="14.00">tail</text>
<polygon fill="none" stroke="black" points="71,-81.5 71,-106.5 116,-106.5 116,-81.5 71,-81.5"/>
</g>
<!-- b -->
<g id="node2" class="node">
<title>b</title>
<polygon fill="none" stroke="black" points="168,-105.5 168,-130.5 276,-130.5 276,-105.5 168,-105.5"/>
<text text-anchor="start" x="173" y="-115.3" font-family="Times,serif" font-weight="bold" font-size="14.00">ImmutableStack</text>
<polygon fill="none" stroke="black" points="168,-80.5 168,-105.5 231,-105.5 231,-80.5 168,-80.5"/>
<text text-anchor="start" x="186.5" y="-89.3" font-family="Times,serif" font-size="14.00">head</text>
<polygon fill="none" stroke="black" points="231,-80.5 231,-105.5 276,-105.5 276,-80.5 231,-80.5"/>
<text text-anchor="start" x="250" y="-89.3" font-family="Times,serif" font-size="14.00">2</text>
<polygon fill="none" stroke="black" points="168,-55.5 168,-80.5 231,-80.5 231,-55.5 168,-55.5"/>
<text text-anchor="start" x="190.5" y="-64.3" font-family="Times,serif" font-size="14.00">tail</text>
<polygon fill="none" stroke="black" points="231,-55.5 231,-80.5 276,-80.5 276,-55.5 231,-55.5"/>
</g>
<!-- a&#45;&gt;b -->
<g id="edge1" class="edge">
<title>a:c&#45;&gt;b</title>
<path fill="none" stroke="black" d="M95,-93.5C95,-93.5 121.2,-93.5 149.71,-93.5"/>
<polygon fill="black" stroke="black" points="149.85,-97 159.85,-93.5 149.85,-90 149.85,-97"/>
</g>
<!-- c -->
<g id="node3" class="node">
<title>c</title>
<polygon fill="none" stroke="black" points="328,-79.5 328,-104.5 436,-104.5 436,-79.5 328,-79.5"/>
<text text-anchor="start" x="333" y="-89.3" font-family="Times,serif" font-weight="bold" font-size="14.00">ImmutableStack</text>
<polygon fill="none" stroke="black" points="328,-54.5 328,-79.5 391,-79.5 391,-54.5 328,-54.5"/>
<text text-anchor="start" x="346.5" y="-63.3" font-family="Times,serif" font-size="14.00">head</text>
<polygon fill="none" stroke="black" points="391,-54.5 391,-79.5 436,-79.5 436,-54.5 391,-54.5"/>
<text text-anchor="start" x="410" y="-63.3" font-family="Times,serif" font-size="14.00">1</text>
<polygon fill="none" stroke="black" points="328,-29.5 328,-54.5 391,-54.5 391,-29.5 328,-29.5"/>
<text text-anchor="start" x="350.5" y="-38.3" font-family="Times,serif" font-size="14.00">tail</text>
<polygon fill="none" stroke="black" points="391,-29.5 391,-54.5 436,-54.5 436,-29.5 391,-29.5"/>
</g>
<!-- b&#45;&gt;c -->
<g id="edge2" class="edge">
<title>b:c&#45;&gt;c</title>
<path fill="none" stroke="black" d="M255,-67.5C255,-67.5 281.2,-67.5 309.71,-67.5"/>
<polygon fill="black" stroke="black" points="309.85,-71 319.85,-67.5 309.85,-64 309.85,-71"/>
</g>
<!-- d -->
<g id="node4" class="node">
<title>d</title>
<polygon fill="none" stroke="black" points="488,-53.5 488,-78.5 596,-78.5 596,-53.5 488,-53.5"/>
<text text-anchor="start" x="493" y="-63.3" font-family="Times,serif" font-weight="bold" font-size="14.00">ImmutableStack</text>
<polygon fill="none" stroke="black" points="488,-28.5 488,-53.5 544,-53.5 544,-28.5 488,-28.5"/>
<text text-anchor="start" x="503" y="-37.3" font-family="Times,serif" font-size="14.00">head</text>
<polygon fill="none" stroke="black" points="544,-28.5 544,-53.5 596,-53.5 596,-28.5 544,-28.5"/>
<text text-anchor="start" x="559" y="-37.3" font-family="Times,serif" font-size="14.00">null</text>
<polygon fill="none" stroke="black" points="488,-3.5 488,-28.5 544,-28.5 544,-3.5 488,-3.5"/>
<text text-anchor="start" x="507" y="-12.3" font-family="Times,serif" font-size="14.00">tail</text>
<polygon fill="none" stroke="black" points="544,-3.5 544,-28.5 596,-28.5 596,-3.5 544,-3.5"/>
<text text-anchor="start" x="559" y="-12.3" font-family="Times,serif" font-size="14.00">null</text>
</g>
<!-- c&#45;&gt;d -->
<g id="edge3" class="edge">
<title>c:c&#45;&gt;d</title>
<path fill="none" stroke="black" d="M415,-41.5C415,-41.5 441.2,-41.5 469.71,-41.5"/>
<polygon fill="black" stroke="black" points="469.85,-45 479.85,-41.5 469.85,-38 469.85,-45"/>
</g>
</g>
</svg>
