<?xml version="1.0" encoding="UTF-8" standalone="no"?>
<!DOCTYPE svg PUBLIC "-//W3C//DTD SVG 1.1//EN"
 "http://www.w3.org/Graphics/SVG/1.1/DTD/svg11.dtd">
<!-- Generated by graphviz version 2.46.0 (20210118.1747)
 -->
<!-- Title: G Pages: 1 -->
<svg width="407pt" height="169pt"
 viewBox="0.00 0.00 407.00 169.00" xmlns="http://www.w3.org/2000/svg" xmlns:xlink="http://www.w3.org/1999/xlink">
<g id="graph0" class="graph" transform="scale(1 1) rotate(0) translate(4 165)">
<title>G</title>
<polygon fill="white" stroke="transparent" points="-4,4 -4,-165 403,-165 403,4 -4,4"/>
<!-- a -->
<g id="node1" class="node">
<title>a</title>
<polygon fill="none" stroke="black" points="8.5,-131.5 8.5,-156.5 61.5,-156.5 61.5,-131.5 8.5,-131.5"/>
<text text-anchor="start" x="18.5" y="-141.3" font-family="Times,serif" font-weight="bold" font-size="14.00">Stack</text>
<polygon fill="none" stroke="black" points="8.5,-106.5 8.5,-131.5 44.5,-131.5 44.5,-106.5 8.5,-106.5"/>
<text text-anchor="start" x="13.5" y="-115.3" font-family="Times,serif" font-size="14.00">head</text>
<polygon fill="none" stroke="black" points="44.5,-106.5 44.5,-131.5 61.5,-131.5 61.5,-106.5 44.5,-106.5"/>
<text text-anchor="start" x="49.5" y="-115.3" font-family="Times,serif" font-size="14.00">3</text>
<polygon fill="none" stroke="black" points="8.5,-81.5 8.5,-106.5 44.5,-106.5 44.5,-81.5 8.5,-81.5"/>
<text text-anchor="start" x="17.5" y="-90.3" font-family="Times,serif" font-size="14.00">tail</text>
<polygon fill="none" stroke="black" points="44.5,-81.5 44.5,-106.5 61.5,-106.5 61.5,-81.5 44.5,-81.5"/>
</g>
<!-- b -->
<g id="node2" class="node">
<title>b</title>
<polygon fill="none" stroke="black" points="113.5,-105.5 113.5,-130.5 166.5,-130.5 166.5,-105.5 113.5,-105.5"/>
<text text-anchor="start" x="123.5" y="-115.3" font-family="Times,serif" font-weight="bold" font-size="14.00">Stack</text>
<polygon fill="none" stroke="black" points="113.5,-80.5 113.5,-105.5 149.5,-105.5 149.5,-80.5 113.5,-80.5"/>
<text text-anchor="start" x="118.5" y="-89.3" font-family="Times,serif" font-size="14.00">head</text>
<polygon fill="none" stroke="black" points="149.5,-80.5 149.5,-105.5 166.5,-105.5 166.5,-80.5 149.5,-80.5"/>
<text text-anchor="start" x="154.5" y="-89.3" font-family="Times,serif" font-size="14.00">2</text>
<polygon fill="none" stroke="black" points="113.5,-55.5 113.5,-80.5 149.5,-80.5 149.5,-55.5 113.5,-55.5"/>
<text text-anchor="start" x="122.5" y="-64.3" font-family="Times,serif" font-size="14.00">tail</text>
<polygon fill="none" stroke="black" points="149.5,-55.5 149.5,-80.5 166.5,-80.5 166.5,-55.5 149.5,-55.5"/>
</g>
<!-- a&#45;&gt;b -->
<g id="edge1" class="edge">
<title>a:c&#45;&gt;b</title>
<path fill="none" stroke="black" d="M54.5,-93.5C54.5,-93.5 74.22,-93.5 94.55,-93.5"/>
<polygon fill="black" stroke="black" points="94.82,-97 104.82,-93.5 94.82,-90 94.82,-97"/>
</g>
<!-- c -->
<g id="node3" class="node">
<title>c</title>
<polygon fill="none" stroke="black" points="218.5,-79.5 218.5,-104.5 271.5,-104.5 271.5,-79.5 218.5,-79.5"/>
<text text-anchor="start" x="228.5" y="-89.3" font-family="Times,serif" font-weight="bold" font-size="14.00">Stack</text>
<polygon fill="none" stroke="black" points="218.5,-54.5 218.5,-79.5 254.5,-79.5 254.5,-54.5 218.5,-54.5"/>
<text text-anchor="start" x="223.5" y="-63.3" font-family="Times,serif" font-size="14.00">head</text>
<polygon fill="none" stroke="black" points="254.5,-54.5 254.5,-79.5 271.5,-79.5 271.5,-54.5 254.5,-54.5"/>
<text text-anchor="start" x="259.5" y="-63.3" font-family="Times,serif" font-size="14.00">1</text>
<polygon fill="none" stroke="black" points="218.5,-29.5 218.5,-54.5 254.5,-54.5 254.5,-29.5 218.5,-29.5"/>
<text text-anchor="start" x="227.5" y="-38.3" font-family="Times,serif" font-size="14.00">tail</text>
<polygon fill="none" stroke="black" points="254.5,-29.5 254.5,-54.5 271.5,-54.5 271.5,-29.5 254.5,-29.5"/>
</g>
<!-- b&#45;&gt;c -->
<g id="edge2" class="edge">
<title>b:c&#45;&gt;c</title>
<path fill="none" stroke="black" d="M159.5,-67.5C159.5,-67.5 179.22,-67.5 199.55,-67.5"/>
<polygon fill="black" stroke="black" points="199.82,-71 209.82,-67.5 199.82,-64 199.82,-71"/>
</g>
<!-- d -->
<g id="node4" class="node">
<title>d</title>
<polygon fill="none" stroke="black" points="323,-53.5 323,-78.5 391,-78.5 391,-53.5 323,-53.5"/>
<text text-anchor="start" x="340.5" y="-63.3" font-family="Times,serif" font-weight="bold" font-size="14.00">Stack</text>
<polygon fill="none" stroke="black" points="323,-28.5 323,-53.5 359,-53.5 359,-28.5 323,-28.5"/>
<text text-anchor="start" x="328" y="-37.3" font-family="Times,serif" font-size="14.00">head</text>
<polygon fill="none" stroke="black" points="359,-28.5 359,-53.5 391,-53.5 391,-28.5 359,-28.5"/>
<text text-anchor="start" x="364" y="-37.3" font-family="Times,serif" font-size="14.00">null</text>
<polygon fill="none" stroke="black" points="323,-3.5 323,-28.5 359,-28.5 359,-3.5 323,-3.5"/>
<text text-anchor="start" x="332" y="-12.3" font-family="Times,serif" font-size="14.00">tail</text>
<polygon fill="none" stroke="black" points="359,-3.5 359,-28.5 391,-28.5 391,-3.5 359,-3.5"/>
<text text-anchor="start" x="364" y="-12.3" font-family="Times,serif" font-size="14.00">null</text>
</g>
<!-- c&#45;&gt;d -->
<g id="edge3" class="edge">
<title>c:c&#45;&gt;d</title>
<path fill="none" stroke="black" d="M264.5,-41.5C264.5,-41.5 283.71,-41.5 304.53,-41.5"/>
<polygon fill="black" stroke="black" points="304.8,-45 314.8,-41.5 304.8,-38 304.8,-45"/>
</g>
</g>
</svg>
