<?xml version="1.0" encoding="UTF-8" standalone="no"?>
<!DOCTYPE svg PUBLIC "-//W3C//DTD SVG 1.1//EN"
 "http://www.w3.org/Graphics/SVG/1.1/DTD/svg11.dtd">
<!-- Generated by graphviz version 2.46.0 (20210118.1747)
 -->
<!-- Title: G Pages: 1 -->
<svg width="117pt" height="129pt"
 viewBox="0.00 0.00 117.00 129.00" xmlns="http://www.w3.org/2000/svg" xmlns:xlink="http://www.w3.org/1999/xlink">
<g id="graph0" class="graph" transform="scale(1 1) rotate(0) translate(4 125)">
<title>G</title>
<polygon fill="white" stroke="transparent" points="-4,4 -4,-125 113,-125 113,4 -4,4"/>
<!-- stack -->
<g id="node1" class="node">
<title>stack</title>
<polygon fill="none" stroke="#f0f0f0" points="8.5,-70.5 8.5,-116.5 40.5,-116.5 40.5,-70.5 8.5,-70.5"/>
<text text-anchor="start" x="12.5" y="-89.8" font-family="Times,serif" font-size="14.00">sum</text>
<polygon fill="none" stroke="black" points="40.5,-93.5 40.5,-116.5 79.5,-116.5 79.5,-93.5 40.5,-93.5"/>
<text text-anchor="start" x="44.5" y="-101.3" font-family="Times,serif" font-size="14.00">result</text>
<polygon fill="none" stroke="black" points="79.5,-93.5 79.5,-116.5 101.5,-116.5 101.5,-93.5 79.5,-93.5"/>
<text text-anchor="start" x="83.5" y="-101.3" font-family="Times,serif" font-size="14.00">10</text>
<polygon fill="none" stroke="black" points="40.5,-70.5 40.5,-93.5 79.5,-93.5 79.5,-70.5 40.5,-70.5"/>
<text text-anchor="start" x="56.5" y="-78.3" font-family="Times,serif" font-size="14.00">n</text>
<polygon fill="none" stroke="black" points="79.5,-70.5 79.5,-93.5 101.5,-93.5 101.5,-70.5 79.5,-70.5"/>
<text text-anchor="start" x="87" y="-78.3" font-family="Times,serif" font-size="14.00">9</text>
<polygon fill="none" stroke="#f0f0f0" points="8.5,-24.5 8.5,-70.5 40.5,-70.5 40.5,-24.5 8.5,-24.5"/>
<text text-anchor="start" x="12.5" y="-43.8" font-family="Times,serif" font-size="14.00">sum</text>
<polygon fill="none" stroke="black" points="40.5,-47.5 40.5,-70.5 79.5,-70.5 79.5,-47.5 40.5,-47.5"/>
<text text-anchor="start" x="44.5" y="-55.3" font-family="Times,serif" font-size="14.00">result</text>
<polygon fill="none" stroke="black" points="79.5,-47.5 79.5,-70.5 101.5,-70.5 101.5,-47.5 79.5,-47.5"/>
<text text-anchor="start" x="87" y="-55.3" font-family="Times,serif" font-size="14.00">0</text>
<polygon fill="none" stroke="black" points="40.5,-24.5 40.5,-47.5 79.5,-47.5 79.5,-24.5 40.5,-24.5"/>
<text text-anchor="start" x="56.5" y="-32.3" font-family="Times,serif" font-size="14.00">n</text>
<polygon fill="none" stroke="black" points="79.5,-24.5 79.5,-47.5 101.5,-47.5 101.5,-24.5 79.5,-24.5"/>
<text text-anchor="start" x="83.5" y="-32.3" font-family="Times,serif" font-size="14.00">10</text>
<text text-anchor="start" x="55.5" y="-10.3" font-family="Times,serif" font-size="14.00">Stack</text>
</g>
</g>
</svg>
