<?xml version="1.0" encoding="UTF-8" standalone="no"?>
<!DOCTYPE svg PUBLIC "-//W3C//DTD SVG 1.1//EN"
 "http://www.w3.org/Graphics/SVG/1.1/DTD/svg11.dtd">
<!-- Generated by graphviz version 2.46.0 (20210118.1747)
 -->
<!-- Title: G Pages: 1 -->
<svg width="399pt" height="129pt"
 viewBox="0.00 0.00 399.00 129.00" xmlns="http://www.w3.org/2000/svg" xmlns:xlink="http://www.w3.org/1999/xlink">
<g id="graph0" class="graph" transform="scale(1 1) rotate(0) translate(4 125)">
<title>G</title>
<polygon fill="white" stroke="transparent" points="-4,4 -4,-125 395,-125 395,4 -4,4"/>
<!-- stack -->
<g id="node1" class="node">
<title>stack</title>
<polygon fill="none" stroke="#f0f0f0" points="8.5,-70.5 8.5,-116.5 62.5,-116.5 62.5,-70.5 8.5,-70.5"/>
<text text-anchor="start" x="23.5" y="-89.8" font-family="Times,serif" font-size="14.00">sum</text>
<polygon fill="none" stroke="black" points="62.5,-93.5 62.5,-116.5 101.5,-116.5 101.5,-93.5 62.5,-93.5"/>
<text text-anchor="start" x="66.5" y="-101.3" font-family="Times,serif" font-size="14.00">result</text>
<polygon fill="none" stroke="black" points="101.5,-93.5 101.5,-116.5 123.5,-116.5 123.5,-93.5 101.5,-93.5"/>
<text text-anchor="start" x="105.5" y="-101.3" font-family="Times,serif" font-size="14.00">10</text>
<polygon fill="none" stroke="black" points="62.5,-70.5 62.5,-93.5 101.5,-93.5 101.5,-70.5 62.5,-70.5"/>
<text text-anchor="start" x="78.5" y="-78.3" font-family="Times,serif" font-size="14.00">n</text>
<polygon fill="none" stroke="black" points="101.5,-70.5 101.5,-93.5 123.5,-93.5 123.5,-70.5 101.5,-70.5"/>
<text text-anchor="start" x="109" y="-78.3" font-family="Times,serif" font-size="14.00">9</text>
<polygon fill="none" stroke="#f0f0f0" points="8.5,-24.5 8.5,-70.5 62.5,-70.5 62.5,-24.5 8.5,-24.5"/>
<text text-anchor="start" x="12.5" y="-43.8" font-family="Times,serif" font-size="14.00">summer</text>
<polygon fill="none" stroke="black" points="62.5,-47.5 62.5,-70.5 101.5,-70.5 101.5,-47.5 62.5,-47.5"/>
<text text-anchor="start" x="66.5" y="-55.3" font-family="Times,serif" font-size="14.00">result</text>
<polygon fill="none" stroke="black" points="101.5,-47.5 101.5,-70.5 123.5,-70.5 123.5,-47.5 101.5,-47.5"/>
<polygon fill="none" stroke="black" points="62.5,-24.5 62.5,-47.5 101.5,-47.5 101.5,-24.5 62.5,-24.5"/>
<text text-anchor="start" x="78.5" y="-32.3" font-family="Times,serif" font-size="14.00">n</text>
<polygon fill="none" stroke="black" points="101.5,-24.5 101.5,-47.5 123.5,-47.5 123.5,-24.5 101.5,-24.5"/>
<text text-anchor="start" x="105.5" y="-32.3" font-family="Times,serif" font-size="14.00">10</text>
<text text-anchor="start" x="77.5" y="-10.3" font-family="Times,serif" font-size="14.00">Stack</text>
</g>
<!-- a -->
<g id="node2" class="node">
<title>a</title>
<polygon fill="none" stroke="black" points="175.5,-58.5 175.5,-83.5 244.5,-83.5 244.5,-58.5 175.5,-58.5"/>
<text text-anchor="start" x="181" y="-68.3" font-family="Times,serif" font-weight="bold" font-size="14.00">Recursive</text>
<polygon fill="none" stroke="black" points="175.5,-33.5 175.5,-58.5 234.5,-58.5 234.5,-33.5 175.5,-33.5"/>
<text text-anchor="start" x="180.5" y="-42.3" font-family="Times,serif" font-size="14.00">producer</text>
<polygon fill="none" stroke="black" points="234.5,-33.5 234.5,-58.5 244.5,-58.5 244.5,-33.5 234.5,-33.5"/>
</g>
<!-- stack&#45;&gt;a -->
<g id="edge1" class="edge">
<title>stack:c&#45;&gt;a</title>
<path fill="none" stroke="black" d="M113.5,-58.5C113.5,-58.5 134.41,-58.5 156.61,-58.5"/>
<polygon fill="black" stroke="black" points="156.83,-62 166.83,-58.5 156.83,-55 156.83,-62"/>
</g>
<!-- at -->
<g id="node3" class="node">
<title>at</title>
<polygon fill="none" stroke="black" points="296.5,-57.5 296.5,-82.5 383.5,-82.5 383.5,-57.5 296.5,-57.5"/>
<text text-anchor="start" x="312.5" y="-67.3" font-family="Times,serif" font-weight="bold" font-size="14.00">Producer</text>
<polygon fill="none" stroke="black" points="296.5,-32.5 296.5,-57.5 359.5,-57.5 359.5,-32.5 296.5,-32.5"/>
<text text-anchor="start" x="315" y="-41.3" font-family="Times,serif" font-size="14.00">n &#45; 1</text>
<polygon fill="none" stroke="black" points="359.5,-32.5 359.5,-57.5 383.5,-57.5 383.5,-32.5 359.5,-32.5"/>
<text text-anchor="start" x="368" y="-41.3" font-family="Times,serif" font-size="14.00">9</text>
<polygon fill="none" stroke="black" points="296.5,-7.5 296.5,-32.5 359.5,-32.5 359.5,-7.5 296.5,-7.5"/>
<text text-anchor="start" x="301.5" y="-16.3" font-family="Times,serif" font-size="14.00">n + result</text>
<polygon fill="none" stroke="black" points="359.5,-7.5 359.5,-32.5 383.5,-32.5 383.5,-7.5 359.5,-7.5"/>
<text text-anchor="start" x="364.5" y="-16.3" font-family="Times,serif" font-size="14.00">10</text>
</g>
<!-- a&#45;&gt;at -->
<g id="edge2" class="edge">
<title>a:c&#45;&gt;at</title>
<path fill="none" stroke="black" d="M240.5,-45.5C240.5,-45.5 257.6,-45.5 277.51,-45.5"/>
<polygon fill="black" stroke="black" points="277.78,-49 287.78,-45.5 277.78,-42 277.78,-49"/>
</g>
</g>
</svg>
