<?xml version="1.0" encoding="UTF-8" standalone="no"?>
<!DOCTYPE svg PUBLIC "-//W3C//DTD SVG 1.1//EN"
 "http://www.w3.org/Graphics/SVG/1.1/DTD/svg11.dtd">
<!-- Generated by graphviz version 2.46.0 (20210118.1747)
 -->
<!-- Title: G Pages: 1 -->
<svg width="259pt" height="86pt"
 viewBox="0.00 0.00 259.00 85.50" xmlns="http://www.w3.org/2000/svg" xmlns:xlink="http://www.w3.org/1999/xlink">
<g id="graph0" class="graph" transform="scale(1 1) rotate(0) translate(4 81.5)">
<title>G</title>
<polygon fill="white" stroke="transparent" points="-4,4 -4,-81.5 255,-81.5 255,4 -4,4"/>
<!-- stack -->
<g id="node1" class="node">
<title>stack</title>
<polygon fill="none" stroke="#f0f0f0" points="8.5,-24.5 8.5,-70.5 62.5,-70.5 62.5,-24.5 8.5,-24.5"/>
<text text-anchor="start" x="12.5" y="-43.8" font-family="Times,serif" font-size="14.00">summer</text>
<polygon fill="none" stroke="black" points="62.5,-47.5 62.5,-70.5 101.5,-70.5 101.5,-47.5 62.5,-47.5"/>
<text text-anchor="start" x="66.5" y="-55.3" font-family="Times,serif" font-size="14.00">result</text>
<polygon fill="none" stroke="black" points="101.5,-47.5 101.5,-70.5 123.5,-70.5 123.5,-47.5 101.5,-47.5"/>
<polygon fill="none" stroke="black" points="62.5,-24.5 62.5,-47.5 101.5,-47.5 101.5,-24.5 62.5,-24.5"/>
<text text-anchor="start" x="78.5" y="-32.3" font-family="Times,serif" font-size="14.00">n</text>
<polygon fill="none" stroke="black" points="101.5,-24.5 101.5,-47.5 123.5,-47.5 123.5,-24.5 101.5,-24.5"/>
<text text-anchor="start" x="105.5" y="-32.3" font-family="Times,serif" font-size="14.00">10</text>
<text text-anchor="start" x="77.5" y="-10.3" font-family="Times,serif" font-size="14.00">Stack</text>
</g>
<!-- a -->
<g id="node2" class="node">
<title>a</title>
<polygon fill="none" stroke="black" points="175,-46.5 175,-71.5 243,-71.5 243,-46.5 175,-46.5"/>
<text text-anchor="start" x="180" y="-56.3" font-family="Times,serif" font-weight="bold" font-size="14.00">Recursive</text>
</g>
<!-- stack&#45;&gt;a -->
<g id="edge1" class="edge">
<title>stack:c&#45;&gt;a</title>
<path fill="none" stroke="black" d="M113.5,-59.5C113.5,-59.5 134.45,-59.5 156.62,-59.5"/>
<polygon fill="black" stroke="black" points="156.83,-63 166.83,-59.5 156.83,-56 156.83,-63"/>
</g>
</g>
</svg>
