<?xml version="1.0" encoding="UTF-8" standalone="no"?>
<!DOCTYPE svg PUBLIC "-//W3C//DTD SVG 1.1//EN"
 "http://www.w3.org/Graphics/SVG/1.1/DTD/svg11.dtd">
<!-- Generated by graphviz version 2.46.0 (20210118.1747)
 -->
<!-- Title: G Pages: 1 -->
<svg width="498pt" height="206pt"
 viewBox="0.00 0.00 498.00 205.50" xmlns="http://www.w3.org/2000/svg" xmlns:xlink="http://www.w3.org/1999/xlink">
<g id="graph0" class="graph" transform="scale(1 1) rotate(0) translate(4 201.5)">
<title>G</title>
<polygon fill="white" stroke="transparent" points="-4,4 -4,-201.5 494,-201.5 494,4 -4,4"/>
<!-- stack -->
<g id="node1" class="node">
<title>stack</title>
<polygon fill="none" stroke="#f0f0f0" points="8.5,-70.5 8.5,-116.5 62.5,-116.5 62.5,-70.5 8.5,-70.5"/>
<text text-anchor="start" x="23.5" y="-89.8" font-family="Times,serif" font-size="14.00">sum</text>
<polygon fill="none" stroke="black" points="62.5,-93.5 62.5,-116.5 101.5,-116.5 101.5,-93.5 62.5,-93.5"/>
<text text-anchor="start" x="66.5" y="-101.3" font-family="Times,serif" font-size="14.00">result</text>
<polygon fill="none" stroke="black" points="101.5,-93.5 101.5,-116.5 123.5,-116.5 123.5,-93.5 101.5,-93.5"/>
<text text-anchor="start" x="105.5" y="-101.3" font-family="Times,serif" font-size="14.00">27</text>
<polygon fill="none" stroke="black" points="62.5,-70.5 62.5,-93.5 101.5,-93.5 101.5,-70.5 62.5,-70.5"/>
<text text-anchor="start" x="78.5" y="-78.3" font-family="Times,serif" font-size="14.00">n</text>
<polygon fill="none" stroke="black" points="101.5,-70.5 101.5,-93.5 123.5,-93.5 123.5,-70.5 101.5,-70.5"/>
<text text-anchor="start" x="109" y="-78.3" font-family="Times,serif" font-size="14.00">7</text>
<polygon fill="none" stroke="#f0f0f0" points="8.5,-24.5 8.5,-70.5 62.5,-70.5 62.5,-24.5 8.5,-24.5"/>
<text text-anchor="start" x="12.5" y="-43.8" font-family="Times,serif" font-size="14.00">summer</text>
<polygon fill="none" stroke="black" points="62.5,-47.5 62.5,-70.5 101.5,-70.5 101.5,-47.5 62.5,-47.5"/>
<text text-anchor="start" x="66.5" y="-55.3" font-family="Times,serif" font-size="14.00">result</text>
<polygon fill="none" stroke="black" points="101.5,-47.5 101.5,-70.5 123.5,-70.5 123.5,-47.5 101.5,-47.5"/>
<polygon fill="none" stroke="black" points="62.5,-24.5 62.5,-47.5 101.5,-47.5 101.5,-24.5 62.5,-24.5"/>
<text text-anchor="start" x="78.5" y="-32.3" font-family="Times,serif" font-size="14.00">n</text>
<polygon fill="none" stroke="black" points="101.5,-24.5 101.5,-47.5 123.5,-47.5 123.5,-24.5 101.5,-24.5"/>
<text text-anchor="start" x="105.5" y="-32.3" font-family="Times,serif" font-size="14.00">10</text>
<text text-anchor="start" x="77.5" y="-10.3" font-family="Times,serif" font-size="14.00">Stack</text>
</g>
<!-- c -->
<g id="node6" class="node">
<title>c</title>
<polygon fill="none" stroke="black" points="175.5,-58.5 175.5,-83.5 244.5,-83.5 244.5,-58.5 175.5,-58.5"/>
<text text-anchor="start" x="181" y="-68.3" font-family="Times,serif" font-weight="bold" font-size="14.00">Recursive</text>
<polygon fill="none" stroke="black" points="175.5,-33.5 175.5,-58.5 234.5,-58.5 234.5,-33.5 175.5,-33.5"/>
<text text-anchor="start" x="180.5" y="-42.3" font-family="Times,serif" font-size="14.00">producer</text>
<polygon fill="none" stroke="black" points="234.5,-33.5 234.5,-58.5 244.5,-58.5 244.5,-33.5 234.5,-33.5"/>
</g>
<!-- stack&#45;&gt;c -->
<g id="edge1" class="edge">
<title>stack:c&#45;&gt;c</title>
<path fill="none" stroke="black" d="M113.5,-58.5C113.5,-58.5 134.41,-58.5 156.61,-58.5"/>
<polygon fill="black" stroke="black" points="156.83,-62 166.83,-58.5 156.83,-55 156.83,-62"/>
</g>
<!-- a -->
<g id="node2" class="node">
<title>a</title>
<polygon fill="none" stroke="#999999" points="31.5,-168.5 31.5,-193.5 100.5,-193.5 100.5,-168.5 31.5,-168.5"/>
<text text-anchor="start" x="37" y="-178.3" font-family="Times,serif" font-weight="bold" font-size="14.00" fill="#999999">Recursive</text>
<polygon fill="none" stroke="#999999" points="31.5,-143.5 31.5,-168.5 90.5,-168.5 90.5,-143.5 31.5,-143.5"/>
<text text-anchor="start" x="36.5" y="-152.3" font-family="Times,serif" font-size="14.00" fill="#999999">producer</text>
<polygon fill="none" stroke="#999999" points="90.5,-143.5 90.5,-168.5 100.5,-168.5 100.5,-143.5 90.5,-143.5"/>
</g>
<!-- at -->
<g id="node3" class="node">
<title>at</title>
<polygon fill="none" stroke="#999999" points="177.5,-167.5 177.5,-192.5 242.5,-192.5 242.5,-167.5 177.5,-167.5"/>
<text text-anchor="start" x="182.5" y="-177.3" font-family="Times,serif" font-weight="bold" font-size="14.00" fill="#999999">Producer</text>
<polygon fill="none" stroke="#999999" points="177.5,-142.5 177.5,-167.5 218.5,-167.5 218.5,-142.5 177.5,-142.5"/>
<text text-anchor="start" x="194.5" y="-151.3" font-family="Times,serif" font-size="14.00" fill="#999999">n</text>
<polygon fill="none" stroke="#999999" points="218.5,-142.5 218.5,-167.5 242.5,-167.5 242.5,-142.5 218.5,-142.5"/>
<text text-anchor="start" x="227" y="-151.3" font-family="Times,serif" font-size="14.00" fill="#999999">9</text>
<polygon fill="none" stroke="#999999" points="177.5,-117.5 177.5,-142.5 218.5,-142.5 218.5,-117.5 177.5,-117.5"/>
<text text-anchor="start" x="182.5" y="-126.3" font-family="Times,serif" font-size="14.00" fill="#999999">result</text>
<polygon fill="none" stroke="#999999" points="218.5,-117.5 218.5,-142.5 242.5,-142.5 242.5,-117.5 218.5,-117.5"/>
<text text-anchor="start" x="223.5" y="-126.3" font-family="Times,serif" font-size="14.00" fill="#999999">10</text>
</g>
<!-- a&#45;&gt;at -->
<g id="edge2" class="edge">
<title>a:c&#45;&gt;at</title>
<path fill="none" stroke="#999999" d="M96.5,-155.5C96.5,-155.5 128.79,-155.5 158.7,-155.5"/>
<polygon fill="#999999" stroke="#999999" points="158.7,-159 168.7,-155.5 158.7,-152 158.7,-159"/>
</g>
<!-- b -->
<g id="node4" class="node">
<title>b</title>
<polygon fill="none" stroke="#999999" points="296.5,-155.5 296.5,-180.5 365.5,-180.5 365.5,-155.5 296.5,-155.5"/>
<text text-anchor="start" x="302" y="-165.3" font-family="Times,serif" font-weight="bold" font-size="14.00" fill="#999999">Recursive</text>
<polygon fill="none" stroke="#999999" points="296.5,-130.5 296.5,-155.5 355.5,-155.5 355.5,-130.5 296.5,-130.5"/>
<text text-anchor="start" x="301.5" y="-139.3" font-family="Times,serif" font-size="14.00" fill="#999999">producer</text>
<polygon fill="none" stroke="#999999" points="355.5,-130.5 355.5,-155.5 365.5,-155.5 365.5,-130.5 355.5,-130.5"/>
</g>
<!-- at&#45;&gt;b -->
<!-- bt -->
<g id="node5" class="node">
<title>bt</title>
<polygon fill="none" stroke="#999999" points="417.5,-154.5 417.5,-179.5 482.5,-179.5 482.5,-154.5 417.5,-154.5"/>
<text text-anchor="start" x="422.5" y="-164.3" font-family="Times,serif" font-weight="bold" font-size="14.00" fill="#999999">Producer</text>
<polygon fill="none" stroke="#999999" points="417.5,-129.5 417.5,-154.5 458.5,-154.5 458.5,-129.5 417.5,-129.5"/>
<text text-anchor="start" x="434.5" y="-138.3" font-family="Times,serif" font-size="14.00" fill="#999999">n</text>
<polygon fill="none" stroke="#999999" points="458.5,-129.5 458.5,-154.5 482.5,-154.5 482.5,-129.5 458.5,-129.5"/>
<text text-anchor="start" x="467" y="-138.3" font-family="Times,serif" font-size="14.00" fill="#999999">8</text>
<polygon fill="none" stroke="#999999" points="417.5,-104.5 417.5,-129.5 458.5,-129.5 458.5,-104.5 417.5,-104.5"/>
<text text-anchor="start" x="422.5" y="-113.3" font-family="Times,serif" font-size="14.00" fill="#999999">result</text>
<polygon fill="none" stroke="#999999" points="458.5,-104.5 458.5,-129.5 482.5,-129.5 482.5,-104.5 458.5,-104.5"/>
<text text-anchor="start" x="463.5" y="-113.3" font-family="Times,serif" font-size="14.00" fill="#999999">19</text>
</g>
<!-- b&#45;&gt;bt -->
<g id="edge3" class="edge">
<title>b:c&#45;&gt;bt</title>
<path fill="none" stroke="#999999" d="M361.5,-142.5C361.5,-142.5 379.17,-142.5 398.59,-142.5"/>
<polygon fill="#999999" stroke="#999999" points="398.82,-146 408.82,-142.5 398.82,-139 398.82,-146"/>
</g>
<!-- ct -->
<g id="node7" class="node">
<title>ct</title>
<polygon fill="none" stroke="black" points="298.5,-57.5 298.5,-82.5 363.5,-82.5 363.5,-57.5 298.5,-57.5"/>
<text text-anchor="start" x="303.5" y="-67.3" font-family="Times,serif" font-weight="bold" font-size="14.00">Producer</text>
<polygon fill="none" stroke="black" points="298.5,-32.5 298.5,-57.5 339.5,-57.5 339.5,-32.5 298.5,-32.5"/>
<text text-anchor="start" x="315.5" y="-41.3" font-family="Times,serif" font-size="14.00">n</text>
<polygon fill="none" stroke="black" points="339.5,-32.5 339.5,-57.5 363.5,-57.5 363.5,-32.5 339.5,-32.5"/>
<text text-anchor="start" x="348" y="-41.3" font-family="Times,serif" font-size="14.00">7</text>
<polygon fill="none" stroke="black" points="298.5,-7.5 298.5,-32.5 339.5,-32.5 339.5,-7.5 298.5,-7.5"/>
<text text-anchor="start" x="303.5" y="-16.3" font-family="Times,serif" font-size="14.00">result</text>
<polygon fill="none" stroke="black" points="339.5,-7.5 339.5,-32.5 363.5,-32.5 363.5,-7.5 339.5,-7.5"/>
<text text-anchor="start" x="344.5" y="-16.3" font-family="Times,serif" font-size="14.00">27</text>
</g>
<!-- c&#45;&gt;ct -->
<g id="edge4" class="edge">
<title>c:c&#45;&gt;ct</title>
<path fill="none" stroke="black" d="M240.5,-45.5C240.5,-45.5 259.46,-45.5 279.88,-45.5"/>
<polygon fill="black" stroke="black" points="279.95,-49 289.95,-45.5 279.94,-42 279.95,-49"/>
</g>
</g>
</svg>
