<?xml version="1.0" encoding="UTF-8" standalone="no"?>
<!DOCTYPE svg PUBLIC "-//W3C//DTD SVG 1.1//EN"
 "http://www.w3.org/Graphics/SVG/1.1/DTD/svg11.dtd">
<!-- Generated by graphviz version 2.46.0 (20210118.1747)
 -->
<!-- Title: G Pages: 1 -->
<svg width="556pt" height="199pt"
 viewBox="0.00 0.00 556.00 198.50" xmlns="http://www.w3.org/2000/svg" xmlns:xlink="http://www.w3.org/1999/xlink">
<g id="graph0" class="graph" transform="scale(1 1) rotate(0) translate(4 194.5)">
<title>G</title>
<polygon fill="white" stroke="transparent" points="-4,4 -4,-194.5 552,-194.5 552,4 -4,4"/>
<!-- stack -->
<g id="node1" class="node">
<title>stack</title>
<polygon fill="none" stroke="#f0f0f0" points="8.5,-24.5 8.5,-70.5 62.5,-70.5 62.5,-24.5 8.5,-24.5"/>
<text text-anchor="start" x="12.5" y="-43.8" font-family="Times,serif" font-size="14.00">summer</text>
<polygon fill="none" stroke="black" points="62.5,-47.5 62.5,-70.5 101.5,-70.5 101.5,-47.5 62.5,-47.5"/>
<text text-anchor="start" x="66.5" y="-55.3" font-family="Times,serif" font-size="14.00">result</text>
<polygon fill="none" stroke="black" points="101.5,-47.5 101.5,-70.5 123.5,-70.5 123.5,-47.5 101.5,-47.5"/>
<polygon fill="none" stroke="black" points="62.5,-24.5 62.5,-47.5 101.5,-47.5 101.5,-24.5 62.5,-24.5"/>
<text text-anchor="start" x="78.5" y="-32.3" font-family="Times,serif" font-size="14.00">n</text>
<polygon fill="none" stroke="black" points="101.5,-24.5 101.5,-47.5 123.5,-47.5 123.5,-24.5 101.5,-24.5"/>
<text text-anchor="start" x="105.5" y="-32.3" font-family="Times,serif" font-size="14.00">10</text>
<text text-anchor="start" x="77.5" y="-10.3" font-family="Times,serif" font-size="14.00">Stack</text>
</g>
<!-- c -->
<g id="node6" class="node">
<title>c</title>
<polygon fill="none" stroke="black" points="184.5,-59.5 184.5,-84.5 253.5,-84.5 253.5,-59.5 184.5,-59.5"/>
<text text-anchor="start" x="190" y="-69.3" font-family="Times,serif" font-weight="bold" font-size="14.00">Recursive</text>
<polygon fill="none" stroke="black" points="184.5,-34.5 184.5,-59.5 243.5,-59.5 243.5,-34.5 184.5,-34.5"/>
<text text-anchor="start" x="189.5" y="-43.3" font-family="Times,serif" font-size="14.00">producer</text>
<polygon fill="none" stroke="black" points="243.5,-34.5 243.5,-59.5 253.5,-59.5 253.5,-34.5 243.5,-34.5"/>
</g>
<!-- stack&#45;&gt;c -->
<g id="edge1" class="edge">
<title>stack:c&#45;&gt;c</title>
<path fill="none" stroke="black" d="M113.5,-59.5C113.5,-59.5 139.5,-59.5 165.5,-59.5"/>
<polygon fill="black" stroke="black" points="165.8,-63 175.8,-59.5 165.8,-56 165.8,-63"/>
</g>
<!-- a -->
<g id="node2" class="node">
<title>a</title>
<polygon fill="none" stroke="#999999" points="31.5,-161.5 31.5,-186.5 100.5,-186.5 100.5,-161.5 31.5,-161.5"/>
<text text-anchor="start" x="37" y="-171.3" font-family="Times,serif" font-weight="bold" font-size="14.00" fill="#999999">Recursive</text>
<polygon fill="none" stroke="#999999" points="31.5,-136.5 31.5,-161.5 90.5,-161.5 90.5,-136.5 31.5,-136.5"/>
<text text-anchor="start" x="36.5" y="-145.3" font-family="Times,serif" font-size="14.00" fill="#999999">producer</text>
<polygon fill="none" stroke="#999999" points="90.5,-136.5 90.5,-161.5 100.5,-161.5 100.5,-136.5 90.5,-136.5"/>
</g>
<!-- at -->
<g id="node3" class="node">
<title>at</title>
<polygon fill="none" stroke="#999999" points="175.5,-160.5 175.5,-185.5 262.5,-185.5 262.5,-160.5 175.5,-160.5"/>
<text text-anchor="start" x="191.5" y="-170.3" font-family="Times,serif" font-weight="bold" font-size="14.00" fill="#999999">Producer</text>
<polygon fill="none" stroke="#999999" points="175.5,-135.5 175.5,-160.5 238.5,-160.5 238.5,-135.5 175.5,-135.5"/>
<text text-anchor="start" x="194" y="-144.3" font-family="Times,serif" font-size="14.00" fill="#999999">n &#45; 1</text>
<polygon fill="none" stroke="#999999" points="238.5,-135.5 238.5,-160.5 262.5,-160.5 262.5,-135.5 238.5,-135.5"/>
<text text-anchor="start" x="247" y="-144.3" font-family="Times,serif" font-size="14.00" fill="#999999">9</text>
<polygon fill="none" stroke="#999999" points="175.5,-110.5 175.5,-135.5 238.5,-135.5 238.5,-110.5 175.5,-110.5"/>
<text text-anchor="start" x="180.5" y="-119.3" font-family="Times,serif" font-size="14.00" fill="#999999">n + result</text>
<polygon fill="none" stroke="#999999" points="238.5,-110.5 238.5,-135.5 262.5,-135.5 262.5,-110.5 238.5,-110.5"/>
<text text-anchor="start" x="243.5" y="-119.3" font-family="Times,serif" font-size="14.00" fill="#999999">10</text>
</g>
<!-- a&#45;&gt;at -->
<g id="edge2" class="edge">
<title>a:c&#45;&gt;at</title>
<path fill="none" stroke="#999999" d="M96.5,-148.5C96.5,-148.5 126.55,-148.5 156.7,-148.5"/>
<polygon fill="#999999" stroke="#999999" points="156.89,-152 166.89,-148.5 156.89,-145 156.89,-152"/>
</g>
<!-- b -->
<g id="node4" class="node">
<title>b</title>
<polygon fill="none" stroke="#999999" points="323.5,-148.5 323.5,-173.5 392.5,-173.5 392.5,-148.5 323.5,-148.5"/>
<text text-anchor="start" x="329" y="-158.3" font-family="Times,serif" font-weight="bold" font-size="14.00" fill="#999999">Recursive</text>
<polygon fill="none" stroke="#999999" points="323.5,-123.5 323.5,-148.5 382.5,-148.5 382.5,-123.5 323.5,-123.5"/>
<text text-anchor="start" x="328.5" y="-132.3" font-family="Times,serif" font-size="14.00" fill="#999999">producer</text>
<polygon fill="none" stroke="#999999" points="382.5,-123.5 382.5,-148.5 392.5,-148.5 392.5,-123.5 382.5,-123.5"/>
</g>
<!-- at&#45;&gt;b -->
<!-- bt -->
<g id="node5" class="node">
<title>bt</title>
<polygon fill="none" stroke="#999999" points="453.5,-147.5 453.5,-172.5 540.5,-172.5 540.5,-147.5 453.5,-147.5"/>
<text text-anchor="start" x="469.5" y="-157.3" font-family="Times,serif" font-weight="bold" font-size="14.00" fill="#999999">Producer</text>
<polygon fill="none" stroke="#999999" points="453.5,-122.5 453.5,-147.5 516.5,-147.5 516.5,-122.5 453.5,-122.5"/>
<text text-anchor="start" x="472" y="-131.3" font-family="Times,serif" font-size="14.00" fill="#999999">n &#45; 1</text>
<polygon fill="none" stroke="#999999" points="516.5,-122.5 516.5,-147.5 540.5,-147.5 540.5,-122.5 516.5,-122.5"/>
<text text-anchor="start" x="525" y="-131.3" font-family="Times,serif" font-size="14.00" fill="#999999">8</text>
<polygon fill="none" stroke="#999999" points="453.5,-97.5 453.5,-122.5 516.5,-122.5 516.5,-97.5 453.5,-97.5"/>
<text text-anchor="start" x="458.5" y="-106.3" font-family="Times,serif" font-size="14.00" fill="#999999">n + result</text>
<polygon fill="none" stroke="#999999" points="516.5,-97.5 516.5,-122.5 540.5,-122.5 540.5,-97.5 516.5,-97.5"/>
<text text-anchor="start" x="521.5" y="-106.3" font-family="Times,serif" font-size="14.00" fill="#999999">19</text>
</g>
<!-- b&#45;&gt;bt -->
<g id="edge3" class="edge">
<title>b:c&#45;&gt;bt</title>
<path fill="none" stroke="#999999" d="M388.5,-135.5C388.5,-135.5 410.64,-135.5 434.78,-135.5"/>
<polygon fill="#999999" stroke="#999999" points="434.82,-139 444.82,-135.5 434.82,-132 434.82,-139"/>
</g>
<!-- ct -->
<g id="node7" class="node">
<title>ct</title>
<polygon fill="none" stroke="black" points="314.5,-58.5 314.5,-83.5 401.5,-83.5 401.5,-58.5 314.5,-58.5"/>
<text text-anchor="start" x="330.5" y="-68.3" font-family="Times,serif" font-weight="bold" font-size="14.00">Producer</text>
<polygon fill="none" stroke="black" points="314.5,-33.5 314.5,-58.5 377.5,-58.5 377.5,-33.5 314.5,-33.5"/>
<text text-anchor="start" x="333" y="-42.3" font-family="Times,serif" font-size="14.00">n &#45; 1</text>
<polygon fill="none" stroke="black" points="377.5,-33.5 377.5,-58.5 401.5,-58.5 401.5,-33.5 377.5,-33.5"/>
<text text-anchor="start" x="386" y="-42.3" font-family="Times,serif" font-size="14.00">7</text>
<polygon fill="none" stroke="black" points="314.5,-8.5 314.5,-33.5 377.5,-33.5 377.5,-8.5 314.5,-8.5"/>
<text text-anchor="start" x="319.5" y="-17.3" font-family="Times,serif" font-size="14.00">n + result</text>
<polygon fill="none" stroke="black" points="377.5,-8.5 377.5,-33.5 401.5,-33.5 401.5,-8.5 377.5,-8.5"/>
<text text-anchor="start" x="382.5" y="-17.3" font-family="Times,serif" font-size="14.00">27</text>
</g>
<!-- c&#45;&gt;ct -->
<g id="edge4" class="edge">
<title>c:c&#45;&gt;ct</title>
<path fill="none" stroke="black" d="M249.5,-46.5C249.5,-46.5 271.64,-46.5 295.78,-46.5"/>
<polygon fill="black" stroke="black" points="295.82,-50 305.82,-46.5 295.82,-43 295.82,-50"/>
</g>
</g>
</svg>
