<?xml version="1.0" encoding="UTF-8" standalone="no"?>
<!DOCTYPE svg PUBLIC "-//W3C//DTD SVG 1.1//EN"
 "http://www.w3.org/Graphics/SVG/1.1/DTD/svg11.dtd">
<!-- Generated by graphviz version 2.46.0 (20210118.1747)
 -->
<!-- Title: G Pages: 1 -->
<svg width="417pt" height="206pt"
 viewBox="0.00 0.00 417.00 205.50" xmlns="http://www.w3.org/2000/svg" xmlns:xlink="http://www.w3.org/1999/xlink">
<g id="graph0" class="graph" transform="scale(1 1) rotate(0) translate(4 201.5)">
<title>G</title>
<polygon fill="white" stroke="transparent" points="-4,4 -4,-201.5 413,-201.5 413,4 -4,4"/>
<!-- stack -->
<g id="node1" class="node">
<title>stack</title>
<polygon fill="none" stroke="#f0f0f0" points="8.5,-70.5 8.5,-116.5 62.5,-116.5 62.5,-70.5 8.5,-70.5"/>
<text text-anchor="start" x="23.5" y="-89.8" font-family="Times,serif" font-size="14.00">sum</text>
<polygon fill="none" stroke="black" points="62.5,-93.5 62.5,-116.5 101.5,-116.5 101.5,-93.5 62.5,-93.5"/>
<text text-anchor="start" x="66.5" y="-101.3" font-family="Times,serif" font-size="14.00">result</text>
<polygon fill="none" stroke="black" points="101.5,-93.5 101.5,-116.5 123.5,-116.5 123.5,-93.5 101.5,-93.5"/>
<text text-anchor="start" x="105.5" y="-101.3" font-family="Times,serif" font-size="14.00">19</text>
<polygon fill="none" stroke="black" points="62.5,-70.5 62.5,-93.5 101.5,-93.5 101.5,-70.5 62.5,-70.5"/>
<text text-anchor="start" x="78.5" y="-78.3" font-family="Times,serif" font-size="14.00">n</text>
<polygon fill="none" stroke="black" points="101.5,-70.5 101.5,-93.5 123.5,-93.5 123.5,-70.5 101.5,-70.5"/>
<text text-anchor="start" x="109" y="-78.3" font-family="Times,serif" font-size="14.00">8</text>
<polygon fill="none" stroke="#f0f0f0" points="8.5,-24.5 8.5,-70.5 62.5,-70.5 62.5,-24.5 8.5,-24.5"/>
<text text-anchor="start" x="12.5" y="-43.8" font-family="Times,serif" font-size="14.00">summer</text>
<polygon fill="none" stroke="black" points="62.5,-47.5 62.5,-70.5 101.5,-70.5 101.5,-47.5 62.5,-47.5"/>
<text text-anchor="start" x="66.5" y="-55.3" font-family="Times,serif" font-size="14.00">result</text>
<polygon fill="none" stroke="black" points="101.5,-47.5 101.5,-70.5 123.5,-70.5 123.5,-47.5 101.5,-47.5"/>
<polygon fill="none" stroke="black" points="62.5,-24.5 62.5,-47.5 101.5,-47.5 101.5,-24.5 62.5,-24.5"/>
<text text-anchor="start" x="78.5" y="-32.3" font-family="Times,serif" font-size="14.00">n</text>
<polygon fill="none" stroke="black" points="101.5,-24.5 101.5,-47.5 123.5,-47.5 123.5,-24.5 101.5,-24.5"/>
<text text-anchor="start" x="105.5" y="-32.3" font-family="Times,serif" font-size="14.00">10</text>
<text text-anchor="start" x="77.5" y="-10.3" font-family="Times,serif" font-size="14.00">Stack</text>
</g>
<!-- b -->
<g id="node4" class="node">
<title>b</title>
<polygon fill="none" stroke="black" points="184.5,-58.5 184.5,-83.5 253.5,-83.5 253.5,-58.5 184.5,-58.5"/>
<text text-anchor="start" x="190" y="-68.3" font-family="Times,serif" font-weight="bold" font-size="14.00">Recursive</text>
<polygon fill="none" stroke="black" points="184.5,-33.5 184.5,-58.5 243.5,-58.5 243.5,-33.5 184.5,-33.5"/>
<text text-anchor="start" x="189.5" y="-42.3" font-family="Times,serif" font-size="14.00">producer</text>
<polygon fill="none" stroke="black" points="243.5,-33.5 243.5,-58.5 253.5,-58.5 253.5,-33.5 243.5,-33.5"/>
</g>
<!-- stack&#45;&gt;b -->
<g id="edge1" class="edge">
<title>stack:c&#45;&gt;b</title>
<path fill="none" stroke="black" d="M113.5,-58.5C113.5,-58.5 139.5,-58.5 165.5,-58.5"/>
<polygon fill="black" stroke="black" points="165.8,-62 175.8,-58.5 165.8,-55 165.8,-62"/>
</g>
<!-- a -->
<g id="node2" class="node">
<title>a</title>
<polygon fill="none" stroke="#999999" points="31.5,-168.5 31.5,-193.5 100.5,-193.5 100.5,-168.5 31.5,-168.5"/>
<text text-anchor="start" x="37" y="-178.3" font-family="Times,serif" font-weight="bold" font-size="14.00" fill="#999999">Recursive</text>
<polygon fill="none" stroke="#999999" points="31.5,-143.5 31.5,-168.5 90.5,-168.5 90.5,-143.5 31.5,-143.5"/>
<text text-anchor="start" x="36.5" y="-152.3" font-family="Times,serif" font-size="14.00" fill="#999999">producer</text>
<polygon fill="none" stroke="#999999" points="90.5,-143.5 90.5,-168.5 100.5,-168.5 100.5,-143.5 90.5,-143.5"/>
</g>
<!-- at -->
<g id="node3" class="node">
<title>at</title>
<polygon fill="none" stroke="#999999" points="175.5,-167.5 175.5,-192.5 262.5,-192.5 262.5,-167.5 175.5,-167.5"/>
<text text-anchor="start" x="191.5" y="-177.3" font-family="Times,serif" font-weight="bold" font-size="14.00" fill="#999999">Producer</text>
<polygon fill="none" stroke="#999999" points="175.5,-142.5 175.5,-167.5 238.5,-167.5 238.5,-142.5 175.5,-142.5"/>
<text text-anchor="start" x="194" y="-151.3" font-family="Times,serif" font-size="14.00" fill="#999999">n &#45; 1</text>
<polygon fill="none" stroke="#999999" points="238.5,-142.5 238.5,-167.5 262.5,-167.5 262.5,-142.5 238.5,-142.5"/>
<text text-anchor="start" x="247" y="-151.3" font-family="Times,serif" font-size="14.00" fill="#999999">9</text>
<polygon fill="none" stroke="#999999" points="175.5,-117.5 175.5,-142.5 238.5,-142.5 238.5,-117.5 175.5,-117.5"/>
<text text-anchor="start" x="180.5" y="-126.3" font-family="Times,serif" font-size="14.00" fill="#999999">n + result</text>
<polygon fill="none" stroke="#999999" points="238.5,-117.5 238.5,-142.5 262.5,-142.5 262.5,-117.5 238.5,-117.5"/>
<text text-anchor="start" x="243.5" y="-126.3" font-family="Times,serif" font-size="14.00" fill="#999999">10</text>
</g>
<!-- a&#45;&gt;at -->
<g id="edge2" class="edge">
<title>a:c&#45;&gt;at</title>
<path fill="none" stroke="#999999" d="M96.5,-155.5C96.5,-155.5 126.55,-155.5 156.7,-155.5"/>
<polygon fill="#999999" stroke="#999999" points="156.89,-159 166.89,-155.5 156.89,-152 156.89,-159"/>
</g>
<!-- bt -->
<g id="node5" class="node">
<title>bt</title>
<polygon fill="none" stroke="black" points="314.5,-57.5 314.5,-82.5 401.5,-82.5 401.5,-57.5 314.5,-57.5"/>
<text text-anchor="start" x="330.5" y="-67.3" font-family="Times,serif" font-weight="bold" font-size="14.00">Producer</text>
<polygon fill="none" stroke="black" points="314.5,-32.5 314.5,-57.5 377.5,-57.5 377.5,-32.5 314.5,-32.5"/>
<text text-anchor="start" x="333" y="-41.3" font-family="Times,serif" font-size="14.00">n &#45; 1</text>
<polygon fill="none" stroke="black" points="377.5,-32.5 377.5,-57.5 401.5,-57.5 401.5,-32.5 377.5,-32.5"/>
<text text-anchor="start" x="386" y="-41.3" font-family="Times,serif" font-size="14.00">8</text>
<polygon fill="none" stroke="black" points="314.5,-7.5 314.5,-32.5 377.5,-32.5 377.5,-7.5 314.5,-7.5"/>
<text text-anchor="start" x="319.5" y="-16.3" font-family="Times,serif" font-size="14.00">n + result</text>
<polygon fill="none" stroke="black" points="377.5,-7.5 377.5,-32.5 401.5,-32.5 401.5,-7.5 377.5,-7.5"/>
<text text-anchor="start" x="382.5" y="-16.3" font-family="Times,serif" font-size="14.00">19</text>
</g>
<!-- b&#45;&gt;bt -->
<g id="edge3" class="edge">
<title>b:c&#45;&gt;bt</title>
<path fill="none" stroke="black" d="M249.5,-45.5C249.5,-45.5 271.64,-45.5 295.78,-45.5"/>
<polygon fill="black" stroke="black" points="295.82,-49 305.82,-45.5 295.82,-42 295.82,-49"/>
</g>
</g>
</svg>
