<?xml version="1.0" encoding="UTF-8" standalone="no"?>
<!DOCTYPE svg PUBLIC "-//W3C//DTD SVG 1.1//EN"
 "http://www.w3.org/Graphics/SVG/1.1/DTD/svg11.dtd">
<!-- Generated by graphviz version 2.46.0 (20210118.1747)
 -->
<!-- Title: G Pages: 1 -->
<svg width="171pt" height="218pt"
 viewBox="0.00 0.00 171.00 218.00" xmlns="http://www.w3.org/2000/svg" xmlns:xlink="http://www.w3.org/1999/xlink">
<g id="graph0" class="graph" transform="scale(1 1) rotate(0) translate(4 214)">
<title>G</title>
<polygon fill="white" stroke="transparent" points="-4,4 -4,-214 167,-214 167,4 -4,4"/>
<!-- a -->
<g id="node1" class="node">
<title>a</title>
<polygon fill="none" stroke="black" points="18,-102 18,-108 24,-108 24,-102 18,-102"/>
<polygon fill="none" stroke="black" points="24,-102 24,-108 30,-108 30,-102 24,-102"/>
<polygon fill="none" stroke="black" points="30,-102 30,-108 36,-108 36,-102 30,-102"/>
</g>
<!-- b -->
<g id="node2" class="node">
<title>b</title>
<polygon fill="none" stroke="black" points="98.5,-181 98.5,-206 155.5,-206 155.5,-181 98.5,-181"/>
<text text-anchor="start" x="105.5" y="-190.8" font-family="Times,serif" font-weight="bold" font-size="14.00">Integer</text>
<polygon fill="none" stroke="black" points="98.5,-156 98.5,-181 138.5,-181 138.5,-156 98.5,-156"/>
<text text-anchor="start" x="103.5" y="-164.8" font-family="Times,serif" font-size="14.00">value</text>
<polygon fill="none" stroke="black" points="138.5,-156 138.5,-181 155.5,-181 155.5,-156 138.5,-156"/>
<text text-anchor="start" x="143.5" y="-164.8" font-family="Times,serif" font-size="14.00">1</text>
</g>
<!-- a&#45;&gt;b -->
<g id="edge1" class="edge">
<title>a:c&#45;&gt;b</title>
<path fill="none" stroke="black" d="M22,-105C22,-105 53.43,-128.08 81.65,-148.8"/>
<polygon fill="black" stroke="black" points="79.75,-151.75 89.88,-154.85 83.89,-146.11 79.75,-151.75"/>
</g>
<!-- c -->
<g id="node3" class="node">
<title>c</title>
<polygon fill="none" stroke="black" points="98.5,-105 98.5,-130 155.5,-130 155.5,-105 98.5,-105"/>
<text text-anchor="start" x="105.5" y="-114.8" font-family="Times,serif" font-weight="bold" font-size="14.00">Integer</text>
<polygon fill="none" stroke="black" points="98.5,-80 98.5,-105 138.5,-105 138.5,-80 98.5,-80"/>
<text text-anchor="start" x="103.5" y="-88.8" font-family="Times,serif" font-size="14.00">value</text>
<polygon fill="none" stroke="black" points="138.5,-80 138.5,-105 155.5,-105 155.5,-80 138.5,-80"/>
<text text-anchor="start" x="143.5" y="-88.8" font-family="Times,serif" font-size="14.00">2</text>
</g>
<!-- a&#45;&gt;c -->
<g id="edge2" class="edge">
<title>a:c&#45;&gt;c</title>
<path fill="none" stroke="black" d="M28,-105C28,-105 54.2,-105 79.44,-105"/>
<polygon fill="black" stroke="black" points="79.75,-108.5 89.75,-105 79.75,-101.5 79.75,-108.5"/>
</g>
<!-- d -->
<g id="node4" class="node">
<title>d</title>
<polygon fill="none" stroke="black" points="98.5,-29 98.5,-54 155.5,-54 155.5,-29 98.5,-29"/>
<text text-anchor="start" x="105.5" y="-38.8" font-family="Times,serif" font-weight="bold" font-size="14.00">Integer</text>
<polygon fill="none" stroke="black" points="98.5,-4 98.5,-29 138.5,-29 138.5,-4 98.5,-4"/>
<text text-anchor="start" x="103.5" y="-12.8" font-family="Times,serif" font-size="14.00">value</text>
<polygon fill="none" stroke="black" points="138.5,-4 138.5,-29 155.5,-29 155.5,-4 138.5,-4"/>
<text text-anchor="start" x="143.5" y="-12.8" font-family="Times,serif" font-size="14.00">3</text>
</g>
<!-- a&#45;&gt;d -->
<g id="edge3" class="edge">
<title>a:c&#45;&gt;d</title>
<path fill="none" stroke="black" d="M34,-105C34,-105 58.69,-84.5 82.41,-64.79"/>
<polygon fill="black" stroke="black" points="84.93,-67.25 90.39,-58.17 80.46,-61.86 84.93,-67.25"/>
</g>
</g>
</svg>
