<?xml version="1.0" encoding="UTF-8" standalone="no"?>
<!DOCTYPE svg PUBLIC "-//W3C//DTD SVG 1.1//EN"
 "http://www.w3.org/Graphics/SVG/1.1/DTD/svg11.dtd">
<!-- Generated by graphviz version 2.46.0 (20210118.1747)
 -->
<!-- Title: G Pages: 1 -->
<svg width="242pt" height="332pt"
 viewBox="0.00 0.00 242.00 332.00" xmlns="http://www.w3.org/2000/svg" xmlns:xlink="http://www.w3.org/1999/xlink">
<g id="graph0" class="graph" transform="scale(1 1) rotate(0) translate(4 328)">
<title>G</title>
<polygon fill="white" stroke="transparent" points="-4,4 -4,-328 238,-328 238,4 -4,4"/>
<!-- p1 -->
<g id="node1" class="node">
<title>p1</title>
<text text-anchor="middle" x="63" y="-86.3" font-family="Times,serif" font-size="14.00">+</text>
</g>
<!-- 0 -->
<g id="node5" class="node">
<title>0</title>
<text text-anchor="middle" x="27" y="-14.3" font-family="Times,serif" font-size="14.00">0</text>
</g>
<!-- p1&#45;&gt;0 -->
<g id="edge1" class="edge">
<title>p1&#45;&gt;0</title>
<path fill="none" stroke="black" d="M54.1,-71.7C48.52,-60.85 41.36,-46.92 35.8,-36.1"/>
</g>
<!-- 1 -->
<g id="node6" class="node">
<title>1</title>
<text text-anchor="middle" x="99" y="-14.3" font-family="Times,serif" font-size="14.00">1</text>
</g>
<!-- p1&#45;&gt;1 -->
<g id="edge2" class="edge">
<title>p1&#45;&gt;1</title>
<path fill="none" stroke="black" d="M71.9,-71.7C77.48,-60.85 84.64,-46.92 90.2,-36.1"/>
</g>
<!-- p2 -->
<g id="node2" class="node">
<title>p2</title>
<text text-anchor="middle" x="99" y="-158.3" font-family="Times,serif" font-size="14.00">+</text>
</g>
<!-- p2&#45;&gt;p1 -->
<g id="edge3" class="edge">
<title>p2&#45;&gt;p1</title>
<path fill="none" stroke="black" d="M90.1,-143.7C84.52,-132.85 77.36,-118.92 71.8,-108.1"/>
</g>
<!-- 2 -->
<g id="node7" class="node">
<title>2</title>
<text text-anchor="middle" x="135" y="-86.3" font-family="Times,serif" font-size="14.00">2</text>
</g>
<!-- p2&#45;&gt;2 -->
<g id="edge4" class="edge">
<title>p2&#45;&gt;2</title>
<path fill="none" stroke="black" d="M107.9,-143.7C113.48,-132.85 120.64,-118.92 126.2,-108.1"/>
</g>
<!-- p3 -->
<g id="node3" class="node">
<title>p3</title>
<text text-anchor="middle" x="135" y="-230.3" font-family="Times,serif" font-size="14.00">+</text>
</g>
<!-- p3&#45;&gt;p2 -->
<g id="edge5" class="edge">
<title>p3&#45;&gt;p2</title>
<path fill="none" stroke="black" d="M126.1,-215.7C120.52,-204.85 113.36,-190.92 107.8,-180.1"/>
</g>
<!-- 3 -->
<g id="node8" class="node">
<title>3</title>
<text text-anchor="middle" x="171" y="-158.3" font-family="Times,serif" font-size="14.00">3</text>
</g>
<!-- p3&#45;&gt;3 -->
<g id="edge6" class="edge">
<title>p3&#45;&gt;3</title>
<path fill="none" stroke="black" d="M143.9,-215.7C149.48,-204.85 156.64,-190.92 162.2,-180.1"/>
</g>
<!-- p4 -->
<g id="node4" class="node">
<title>p4</title>
<text text-anchor="middle" x="171" y="-302.3" font-family="Times,serif" font-size="14.00">+</text>
</g>
<!-- p4&#45;&gt;p3 -->
<g id="edge7" class="edge">
<title>p4&#45;&gt;p3</title>
<path fill="none" stroke="black" d="M162.1,-287.7C156.52,-276.85 149.36,-262.92 143.8,-252.1"/>
</g>
<!-- 4 -->
<g id="node9" class="node">
<title>4</title>
<text text-anchor="middle" x="207" y="-230.3" font-family="Times,serif" font-size="14.00">4</text>
</g>
<!-- p4&#45;&gt;4 -->
<g id="edge8" class="edge">
<title>p4&#45;&gt;4</title>
<path fill="none" stroke="black" d="M179.9,-287.7C185.48,-276.85 192.64,-262.92 198.2,-252.1"/>
</g>
</g>
</svg>
