<?xml version="1.0" encoding="UTF-8" standalone="no"?>
<!DOCTYPE svg PUBLIC "-//W3C//DTD SVG 1.1//EN"
 "http://www.w3.org/Graphics/SVG/1.1/DTD/svg11.dtd">
<!-- Generated by graphviz version 2.46.0 (20210118.1747)
 -->
<!-- Title: G Pages: 1 -->
<svg width="566pt" height="260pt"
 viewBox="0.00 0.00 566.00 260.00" xmlns="http://www.w3.org/2000/svg" xmlns:xlink="http://www.w3.org/1999/xlink">
<g id="graph0" class="graph" transform="scale(1 1) rotate(0) translate(4 256)">
<title>G</title>
<polygon fill="white" stroke="transparent" points="-4,4 -4,-256 562,-256 562,4 -4,4"/>
<!-- p1 -->
<g id="node1" class="node">
<title>p1</title>
<text text-anchor="middle" x="99" y="-86.3" font-family="Times,serif" font-size="14.00">+</text>
</g>
<!-- z1 -->
<g id="node8" class="node">
<title>z1</title>
<text text-anchor="middle" x="27" y="-14.3" font-family="Times,serif" font-size="14.00">0</text>
</g>
<!-- p1&#45;&gt;z1 -->
<g id="edge1" class="edge">
<title>p1&#45;&gt;z1</title>
<path fill="none" stroke="black" d="M81.2,-71.7C70.04,-60.85 55.71,-46.92 44.59,-36.1"/>
</g>
<!-- 1 -->
<g id="node12" class="node">
<title>1</title>
<text text-anchor="middle" x="99" y="-14.3" font-family="Times,serif" font-size="14.00">1</text>
</g>
<!-- p1&#45;&gt;1 -->
<g id="edge2" class="edge">
<title>p1&#45;&gt;1</title>
<path fill="none" stroke="black" d="M99,-71.7C99,-60.85 99,-46.92 99,-36.1"/>
</g>
<!-- p2 -->
<g id="node2" class="node">
<title>p2</title>
<text text-anchor="middle" x="207" y="-86.3" font-family="Times,serif" font-size="14.00">+</text>
</g>
<!-- z2 -->
<g id="node9" class="node">
<title>z2</title>
<text text-anchor="middle" x="171" y="-14.3" font-family="Times,serif" font-size="14.00">0</text>
</g>
<!-- p2&#45;&gt;z2 -->
<g id="edge3" class="edge">
<title>p2&#45;&gt;z2</title>
<path fill="none" stroke="black" d="M198.1,-71.7C192.52,-60.85 185.36,-46.92 179.8,-36.1"/>
</g>
<!-- 2 -->
<g id="node13" class="node">
<title>2</title>
<text text-anchor="middle" x="243" y="-14.3" font-family="Times,serif" font-size="14.00">2</text>
</g>
<!-- p2&#45;&gt;2 -->
<g id="edge4" class="edge">
<title>p2&#45;&gt;2</title>
<path fill="none" stroke="black" d="M215.9,-71.7C221.48,-60.85 228.64,-46.92 234.2,-36.1"/>
</g>
<!-- p3 -->
<g id="node3" class="node">
<title>p3</title>
<text text-anchor="middle" x="351" y="-86.3" font-family="Times,serif" font-size="14.00">+</text>
</g>
<!-- z3 -->
<g id="node10" class="node">
<title>z3</title>
<text text-anchor="middle" x="315" y="-14.3" font-family="Times,serif" font-size="14.00">0</text>
</g>
<!-- p3&#45;&gt;z3 -->
<g id="edge5" class="edge">
<title>p3&#45;&gt;z3</title>
<path fill="none" stroke="black" d="M342.1,-71.7C336.52,-60.85 329.36,-46.92 323.8,-36.1"/>
</g>
<!-- 3 -->
<g id="node14" class="node">
<title>3</title>
<text text-anchor="middle" x="387" y="-14.3" font-family="Times,serif" font-size="14.00">3</text>
</g>
<!-- p3&#45;&gt;3 -->
<g id="edge6" class="edge">
<title>p3&#45;&gt;3</title>
<path fill="none" stroke="black" d="M359.9,-71.7C365.48,-60.85 372.64,-46.92 378.2,-36.1"/>
</g>
<!-- p4 -->
<g id="node4" class="node">
<title>p4</title>
<text text-anchor="middle" x="459" y="-86.3" font-family="Times,serif" font-size="14.00">+</text>
</g>
<!-- z4 -->
<g id="node11" class="node">
<title>z4</title>
<text text-anchor="middle" x="459" y="-14.3" font-family="Times,serif" font-size="14.00">0</text>
</g>
<!-- p4&#45;&gt;z4 -->
<g id="edge7" class="edge">
<title>p4&#45;&gt;z4</title>
<path fill="none" stroke="black" d="M459,-71.7C459,-60.85 459,-46.92 459,-36.1"/>
</g>
<!-- 4 -->
<g id="node15" class="node">
<title>4</title>
<text text-anchor="middle" x="531" y="-14.3" font-family="Times,serif" font-size="14.00">4</text>
</g>
<!-- p4&#45;&gt;4 -->
<g id="edge8" class="edge">
<title>p4&#45;&gt;4</title>
<path fill="none" stroke="black" d="M476.8,-71.7C487.96,-60.85 502.29,-46.92 513.41,-36.1"/>
</g>
<!-- p5 -->
<g id="node5" class="node">
<title>p5</title>
<text text-anchor="middle" x="207" y="-158.3" font-family="Times,serif" font-size="14.00">+</text>
</g>
<!-- p5&#45;&gt;p1 -->
<g id="edge9" class="edge">
<title>p5&#45;&gt;p1</title>
<path fill="none" stroke="black" d="M180.58,-143.88C163.84,-133.03 142.28,-119.05 125.52,-108.19"/>
</g>
<!-- p5&#45;&gt;p2 -->
<g id="edge10" class="edge">
<title>p5&#45;&gt;p2</title>
<path fill="none" stroke="black" d="M207,-143.7C207,-132.85 207,-118.92 207,-108.1"/>
</g>
<!-- p6 -->
<g id="node6" class="node">
<title>p6</title>
<text text-anchor="middle" x="351" y="-158.3" font-family="Times,serif" font-size="14.00">+</text>
</g>
<!-- p6&#45;&gt;p3 -->
<g id="edge11" class="edge">
<title>p6&#45;&gt;p3</title>
<path fill="none" stroke="black" d="M351,-143.7C351,-132.85 351,-118.92 351,-108.1"/>
</g>
<!-- p6&#45;&gt;p4 -->
<g id="edge12" class="edge">
<title>p6&#45;&gt;p4</title>
<path fill="none" stroke="black" d="M377.42,-143.88C394.16,-133.03 415.72,-119.05 432.48,-108.19"/>
</g>
<!-- p7 -->
<g id="node7" class="node">
<title>p7</title>
<text text-anchor="middle" x="279" y="-230.3" font-family="Times,serif" font-size="14.00">+</text>
</g>
<!-- p7&#45;&gt;p5 -->
<g id="edge13" class="edge">
<title>p7&#45;&gt;p5</title>
<path fill="none" stroke="black" d="M261.2,-215.7C250.04,-204.85 235.71,-190.92 224.59,-180.1"/>
</g>
<!-- p7&#45;&gt;p6 -->
<g id="edge14" class="edge">
<title>p7&#45;&gt;p6</title>
<path fill="none" stroke="black" d="M296.8,-215.7C307.96,-204.85 322.29,-190.92 333.41,-180.1"/>
</g>
</g>
</svg>
