<?xml version="1.0" encoding="UTF-8" standalone="no"?>
<!DOCTYPE svg PUBLIC "-//W3C//DTD SVG 1.1//EN"
 "http://www.w3.org/Graphics/SVG/1.1/DTD/svg11.dtd">
<!-- Generated by graphviz version 2.44.1 (20200629.0846)
 -->
<!-- Title: G Pages: 1 -->
<svg width="134pt" height="116pt"
 viewBox="0.00 0.00 134.00 116.00" xmlns="http://www.w3.org/2000/svg" xmlns:xlink="http://www.w3.org/1999/xlink">
<g id="graph0" class="graph" transform="scale(1 1) rotate(0) translate(4 112)">
<title>G</title>
<polygon fill="white" stroke="transparent" points="-4,4 -4,-112 130,-112 130,4 -4,4"/>
<!-- Dog -->
<g id="node1" class="node">
<title>Dog</title>
<ellipse fill="none" stroke="black" cx="27" cy="-18" rx="27" ry="18"/>
<text text-anchor="middle" x="27" y="-14.3" font-family="Times,serif" font-size="14.00">Dog</text>
</g>
<!-- Animal -->
<g id="node2" class="node">
<title>Animal</title>
<ellipse fill="none" stroke="black" cx="63" cy="-90" rx="37.89" ry="18"/>
<text text-anchor="middle" x="63" y="-86.3" font-family="Times,serif" font-size="14.00">Animal</text>
</g>
<!-- Dog&#45;&gt;Animal -->
<g id="edge1" class="edge">
<title>Dog&#45;&gt;Animal</title>
<path fill="none" stroke="black" d="M35.35,-35.24C39.65,-43.6 44.99,-53.98 49.83,-63.39"/>
<polygon fill="black" stroke="black" points="46.76,-65.07 54.45,-72.37 52.98,-61.87 46.76,-65.07"/>
</g>
<!-- Cat -->
<g id="node3" class="node">
<title>Cat</title>
<ellipse fill="none" stroke="black" cx="99" cy="-18" rx="27" ry="18"/>
<text text-anchor="middle" x="99" y="-14.3" font-family="Times,serif" font-size="14.00">Cat</text>
</g>
<!-- Cat&#45;&gt;Animal -->
<g id="edge2" class="edge">
<title>Cat&#45;&gt;Animal</title>
<path fill="none" stroke="black" d="M90.65,-35.24C86.35,-43.6 81.01,-53.98 76.17,-63.39"/>
<polygon fill="black" stroke="black" points="73.02,-61.87 71.55,-72.37 79.24,-65.07 73.02,-61.87"/>
</g>
</g>
</svg>
