<?xml version="1.0" encoding="UTF-8" standalone="no"?>
<!DOCTYPE svg PUBLIC "-//W3C//DTD SVG 1.1//EN"
 "http://www.w3.org/Graphics/SVG/1.1/DTD/svg11.dtd">
<!-- Generated by graphviz version 2.44.1 (20200629.0846)
 -->
<!-- Title: G Pages: 1 -->
<svg width="579pt" height="220pt"
 viewBox="0.00 0.00 578.69 220.00" xmlns="http://www.w3.org/2000/svg" xmlns:xlink="http://www.w3.org/1999/xlink">
<g id="graph0" class="graph" transform="scale(1 1) rotate(0) translate(4 216)">
<title>G</title>
<polygon fill="white" stroke="transparent" points="-4,4 -4,-216 574.69,-216 574.69,4 -4,4"/>
<g id="clust1" class="cluster">
<title>cluster_0</title>
<polygon fill="none" stroke="black" points="173,-80 173,-204 559,-204 559,-80 173,-80"/>
</g>
<g id="clust2" class="cluster">
<title>cluster_1</title>
<polygon fill="none" stroke="black" points="8,-8 8,-132 165,-132 165,-8 8,-8"/>
</g>
<!-- b -->
<g id="node1" class="node">
<title>b</title>
<ellipse fill="none" stroke="black" cx="462" cy="-106" rx="89.08" ry="18"/>
<text text-anchor="middle" x="462" y="-102.3" font-family="Times,serif" font-size="14.00">Circle::equals(Object)</text>
</g>
<!-- a -->
<g id="node2" class="node">
<title>a</title>
<ellipse fill="none" stroke="black" cx="460" cy="-178" rx="90.98" ry="18"/>
<text text-anchor="middle" x="460" y="-174.3" font-family="Times,serif" font-size="14.00">Object::equals(Object)</text>
</g>
<!-- b&#45;&gt;a -->
<g id="edge1" class="edge">
<title>b&#45;&gt;a</title>
<path fill="none" stroke="black" d="M461.51,-124.3C461.29,-132.02 461.02,-141.29 460.77,-149.89"/>
<polygon fill="black" stroke="black" points="457.28,-149.8 460.49,-159.9 464.27,-150 457.28,-149.8"/>
</g>
<!-- c -->
<g id="node3" class="node">
<title>c</title>
<ellipse fill="none" stroke="black" cx="268" cy="-106" rx="87.18" ry="18"/>
<text text-anchor="middle" x="268" y="-102.3" font-family="Times,serif" font-size="14.00">Circle::equals(Circle)</text>
</g>
<!-- Circle -->
<g id="node4" class="node">
<title>Circle</title>
<ellipse fill="none" stroke="black" cx="48" cy="-34" rx="32.49" ry="18"/>
<text text-anchor="middle" x="48" y="-30.3" font-family="Times,serif" font-size="14.00">Circle</text>
</g>
<!-- Circle&#45;&gt;b -->
<g id="edge4" class="edge">
<title>Circle&#45;&gt;b</title>
<path fill="none" stroke="black" stroke-dasharray="5,2" d="M72.49,-46.26C78.14,-48.48 84.2,-50.56 90,-52 208.81,-81.48 243.47,-58.59 364,-80 380.08,-82.86 397.41,-86.94 412.96,-90.97"/>
</g>
<!-- Circle&#45;&gt;c -->
<g id="edge5" class="edge">
<title>Circle&#45;&gt;c</title>
<path fill="none" stroke="black" stroke-dasharray="5,2" d="M73.17,-45.64C78.68,-47.84 84.51,-50.08 90,-52 132.45,-66.87 181.49,-81.27 217.34,-91.3"/>
</g>
<!-- Object -->
<g id="node5" class="node">
<title>Object</title>
<ellipse fill="none" stroke="black" cx="123" cy="-106" rx="34.39" ry="18"/>
<text text-anchor="middle" x="123" y="-102.3" font-family="Times,serif" font-size="14.00">Object</text>
</g>
<!-- Circle&#45;&gt;Object -->
<g id="edge2" class="edge">
<title>Circle&#45;&gt;Object</title>
<path fill="none" stroke="black" d="M63.91,-49.85C74.18,-59.43 87.73,-72.08 99.26,-82.84"/>
<polygon fill="black" stroke="black" points="97.16,-85.67 106.86,-89.93 101.94,-80.55 97.16,-85.67"/>
</g>
<!-- Object&#45;&gt;a -->
<g id="edge6" class="edge">
<title>Object&#45;&gt;a</title>
<path fill="none" stroke="black" stroke-dasharray="5,2" d="M144.29,-120.56C151.84,-124.82 160.56,-129.15 169,-132 236.08,-154.65 315.75,-165.96 374.76,-171.58"/>
</g>
<!-- Point -->
<g id="node6" class="node">
<title>Point</title>
<ellipse fill="none" stroke="black" cx="128" cy="-34" rx="29.5" ry="18"/>
<text text-anchor="middle" x="128" y="-30.3" font-family="Times,serif" font-size="14.00">Point</text>
</g>
<!-- Point&#45;&gt;a -->
<g id="edge7" class="edge">
<title>Point&#45;&gt;a</title>
<path fill="none" stroke="black" stroke-dasharray="5,2" d="M157.21,-35.83C249.92,-38.75 533.02,-50.07 560,-80 575.47,-97.17 572.55,-112.59 560,-132 550.23,-147.11 534.05,-157.19 517.52,-163.91"/>
</g>
<!-- Point&#45;&gt;Object -->
<g id="edge3" class="edge">
<title>Point&#45;&gt;Object</title>
<path fill="none" stroke="black" d="M126.76,-52.3C126.21,-60.02 125.55,-69.29 124.94,-77.89"/>
<polygon fill="black" stroke="black" points="121.44,-77.67 124.22,-87.9 128.43,-78.17 121.44,-77.67"/>
</g>
</g>
</svg>
