<?xml version="1.0" encoding="UTF-8" standalone="no"?>
<!DOCTYPE svg PUBLIC "-//W3C//DTD SVG 1.1//EN"
 "http://www.w3.org/Graphics/SVG/1.1/DTD/svg11.dtd">
<!-- Generated by graphviz version 2.49.3 (20211023.0002)
 -->
<!-- Title: G Pages: 1 -->
<svg width="224pt" height="209pt"
 viewBox="0.00 0.00 224.00 209.00" xmlns="http://www.w3.org/2000/svg" xmlns:xlink="http://www.w3.org/1999/xlink">
<g id="graph0" class="graph" transform="scale(1 1) rotate(0) translate(4 205)">
<title>G</title>
<polygon fill="white" stroke="transparent" points="-4,4 -4,-205 220,-205 220,4 -4,4"/>
<g id="clust1" class="cluster">
<title>cluster_0</title>
<polygon fill="none" stroke="black" points="8,-65 8,-193 208,-193 208,-65 8,-65"/>
</g>
<!-- stack -->
<g id="node1" class="node">
<title>stack</title>
<polygon fill="none" stroke="#f0f0f0" points="36,-25 36,-48 49,-48 49,-25 36,-25"/>
<text text-anchor="start" x="40" y="-32.8" font-family="Times,serif" font-size="14.00">f</text>
<polygon fill="none" stroke="black" points="49,-25 49,-48 78,-48 78,-25 49,-25"/>
<text text-anchor="start" x="53" y="-32.8" font-family="Times,serif" font-size="14.00">this</text>
<polygon fill="none" stroke="black" points="78,-25 78,-48 87,-48 87,-25 78,-25"/>
<text text-anchor="start" x="52" y="-10.8" font-family="Times,serif" font-size="14.00">Stack</text>
</g>
<!-- b -->
<g id="node2" class="node">
<title>b</title>
<polygon fill="none" stroke="black" points="161,-24 161,-49 181,-49 181,-24 161,-24"/>
<text text-anchor="start" x="166" y="-33.8" font-family="Times,serif" font-weight="bold" font-size="14.00">B</text>
</g>
<!-- stack&#45;&gt;b -->
<g id="edge1" class="edge">
<title>stack:c&#45;&gt;b</title>
<path fill="none" stroke="black" d="M84,-37C84,-37 110.13,-37 133.59,-37"/>
<polygon fill="black" stroke="black" points="133.73,-40.5 143.73,-37 133.73,-33.5 133.73,-40.5"/>
</g>
<!-- bc -->
<g id="node3" class="node">
<title>bc</title>
<polygon fill="none" stroke="black" points="150,-156 150,-181 192,-181 192,-156 150,-156"/>
<text text-anchor="start" x="155" y="-165.8" font-family="Times,serif" font-weight="bold" font-size="14.00">Class</text>
<polygon fill="none" stroke="black" points="150,-131 150,-156 171,-156 171,-131 150,-131"/>
<text text-anchor="start" x="157" y="-139.8" font-family="Times,serif" font-size="14.00">x</text>
<polygon fill="none" stroke="black" points="171,-131 171,-156 192,-156 192,-131 171,-131"/>
<text text-anchor="start" x="178" y="-139.8" font-family="Times,serif" font-size="14.00">0</text>
</g>
<!-- ac -->
<g id="node4" class="node">
<title>ac</title>
<polygon fill="none" stroke="black" points="150,-78 150,-103 192,-103 192,-78 150,-78"/>
<text text-anchor="start" x="155" y="-87.8" font-family="Times,serif" font-weight="bold" font-size="14.00">Class</text>
</g>
<!-- meta -->
<g id="node5" class="node">
<title>meta</title>
<polygon fill="none" stroke="black" points="24,-142 24,-167 98,-167 98,-142 24,-142"/>
<text text-anchor="start" x="29" y="-151.8" font-family="Times,serif" font-weight="bold" font-size="14.00">Metaspace</text>
<polygon fill="none" stroke="black" points="24,-117 24,-142 72,-142 72,-117 24,-117"/>
<text text-anchor="start" x="43" y="-125.8" font-family="Times,serif" font-size="14.00">B</text>
<polygon fill="none" stroke="black" points="72,-117 72,-142 98,-142 98,-117 72,-117"/>
<polygon fill="none" stroke="black" points="24,-92 24,-117 72,-117 72,-92 24,-92"/>
<text text-anchor="start" x="36.5" y="-100.8" font-family="Times,serif" font-size="14.00">B.A</text>
<polygon fill="none" stroke="black" points="72,-92 72,-117 98,-117 98,-92 72,-92"/>
</g>
<!-- meta&#45;&gt;bc -->
<g id="edge2" class="edge">
<title>meta:c&#45;&gt;bc</title>
<path fill="none" stroke="black" d="M86,-129C86,-129 109.67,-136.61 131.88,-143.75"/>
<polygon fill="black" stroke="black" points="130.97,-147.13 141.56,-146.86 133.11,-140.47 130.97,-147.13"/>
</g>
<!-- meta&#45;&gt;ac -->
<g id="edge3" class="edge">
<title>meta:c&#45;&gt;ac</title>
<path fill="none" stroke="black" d="M86,-104C86,-104 109.46,-100.37 131.58,-96.95"/>
<polygon fill="black" stroke="black" points="132.21,-100.39 141.56,-95.4 131.14,-93.47 132.21,-100.39"/>
</g>
</g>
</svg>
