<?xml version="1.0" encoding="UTF-8" standalone="no"?>
<!DOCTYPE svg PUBLIC "-//W3C//DTD SVG 1.1//EN"
 "http://www.w3.org/Graphics/SVG/1.1/DTD/svg11.dtd">
<!-- Generated by graphviz version 2.49.3 (20211023.0002)
 -->
<!-- Title: G Pages: 1 -->
<svg width="305pt" height="143pt"
 viewBox="0.00 0.00 305.00 143.00" xmlns="http://www.w3.org/2000/svg" xmlns:xlink="http://www.w3.org/1999/xlink">
<g id="graph0" class="graph" transform="scale(1 1) rotate(0) translate(4 139)">
<title>G</title>
<polygon fill="white" stroke="transparent" points="-4,4 -4,-139 301,-139 301,4 -4,4"/>
<!-- a -->
<g id="node1" class="node">
<title>a</title>
<polygon fill="none" stroke="black" points="8,-105.5 8,-130.5 62,-130.5 62,-105.5 8,-105.5"/>
<text text-anchor="start" x="23" y="-115.3" font-family="Times,serif" font-weight="bold" font-size="14.00">List</text>
<polygon fill="none" stroke="black" points="8,-80.5 8,-105.5 45,-105.5 45,-80.5 8,-80.5"/>
<text text-anchor="start" x="13" y="-89.3" font-family="Times,serif" font-size="14.00">head</text>
<polygon fill="none" stroke="black" points="45,-80.5 45,-105.5 62,-105.5 62,-80.5 45,-80.5"/>
<text text-anchor="start" x="50" y="-89.3" font-family="Times,serif" font-size="14.00">2</text>
<polygon fill="none" stroke="black" points="8,-55.5 8,-80.5 45,-80.5 45,-55.5 8,-55.5"/>
<text text-anchor="start" x="17.5" y="-64.3" font-family="Times,serif" font-size="14.00">tail</text>
<polygon fill="none" stroke="black" points="45,-55.5 45,-80.5 62,-80.5 62,-55.5 45,-55.5"/>
</g>
<!-- b -->
<g id="node2" class="node">
<title>b</title>
<polygon fill="none" stroke="black" points="114,-79.5 114,-104.5 168,-104.5 168,-79.5 114,-79.5"/>
<text text-anchor="start" x="129" y="-89.3" font-family="Times,serif" font-weight="bold" font-size="14.00">List</text>
<polygon fill="none" stroke="black" points="114,-54.5 114,-79.5 151,-79.5 151,-54.5 114,-54.5"/>
<text text-anchor="start" x="119" y="-63.3" font-family="Times,serif" font-size="14.00">head</text>
<polygon fill="none" stroke="black" points="151,-54.5 151,-79.5 168,-79.5 168,-54.5 151,-54.5"/>
<text text-anchor="start" x="156" y="-63.3" font-family="Times,serif" font-size="14.00">1</text>
<polygon fill="none" stroke="black" points="114,-29.5 114,-54.5 151,-54.5 151,-29.5 114,-29.5"/>
<text text-anchor="start" x="123.5" y="-38.3" font-family="Times,serif" font-size="14.00">tail</text>
<polygon fill="none" stroke="black" points="151,-29.5 151,-54.5 168,-54.5 168,-29.5 151,-29.5"/>
</g>
<!-- a&#45;&gt;b -->
<g id="edge1" class="edge">
<title>a:c&#45;&gt;b</title>
<path fill="none" stroke="black" d="M55,-67.5C55,-67.5 75.14,-67.5 95.81,-67.5"/>
<polygon fill="black" stroke="black" points="95.92,-71 105.92,-67.5 95.92,-64 95.92,-71"/>
</g>
<!-- c -->
<g id="node3" class="node">
<title>c</title>
<polygon fill="none" stroke="black" points="220.5,-53.5 220.5,-78.5 289.5,-78.5 289.5,-53.5 220.5,-53.5"/>
<text text-anchor="start" x="243" y="-63.3" font-family="Times,serif" font-weight="bold" font-size="14.00">List</text>
<polygon fill="none" stroke="black" points="220.5,-28.5 220.5,-53.5 257.5,-53.5 257.5,-28.5 220.5,-28.5"/>
<text text-anchor="start" x="225.5" y="-37.3" font-family="Times,serif" font-size="14.00">head</text>
<polygon fill="none" stroke="black" points="257.5,-28.5 257.5,-53.5 289.5,-53.5 289.5,-28.5 257.5,-28.5"/>
<text text-anchor="start" x="262.5" y="-37.3" font-family="Times,serif" font-size="14.00">null</text>
<polygon fill="none" stroke="black" points="220.5,-3.5 220.5,-28.5 257.5,-28.5 257.5,-3.5 220.5,-3.5"/>
<text text-anchor="start" x="230" y="-12.3" font-family="Times,serif" font-size="14.00">tail</text>
<polygon fill="none" stroke="black" points="257.5,-3.5 257.5,-28.5 289.5,-28.5 289.5,-3.5 257.5,-3.5"/>
<text text-anchor="start" x="262.5" y="-12.3" font-family="Times,serif" font-size="14.00">null</text>
</g>
<!-- b&#45;&gt;c -->
<g id="edge2" class="edge">
<title>b:c&#45;&gt;c</title>
<path fill="none" stroke="black" d="M161,-41.5C161,-41.5 180.6,-41.5 201.75,-41.5"/>
<polygon fill="black" stroke="black" points="201.85,-45 211.85,-41.5 201.85,-38 201.85,-45"/>
</g>
</g>
</svg>
