<?xml version="1.0" encoding="UTF-8" standalone="no"?>
<!DOCTYPE svg PUBLIC "-//W3C//DTD SVG 1.1//EN"
 "http://www.w3.org/Graphics/SVG/1.1/DTD/svg11.dtd">
<!-- Generated by graphviz version 2.49.3 (20211023.0002)
 -->
<!-- Title: G Pages: 1 -->
<svg width="329pt" height="166pt"
 viewBox="0.00 0.00 329.00 166.00" xmlns="http://www.w3.org/2000/svg" xmlns:xlink="http://www.w3.org/1999/xlink">
<g id="graph0" class="graph" transform="scale(1 1) rotate(0) translate(4 162)">
<title>G</title>
<polygon fill="white" stroke="transparent" points="-4,4 -4,-162 325,-162 325,4 -4,4"/>
<!-- stack -->
<g id="node1" class="node">
<title>stack</title>
<polygon fill="none" stroke="#f0f0f0" points="8.5,-70.5 8.5,-116.5 23.5,-116.5 23.5,-70.5 8.5,-70.5"/>
<text text-anchor="start" x="12.5" y="-89.8" font-family="Times,serif" font-size="14.00">g</text>
<polygon fill="none" stroke="black" points="23.5,-93.5 23.5,-116.5 52.5,-116.5 52.5,-93.5 23.5,-93.5"/>
<text text-anchor="start" x="32.5" y="-101.3" font-family="Times,serif" font-size="14.00">w</text>
<polygon fill="none" stroke="black" points="52.5,-93.5 52.5,-116.5 67.5,-116.5 67.5,-93.5 52.5,-93.5"/>
<text text-anchor="start" x="56.5" y="-101.3" font-family="Times,serif" font-size="14.00">1</text>
<polygon fill="none" stroke="black" points="23.5,-70.5 23.5,-93.5 52.5,-93.5 52.5,-70.5 23.5,-70.5"/>
<text text-anchor="start" x="27.5" y="-78.3" font-family="Times,serif" font-size="14.00">this</text>
<polygon fill="none" stroke="black" points="52.5,-70.5 52.5,-93.5 67.5,-93.5 67.5,-70.5 52.5,-70.5"/>
<polygon fill="none" stroke="#f0f0f0" points="8.5,-24.5 8.5,-70.5 23.5,-70.5 23.5,-24.5 8.5,-24.5"/>
<text text-anchor="start" x="13.5" y="-43.8" font-family="Times,serif" font-size="14.00">f</text>
<polygon fill="none" stroke="black" points="23.5,-47.5 23.5,-70.5 52.5,-70.5 52.5,-47.5 23.5,-47.5"/>
<text text-anchor="start" x="34.5" y="-55.3" font-family="Times,serif" font-size="14.00">z</text>
<polygon fill="none" stroke="black" points="52.5,-47.5 52.5,-70.5 67.5,-70.5 67.5,-47.5 52.5,-47.5"/>
<text text-anchor="start" x="56.5" y="-55.3" font-family="Times,serif" font-size="14.00">2</text>
<polygon fill="none" stroke="black" points="23.5,-24.5 23.5,-47.5 52.5,-47.5 52.5,-24.5 23.5,-24.5"/>
<text text-anchor="start" x="34.5" y="-32.3" font-family="Times,serif" font-size="14.00">a</text>
<polygon fill="none" stroke="black" points="52.5,-24.5 52.5,-47.5 67.5,-47.5 67.5,-24.5 52.5,-24.5"/>
<text text-anchor="start" x="29.5" y="-10.3" font-family="Times,serif" font-size="14.00">Stack</text>
</g>
<!-- t1 -->
<g id="node3" class="node">
<title>t1</title>
<polygon fill="none" stroke="black" points="119.5,-110.5 119.5,-135.5 194.5,-135.5 194.5,-110.5 119.5,-110.5"/>
<text text-anchor="start" x="124.5" y="-120.3" font-family="Times,serif" font-weight="bold" font-size="14.00">Transform</text>
<polygon fill="none" stroke="black" points="119.5,-85.5 119.5,-110.5 174.5,-110.5 174.5,-85.5 119.5,-85.5"/>
<text text-anchor="start" x="129.5" y="-94.3" font-family="Times,serif" font-size="14.00">parent</text>
<polygon fill="none" stroke="black" points="174.5,-85.5 174.5,-110.5 194.5,-110.5 194.5,-85.5 174.5,-85.5"/>
<polygon fill="none" stroke="black" points="119.5,-60.5 119.5,-85.5 174.5,-85.5 174.5,-60.5 119.5,-60.5"/>
<text text-anchor="start" x="137" y="-69.3" font-family="Times,serif" font-size="14.00">pos</text>
<polygon fill="none" stroke="black" points="174.5,-60.5 174.5,-85.5 194.5,-85.5 194.5,-60.5 174.5,-60.5"/>
</g>
<!-- stack&#45;&gt;t1 -->
<g id="edge1" class="edge">
<title>stack:c&#45;&gt;t1</title>
<path fill="none" stroke="black" d="M61.5,-82.5C61.5,-82.5 80.27,-85.69 101.03,-89.23"/>
<polygon fill="black" stroke="black" points="100.53,-92.69 110.98,-90.92 101.71,-85.79 100.53,-92.69"/>
</g>
<!-- a -->
<g id="node4" class="node">
<title>a</title>
<polygon fill="none" stroke="black" points="130.5,-9.5 130.5,-30.5 143.5,-30.5 143.5,-9.5 130.5,-9.5"/>
<text text-anchor="start" x="133.5" y="-16.3" font-family="Times,serif" font-size="14.00">1</text>
<polygon fill="none" stroke="black" points="143.5,-9.5 143.5,-30.5 156.5,-30.5 156.5,-9.5 143.5,-9.5"/>
<text text-anchor="start" x="146.5" y="-16.3" font-family="Times,serif" font-size="14.00">2</text>
<polygon fill="none" stroke="black" points="156.5,-9.5 156.5,-30.5 169.5,-30.5 169.5,-9.5 156.5,-9.5"/>
<text text-anchor="start" x="159.5" y="-16.3" font-family="Times,serif" font-size="14.00">3</text>
<polygon fill="none" stroke="black" points="169.5,-9.5 169.5,-30.5 182.5,-30.5 182.5,-9.5 169.5,-9.5"/>
<text text-anchor="start" x="172.5" y="-16.3" font-family="Times,serif" font-size="14.00">4</text>
</g>
<!-- stack&#45;&gt;a -->
<g id="edge2" class="edge">
<title>stack:c&#45;&gt;a</title>
<path fill="none" stroke="black" d="M61.5,-35.5C61.5,-35.5 87.61,-31.33 112.3,-27.39"/>
<polygon fill="black" stroke="black" points="113.04,-30.82 122.36,-25.79 111.93,-23.91 113.04,-30.82"/>
</g>
<!-- v2 -->
<g id="node2" class="node">
<title>v2</title>
<polygon fill="none" stroke="black" points="246.5,-84.5 246.5,-109.5 313.5,-109.5 313.5,-84.5 246.5,-84.5"/>
<text text-anchor="start" x="251.5" y="-94.3" font-family="Times,serif" font-weight="bold" font-size="14.00">Vector2D</text>
<polygon fill="none" stroke="black" points="246.5,-59.5 246.5,-84.5 279.5,-84.5 279.5,-59.5 246.5,-59.5"/>
<text text-anchor="start" x="259.5" y="-68.3" font-family="Times,serif" font-size="14.00">x</text>
<polygon fill="none" stroke="black" points="279.5,-59.5 279.5,-84.5 313.5,-84.5 313.5,-59.5 279.5,-59.5"/>
<text text-anchor="start" x="293" y="-68.3" font-family="Times,serif" font-size="14.00">1</text>
<polygon fill="none" stroke="black" points="246.5,-34.5 246.5,-59.5 279.5,-59.5 279.5,-34.5 246.5,-34.5"/>
<text text-anchor="start" x="259.5" y="-43.3" font-family="Times,serif" font-size="14.00">y</text>
<polygon fill="none" stroke="black" points="279.5,-34.5 279.5,-59.5 313.5,-59.5 313.5,-34.5 279.5,-34.5"/>
<text text-anchor="start" x="293" y="-43.3" font-family="Times,serif" font-size="14.00">2</text>
</g>
<!-- t1&#45;&gt;v2 -->
<g id="edge4" class="edge">
<title>t1:c&#45;&gt;v2</title>
<path fill="none" stroke="black" d="M185.5,-72.5C185.5,-72.5 206.12,-72.5 227.94,-72.5"/>
<polygon fill="black" stroke="black" points="227.98,-76 237.98,-72.5 227.98,-69 227.98,-76"/>
</g>
<!-- t1&#45;&gt;t1 -->
<g id="edge3" class="edge">
<title>t1:c&#45;&gt;t1</title>
<path fill="none" stroke="black" d="M184.5,-97.5C214,-117.33 214,-158 170.5,-158 157.42,-158 148.27,-154.41 142.67,-148.85"/>
<polygon fill="black" stroke="black" points="145.51,-146.79 137.21,-140.21 139.59,-150.53 145.51,-146.79"/>
</g>
</g>
</svg>
